<ttFont>
          <CharString index="0">
            92 0 557.149993896 732 -89.5500030518 0 rlineto
            return
          </CharString>
          <CharString index="1">
            -143.300003052 -25.5 rlineto
            return
          </CharString>
          <CharString index="2">
            314 0 16.1999969482 102 -314 0 rlineto
            return
          </CharString>
          <CharString index="3">
            -1.99998474121 -14 9 -9 14 0 rrcurveto
            74 hlineto
            14.0000152588 0 11 5 3 18 rrcurveto
            12.5 78 rlineto
            3.00001525879 16 -6 9 -18 0 rrcurveto
            -74 hlineto
            -15.9999847412 0 -10 -10 -2 -15 rrcurveto
            return
          </CharString>
          <CharString index="4">
            -122.550003052 0 -84.9499969482 -8.75 -97.3500061035 -14.75 rrcurveto
            -13.8999938965 -86.5 rlineto
            return
          </CharString>
          <CharString index="5">
            82.9999847412 -31 107.5 3 114 0 122 0 71.6500091553 54.8000030518 17.6999969482 113.199996948 rrcurveto
            8.25 48.5 rlineto
            12.0000152588 76 -15.1500091553 58.8999938965 -46.4499969482 19.6000061035 47 10.3000030518 35 44 12.6500091553 78.1999969482 rrcurveto
            9.60000610352 58.5 rlineto
            16.3999938965 103.399993896 -65.75 73.6000061035 -100.900009155 2 -117 2 -116.5 1 -93 -31 rrcurveto
            -12.6000061035 -81 283 0 rlineto
            52 0 47.549987793 -9.75 -10.9499969482 -67.25 rrcurveto
            -7.5 -47.6499938965 rlineto
            -8.95001220703 -55.75 -35.75 -22.75 -69 -3 rrcurveto
            return
          </CharString>
          <CharString index="6">
            -216 -9.30000305176 -15.6000061035 -93 rlineto
            return
          </CharString>
          <CharString index="7">
            214 -7.69999694824 rlineto
            57.1500091553 -2.70001220703 41 -2.94999694824 -12.8500061035 -81.0999908447 rrcurveto
            -6.85000610352 -41.8500061035 rlineto
            -9.60000610352 -60 -48.9499969482 -17.25 -58.5 0 rrcurveto
            return
          </CharString>
          <CharString index="8">
            25.1999969482 -54.5 349.050003052 0 -26.1999969482 -167.5 117.949996948 0 26.1999969482 167.5 83.1999969482 22.5 13.8999938965 90.5 -79.5 0 41.1499938965 257.5 -82.5 0 -47.4499969482 -76.0500030518 -29.1499938965 -181.449996948 -213.350006104 0 317.25 449.5 -133.25 0 rlineto
            return
          </CharString>
          <CharString index="9">
            208.399993896 hlineto
            53.8999938965 0 14.950012207 -13.3000030518 -8.95001220703 -54.6999969482 rrcurveto
            -13.75 -88.25 rlineto
            -9.25 -59.1000061035 -42.1999969482 -10.9499969482 -33 0 rrcurveto
            -104.550003052 hlineto
            -87.75 -1.52587890625e-05 4.55000305176 115.100006104 17.6500091553 111.199996948 rrcurveto
            return
          </CharString>
          <CharString index="10">
            356 0 -335.399993896 -623 129.300003052 0 358.649993896 673.5 -24.25 58.5 -466.699996948 0 rlineto
            return
          </CharString>
          <CharString index="11">
            427 0 16.8500061035 102 -427 0 rlineto
            return
          </CharString>
          <CharString index="12">
            126 0 116 17 50 10 rrcurveto
            11.8500061035 71.5 rlineto
            return
          </CharString>
          <CharString index="13">
            116 0 116 732 -116 0 rlineto
            return
          </CharString>
          <CharString index="14">
            40.3500061035 257 58.8000030518 10 117.25 0 112.449996948 0 59.1499938965 -13.1499938965 -40 -253.850006104 -34.0999908447 -216.100006104 -58.25 -39.8999938965 -122.400009155 0 -131.799987793 0 -36.5 35.3999938965 35.049987793 220.600006104 rrcurveto
            return
          </CharString>
          <CharString index="15">
            112.100006104 -136.5 83 0 -87.8000030518 136.5 rlineto
            return
          </CharString>
          <CharString index="16">
            89.5500030518 0 -70.8000030518 -436 116 0 71.4499969482 436 rlineto
            return
          </CharString>
          <CharString index="17">
            -93.5 -18.3000030518 rlineto
            return
          </CharString>
          <CharString index="18">
            116 0 84 531 -116 0 rlineto
            return
          </CharString>
          <CharString index="19">
            -16.1999969482 58.5 -90.5 0 rlineto
            return
          </CharString>
          <CharString index="20">
            131.899993896 0 15.1499938965 95 -131.899993896 0 23.3500061035 148 -94.5 0 -44.8500061035 -148 rlineto
            return
          </CharString>
          <CharString index="21">
            -94.6499938965 -25 rlineto
            return
          </CharString>
          <CharString index="22">
            15.3500061035 -50.1000061035 rlineto
            return
          </CharString>
          <CharString index="23">
            36.950012207 17.5 22.3999938965 17.5 39 0 rrcurveto
            return
          </CharString>
          <CharString index="24">
            39 0 22.8000030518 -35 44.3000030518 0 52.3000030518 0 43.3999938965 44.1999969482 29.6000061035 27.8000030518 rrcurveto
            -14.6499938965 53.1999969482 rlineto
            -27.9499969482 -18.450012207 -32.6999969482 -22.25 -39.3500061035 0.699996948242 rrcurveto
            return
          </CharString>
          <CharString index="25">
            -40 0 -16 35 -44 0 rrcurveto
            -54.049987793 0 -36.3000030518 -36.0500030518 -40.1000061035 -34.049987793 rrcurveto
            return
          </CharString>
          <CharString index="26">
            -4.69998168945 -30.8000030518 21.0999908447 -25.4499969482 30.8000030518 0 30.8000030518 0 28.8000030518 25.4499969482 4.69999694824 30.8000030518 4.69999694824 30.8000030518 -20.4499969482 24.4499969482 -30.8000030518 0 -30.8000030518 0 -29.4499969482 -24.4499969482 -4.69999694824 -30.8000030518 rrcurveto
            return
          </CharString>
          <CharString index="27">
            -22.6499938965 -146.899993896 24.3500061035 -228.100006104 192.350006104 0 rrcurveto
            239 hlineto
            151 0 92.9499969482 141.399993896 34.5 216.100006104 24.8999938965 155.850006104 0.25 218.649993896 -195.849990845 0 rrcurveto
            -239 hlineto
            -204.950012207 0 -68.4499969482 -173.050003052 -28.3999938965 -183.949996948 rrcurveto
            return
          </CharString>
          <CharString index="28">
            36.6000061035 232.550003052 83.6000061035 53.4499969482 88.3500061035 0 rrcurveto
            245.5 hlineto
            131 0 -17.5500030518 -166 -19 -120 -32 -204 -76.5 -86 -82.1999969482 0 rrcurveto
            -239.399993896 hlineto
            -114.000015259 0 -28.0999908447 141.399993896 23.6999969482 148.600006104 rrcurveto
            return
          </CharString>
          <CharString index="29">
            178 -208 73.25 57.8500061035 -121.550003052 142.100006104 166.899993896 142.699996948 -58.6000061035 68.3500061035 rlineto
            return
          </CharString>
          <CharString index="30">
            292 0 11.75 73.5 -292 0 rlineto
            return
          </CharString>
          <CharString index="31">
            329.300003052 0 13.8500061035 86.1499938965 -165.75 0 rlineto
            37.0500030518 32.1000061035 150.599990845 92.450012207 19.200012207 128.299987793 10.0999908447 58.450012207 -33 88.75 -97.3000030518 0 rrcurveto
            return
          </CharString>
          <CharString index="32">
            -81.799987793 0 -47.0500030518 -7.70001220703 -64.1999969482 -9.75 -0.650009155273 0.650009155273 -11.5 -69.3500061035 1.30000305176 0 rrcurveto
            return
          </CharString>
          <CharString index="33">
            163.600006104 hlineto
            56.5999908447 -1.52587890625e-05 16.5 -17 -7.30000305176 -47.0500030518 -14.1499938965 -88.8499908447 -192.5 -119.050003052 -70.0500030518 -46.3000030518 rrcurveto
            return
          </CharString>
          <CharString index="34">
            55.049987793 -21.0500030518 63.75 2 76.1000061035 0 95.3999938965 -0.650009155273 41.75 42.700012207 11.6999969482 74.5 rrcurveto
            4 25.1999969482 rlineto
            6.69998168945 41.9000091553 -10.8999938965 40.6500091553 -32.3999938965 15.25 33.9499969482 8.59999084473 24.3499908447 34.1999969482 8 47.700012207 rrcurveto
            5.30000305176 31.8500061035 rlineto
            10.3999938965 66.6499938965 -39.5500030518 56 -77 1 -78.1000061035 1.34999084473 -69.75 0.300003051758 -61.75 -21.0500030518 rrcurveto
            -10.5 -66.1000061035 175.149993896 0 rlineto
            46.6999969482 0 18.25 -11.700012207 -6.30000305176 -35.6999969482 rrcurveto
            -1.94999694824 -15.6999969482 rlineto
            -4.94998168945 -33.6999969482 -24.1500091553 -13.9499969482 -45.3499908447 -2 rrcurveto
            -131.800003052 -5.30000305176 -11.5 -72.8500061035 129.449996948 -4.64999389648 rlineto
            37.8000030518 -1.34999084473 25.8000030518 -11.3999938965 -6.25 -40.8500061035 rrcurveto
            -2.94999694824 -16.6999969482 rlineto
            -5.59999084473 -36.6499938965 -28.3000030518 -11.4000091553 -42.8999938965 0 rrcurveto
            0 -145.350006104 -0.649993896484 -20.8000030518 vhcurveto
            return
          </CharString>
          <CharString index="35">
            83 0 147.699996948 136.5 -112.5 0 rlineto
            return
          </CharString>
          <CharString index="36">
            50.0500030518 -1.52587890625e-05 51.3000030518 10.5 20.8499908447 16.1500091553 rrcurveto
            -61.8500061035 -382.699996948 91.3999938965 0 76.3500061035 481.149993896 -89.3999938965 0 rlineto
            -11.200012207 -12.9499816895 -65.6999969482 -49.8500061035 -52 0 rrcurveto
            return
          </CharString>
          <CharString index="37">
            316.800003052 0 10.0500030518 65 -316.800003052 0 rlineto
            return
          </CharString>
          <CharString index="38">
            89 0 553 770 -89 0 rlineto
            return
          </CharString>
          <CharString index="39">
            114 -5 73.25 12 99.0999908447 16.5 rrcurveto
            13.25 83.8999938965 rlineto
            return
          </CharString>
          <CharString index="40">
            112.099609375 -136.5 83 0 -87.7998046875 136.5 rlineto
            return
          </CharString>
          <CharString index="41">
            127.900390625 0 90.1494140625 177.400390625 258.850585938 0 32.69921875 -177.400390625 118.400390625 0 -128.75 732 -128.25 0 rlineto
            return
          </CharString>
          <CharString index="42">
            146.349609375 296.099609375 49 -296.099609375 rlineto
            return
          </CharString>
          <CharString index="43">
            83 0 147.700195312 136.5 -112.5 0 rlineto
            return
          </CharString>
          <CharString index="44">
            94.7001953125 0 78.7998046875 71.7998046875 47.900390625 -71.7998046875 81.099609375 0 -78.099609375 133.5 -92 0 rlineto
            return
          </CharString>
          <CharString index="45">
            15.3505859375 -50.099609375 rlineto
            33.0498046875 17.5 24.349609375 16.849609375 42.25 0.650390625 rrcurveto
            return
          </CharString>
          <CharString index="46">
            37.0498046875 0.650390625 16.30078125 -34.3505859375 51.44921875 -0.6494140625 46.4501953125 -0.650390625 41.4501953125 37.0498046875 37.400390625 29.1005859375 rrcurveto
            -14.650390625 53.19921875 rlineto
            -13 -10.6494140625 -57.400390625 -26.7998046875 -29.599609375 1.349609375 rrcurveto
            return
          </CharString>
          <CharString index="47">
            -32.2001953125 0.650390625 -19.8994140625 31.75 -47.900390625 1.94921875 rrcurveto
            -46.25 0 -44.099609375 -33.44921875 -40.1005859375 -34.05078125 rrcurveto
            return
          </CharString>
          <CharString index="48">
            -4.7001953125 -30.7998046875 21.099609375 -25.4501953125 30.80078125 0 30.7998046875 0 28.7998046875 25.4501953125 4.7001953125 30.7998046875 4.7001953125 30.7998046875 -20.4501953125 24.4501953125 -30.7998046875 0 -30.80078125 0 -29.44921875 -24.4501953125 -4.7001953125 -30.7998046875 rrcurveto
            return
          </CharString>
          <CharString index="49">
            -4.9912109375 -57 43.0908203125 -44.2998046875 56 0 56 0 47.9091796875 44.2998046875 4.9912109375 57 4.9912109375 57 -41.68359375 44.9501953125 -56 0 -56 0 -49.31640625 -44.9501953125 -4.9912109375 -57 rrcurveto
            return
          </CharString>
          <CharString index="50">
            -18.1494140625 -114.650390625 83.783203125 -32.2666015625 68.9169921875 3.4169921875 rrcurveto
            return
          </CharString>
          <CharString index="51">
            0 0 269.399414062 12.099609375 37.1005859375 4.900390625 rrcurveto
            15.599609375 93.75 rlineto
            return
          </CharString>
          <CharString index="52">
            -282.5 hlineto
            -29 0 -33.349609375 -1 7.69921875 53 rrcurveto
            23.6005859375 146.799804688 rlineto
            return
          </CharString>
          <CharString index="53">
            301.649414062 9.650390625 15.6005859375 94.7001953125 rlineto
            return
          </CharString>
          <CharString index="54">
            -299.299804688 10.349609375 22.8994140625 144 rlineto
            4 27 7.25 29 49.400390625 0 rrcurveto
            return
          </CharString>
          <CharString index="55">
            292.5 0 14.9501953125 94.75 rlineto
            return
          </CharString>
          <CharString index="56">
            -40.25 5.599609375 -270.25 10.400390625 0 0 -80.55078125 2.599609375 -71.099609375 -29 -18.4501953125 -114.099609375 rrcurveto
            return
          </CharString>
          <CharString index="57">
            112.100585938 -136.5 83 0 -87.80078125 136.5 rlineto
            return
          </CharString>
          <CharString index="58">
            -4.69921875 -30.7998046875 21.099609375 -25.4501953125 30.7998046875 0 30.7998046875 0 28.80078125 25.4501953125 4.69921875 30.7998046875 4.7001953125 30.7998046875 -20.4501953125 24.4501953125 -30.7998046875 0 -30.7998046875 0 -29.4501953125 -24.4501953125 -4.7001953125 -30.7998046875 rrcurveto
            return
          </CharString>
          <CharString index="59">
            117 0 81.400390625 515.25 235.19921875 -515.25 113.400390625 0 116 732 -116 0 -81.75 -518.75 -233.849609375 518.75 -115.400390625 0 rlineto
            return
          </CharString>
          <CharString index="60">
            112.100585938 -136.5 83 0 -87.7998046875 136.5 rlineto
            return
          </CharString>
          <CharString index="61">
            -53 -333 123.19921875 -40.75 168.30078125 0 175.44921875 0 116.350585938 33.25 49.7001953125 323 51.3994140625 335.200195312 -114.599609375 49.5498046875 -173.650390625 0 -172.549804688 0 -116.599609375 -24.25 -54 -343 rrcurveto
            return
          </CharString>
          <CharString index="62">
            40.349609375 257 58.7998046875 10 117.25 0 112.450195312 0 59.150390625 -13.150390625 -40 -253.849609375 -34.1005859375 -216.099609375 -58.25 -39.900390625 -122.399414062 0 -131.80078125 0 -36.5 35.400390625 35.05078125 220.599609375 rrcurveto
            return
          </CharString>
          <CharString index="63">
            15.349609375 -50.099609375 rlineto
            33.0498046875 17.5 24.3505859375 16.849609375 42.25 0.650390625 rrcurveto
            return
          </CharString>
          <CharString index="64">
            37.0498046875 0.650390625 16.2998046875 -34.3505859375 51.4501953125 -0.6494140625 46.4501953125 -0.650390625 41.44921875 37.0498046875 37.400390625 29.1005859375 rrcurveto
            -14.650390625 53.19921875 rlineto
            -13 -10.6494140625 -57.3994140625 -26.7998046875 -29.6005859375 1.349609375 rrcurveto
            return
          </CharString>
          <CharString index="65">
            -32.19921875 0.650390625 -19.900390625 31.75 -47.900390625 1.94921875 rrcurveto
            -46.25 0 -44.099609375 -33.44921875 -40.099609375 -34.05078125 rrcurveto
            return
          </CharString>
          <CharString index="66">
            -41.30078125 -260.200195312 106.850585938 -63.599609375 154.200195312 0 200.299804688 0 85.849609375 96.7998046875 32.7998046875 206 rrcurveto
            65.2001953125 434.200195312 -117 0 -66.9501953125 -423.700195312 rlineto
            -23.099609375 -147.200195312 -47.75 -57.099609375 -115.650390625 0 -111.25 0 -31.349609375 47.900390625 24.75 156.399414062 rrcurveto
            66.9501953125 423.700195312 -116.650390625 0 rlineto
            return
          </CharString>
          <CharString index="67">
            94.69921875 0 78.80078125 71.7998046875 47.8994140625 -71.7998046875 81.1005859375 0 -78.1005859375 133.5 -92 0 rlineto
            return
          </CharString>
          <CharString index="68">
            -4.7001953125 -30.7998046875 21.1005859375 -25.4501953125 30.7998046875 0 30.7998046875 0 28.7998046875 25.4501953125 4.7001953125 30.7998046875 4.7001953125 30.7998046875 -20.4501953125 24.4501953125 -30.7998046875 0 -30.7998046875 0 -29.4501953125 -24.4501953125 -4.7001953125 -30.7998046875 rrcurveto
            return
          </CharString>
          <CharString index="69">
            148.549804688 -493 -37.849609375 -239 116 0 37.849609375 239 323.450195312 493 -133.849609375 0 -229.600585938 -361.049804688 -100 361.049804688 rlineto
            return
          </CharString>
          <CharString index="70">
            -41.05078125 -227 77.9501953125 -69.2001953125 107.350585938 0 68.599609375 0 74.0498046875 35.75 27.25 27.75 rrcurveto
            return
          </CharString>
          <CharString index="71">
            17.650390625 -56.5 88 0 70 478.299804688 rlineto
            -51 49 -126.549804688 18.849609375 -74.2001953125 -5.849609375 rrcurveto
            -89.7001953125 -6.5 -108.5 -25.849609375 -39.849609375 -218.75 rrcurveto
            return
          </CharString>
          <CharString index="72">
            24.3505859375 154.599609375 47.19921875 14 52.400390625 10.25 33.650390625 6.9501953125 54.8994140625 -5.900390625 41.7998046875 -12.849609375 rrcurveto
            -43.25 -285.549804688 rlineto
            return
          </CharString>
          <CharString index="73">
            -45.25 -30.400390625 -36.8994140625 -19 -64.75 0 -68.2001953125 0 -13.75 53.7001953125 17.7998046875 114.200195312 rrcurveto
            return
          </CharString>
          <CharString index="74">
            15.349609375 -50.099609375 rlineto
            33.05078125 17.5 24.349609375 16.849609375 42.25 0.650390625 rrcurveto
            return
          </CharString>
          <CharString index="75">
            -4.7001953125 -30.80078125 21.099609375 -25.44921875 30.7998046875 0 30.80078125 0 28.7998046875 25.44921875 4.7001953125 30.80078125 4.69921875 30.7998046875 -20.44921875 24.4501953125 -30.80078125 0 -30.7998046875 0 -29.4501953125 -24.4501953125 -4.69921875 -30.7998046875 rrcurveto
            return
          </CharString>
          <CharString index="76">
            -4.9912109375 -57 43.091796875 -44.2998046875 56 0 56 0 47.908203125 44.2998046875 4.9912109375 57 4.9912109375 57 -41.6826171875 44.9501953125 -56 0 -56 0 -49.3173828125 -44.9501953125 -4.9912109375 -57 rrcurveto
            return
          </CharString>
          <CharString index="77">
            -36 -194 38.2001953125 -101.150390625 127.649414062 -3.849609375 100.850585938 -4.2001953125 84.75 9.5 81.5498046875 23.7001953125 rrcurveto
            13.599609375 84 rlineto
            -67.849609375 -10.650390625 -95.3505859375 -9 -65.5 3.900390625 -71 0.650390625 -19.349609375 27.1494140625 16.099609375 96.7001953125 37 -15 304.75 -45.4501953125 19.9501953125 233.700195312 10.7998046875 119.849609375 -94 33.5 -118.649414062 -0.349609375 -195 -0.7001953125 -41.5 -85.2998046875 -31 -163 rrcurveto
            return
          </CharString>
          <CharString index="78">
            14.7998046875 74.900390625 8.7001953125 73.6494140625 118.049804688 0.7001953125 68 0.349609375 33.5 -9.75 -9.8994140625 -57.349609375 -19.150390625 -112.099609375 -214 29.599609375 0 0 rrcurveto
            return
          </CharString>
          <CharString index="79">
            83 0 147.69921875 136.5 -112.5 0 rlineto
            return
          </CharString>
          <CharString index="80">
            94.7001953125 0 78.7998046875 71.7998046875 47.8994140625 -71.7998046875 81.1005859375 0 -78.1005859375 133.5 -92 0 rlineto
            return
          </CharString>
          <CharString index="81">
            37.05078125 0.650390625 16.2998046875 -34.3505859375 51.4501953125 -0.6494140625 46.44921875 -0.650390625 41.4501953125 37.0498046875 37.400390625 29.1005859375 rrcurveto
            -14.650390625 53.19921875 rlineto
            -13 -10.6494140625 -57.3994140625 -26.7998046875 -29.6005859375 1.349609375 rrcurveto
            return
          </CharString>
          <CharString index="82">
            116 0 62.19921875 391.5 rlineto
            59.55078125 33.5 36.3994140625 16.5 64.9501953125 0 40.849609375 0 25.25 -23 -8.94921875 -57.599609375 rrcurveto
            -57.25 -360.900390625 116 0 57.25 359.5 rlineto
            15.3994140625 96.400390625 -29.9501953125 84.099609375 -117.19921875 0 -81 0 -51.9501953125 -33.900390625 -56.8505859375 -33.599609375 rrcurveto
            return
          </CharString>
          <CharString index="83">
            -16.19921875 58.5 -90.5 0 rlineto
            return
          </CharString>
          <CharString index="84">
            -30 -190 57.1494140625 -81.75 177.25 0 180.600585938 0 61.19921875 57.25 32.30078125 197 31.69921875 195.400390625 -54.599609375 92.3994140625 -174.299804688 0 -177.5 0 -69.7998046875 -53.2998046875 -34 -217 rrcurveto
            return
          </CharString>
          <CharString index="85">
            26.44921875 159.5 32.150390625 21.0498046875 93.4501953125 0 95.6494140625 0 23.9501953125 -29.1494140625 -25.1494140625 -151.400390625 -25.80078125 -152.599609375 -36.099609375 -11.900390625 -87.5 0 -84.7998046875 0 -37.1005859375 15.9501953125 24.80078125 148.549804688 rrcurveto
            return
          </CharString>
          <CharString index="86">
            15.349609375 -50.1005859375 rlineto
            33.0498046875 17.5 24.3505859375 16.8505859375 42.25 0.6494140625 rrcurveto
            return
          </CharString>
          <CharString index="87">
            37.0498046875 0.650390625 16.2998046875 -34.3505859375 51.4501953125 -0.6494140625 46.4501953125 -0.650390625 41.4501953125 37.0498046875 37.3994140625 29.1005859375 rrcurveto
            -14.6494140625 53.2001953125 rlineto
            -13 -10.650390625 -57.400390625 -26.7998046875 -29.599609375 1.349609375 rrcurveto
            return
          </CharString>
          <CharString index="88">
            -32.2001953125 0.650390625 -19.900390625 31.75 -47.8994140625 1.9501953125 rrcurveto
            -46.25 0 -44.1005859375 -33.4501953125 -40.099609375 -34.0498046875 rrcurveto
            return
          </CharString>
          <CharString index="89">
            -16.0498046875 -100.950195312 30.599609375 -79.5498046875 117.200195312 0 81 0 49.8994140625 31.099609375 58.25 36.400390625 rrcurveto
            return
          </CharString>
          <CharString index="90">
            15.8505859375 -58.5 90.5 0 84.349609375 531 -116 0 -61.5498046875 -391.5 rlineto
            return
          </CharString>
          <CharString index="91">
            -59.5498046875 -33.5 -36.400390625 -16.5 -64.9501953125 0 -40.849609375 0 -26.900390625 16.5 10.25 64.099609375 rrcurveto
            56.9501953125 360.900390625 -116 0 rlineto
            return
          </CharString>
          <CharString index="92">
            49.349609375 -404.900390625 rlineto
            11.8505859375 -96.5 58.5498046875 -29.599609375 57.2001953125 0 -37 -72.0498046875 -47.25 -77.2998046875 -86.25 -49.8505859375 rrcurveto
            -82.0498046875 vlineto
            91.75 17.099609375 106.049804688 61.2001953125 95.75 203.600585938 rrcurveto
            189.149414062 396.799804688 rlineto
            17.75 37.6494140625 12.400390625 49.150390625 -11.7001953125 48.400390625 rrcurveto
            -104.75 hlineto
            -5.6494140625 -47.150390625 -7.1005859375 -25.7998046875 -12.599609375 -27.3505859375 rrcurveto
            -155.549804688 -327.69921875 rlineto
            -5.6005859375 0.349609375 -46 -4.0498046875 -5.5498046875 42.7001953125 rrcurveto
            -44.400390625 387.349609375 rlineto
            return
          </CharString>
          <CharString index="93">
            -14.3000183105 -89.7499847412 67.6500091553 -26.5500030518 58.25 0 rrcurveto
            117.699996948 hlineto
            75.9499969482 0 43.9000091553 26.25 14.299987793 90.0500030518 rrcurveto
            38.6000061035 246.600006104 rlineto
            11 67 -32.0500030518 49.3000030518 -85.5 0 rrcurveto
            -117.699996948 hlineto
            -75.3999938965 -1.52587890625e-05 -50.8000030518 -33.6999969482 -13.3500061035 -84.6999969482 rrcurveto
            return
          </CharString>
          <CharString index="94">
            35.8500061035 215.149993896 rlineto
            4.64999389648 27.5 10.8000030518 18.1999969482 41.3999938965 0 rrcurveto
            84.1499938965 hlineto
            40.75 1.52587890625e-05 4.89999389648 -13.5 -5.64999389648 -32.1999969482 rrcurveto
            -35.8500061035 -215.5 rlineto
            -5.64999389648 -33.950012207 -13.4000091553 -11.75 -37.5999908447 0 rrcurveto
            -80.6499938965 hlineto
            -37.1000061035 0 -12.9000091553 5.90000915527 6.30000305176 40.1499938965 rrcurveto
            return
          </CharString>
          <CharString index="95">
            19.75 -38.3500061035 236.300003052 0 -17.5500030518 -105.300003052 89.9499969482 0 15.8500061035 105.649993896 rlineto
            return
          </CharString>
          <CharString index="96">
            55.1000061035 15.8000030518 11.5 73 -51.6999969482 0 25.25 158.149993896 -63.75 0 -33.5500030518 -49.0500030518 -17.25 -109.100006104 rlineto
            return
          </CharString>
          <CharString index="97">
            -128.75 0 197.75 283.399993896 -101 0 rlineto
            return
          </CharString>
          <CharString index="98">
            87.1000061035 -15.6999969482 44.200012207 0.949996948242 83.0999908447 -0.649993896484 67.3500061035 -0.650009155273 57.6499938965 20.1999969482 12.5500030518 92.700012207 rrcurveto
            10.6499938965 68.5500030518 rlineto
            9.25 63.6500091553 -27.4499969482 60.5500030518 -75.3000030518 2.79998779297 -32.6999969482 1.05000305176 -63.6999969482 6.5 -32.9499969482 -25.1499938965 rrcurveto
            23 106.5 217.550003052 0 13.8500061035 86.1499938965 -304.449996948 0 -62.6999969482 -298.300003052 79.8000030518 0 rlineto
            4.94999694824 28.3500061035 16.4499969482 11.5500030518 23.6000061035 0 rrcurveto
            82.3000030518 hlineto
            43.5500030518 1.52587890625e-05 -4.44999694824 -29.5 -2.64999389648 -20.25 rrcurveto
            -6.19999694824 -41.6499938965 rlineto
            -3.94999694824 -29.5 -14.4499969482 -16.3499908447 -35.6999969482 0 rrcurveto
            return
          </CharString>
          <CharString index="99">
            -32.3500061035 -201.549987793 64.1499938965 -55.450012207 70.1500091553 0 rrcurveto
            99.5 hlineto
            76.200012207 0 46.3500061035 26 12.049987793 77.950012207 rrcurveto
            11 71.25 rlineto
            8.75 53.1999969482 -24.8499908447 63.1499938965 -82.3500061035 -0.649993896484 -51.1499938965 -0.650009155273 -56.1000061035 -5.25 -45.8499908447 -8.79998779297 8.59999084473 49.049987793 12.1000061035 73.8500061035 61.0999908447 0 rrcurveto
            187.199996948 0 rlineto
            return
          </CharString>
          <CharString index="100">
            11.5 71.3500061035 rlineto
            return
          </CharString>
          <CharString index="101">
            137.649993896 hlineto
            28.25 -1.52587890625e-05 10.3999938965 -6.64999389648 -4.94999694824 -30.75 rrcurveto
            -7.55000305176 -46.6499938965 rlineto
            -4.59999084473 -29.6999969482 -13.5500030518 -11.1499938965 -29.1499938965 0 rrcurveto
            -76.1000061035 hlineto
            -56 1.52587890625e-05 9.55000305176 85.25 6.05000305176 39.6499938965 rrcurveto
            return
          </CharString>
          <CharString index="102">
            244.149993896 0 -227.199996948 -393.699996948 101.149993896 0 252.300003052 439.050003052 -17.8999938965 40.8000030518 -338.649993896 0 rlineto
            return
          </CharString>
          <CharString index="103">
            -7.64999389648 -49.1499938965 15.75 -64.6499938965 99 0 rrcurveto
            113.949996948 hlineto
            65.1500091553 0 53 8.79998779297 15.0500030518 97.6500091553 rrcurveto
            8.64999389648 55.5500030518 rlineto
            4.35000610352 28.3499908447 -3.14999389648 53.8000030518 -40.6000061035 12.25 48.6999969482 8.60000610352 14.6999969482 47.4499969482 2.35000610352 15.3999938965 rrcurveto
            5.64999389648 36.1499938965 rlineto
            12.3500061035 77.5 -43.9499969482 43 -65.1999969482 0 rrcurveto
            -113.649993896 hlineto
            -69.8000183105 0 -58 -19.0500030518 -15 -92.6999969482 rrcurveto
            -7 -41.3999938965 rlineto
            -5.34999084473 -33.8500061035 5.05000305176 -42.1500091553 43.549987793 -22.3999938965 -32.5999908447 -7.30000305176 -30.1000061035 -19.1499938965 -6.94999694824 -42.75 rrcurveto
            return
          </CharString>
          <CharString index="104">
            6.60000610352 39.8500061035 rlineto
            4.60000610352 30.8999938965 15.0500030518 11.3000030518 29.3000030518 0 rrcurveto
            88 hlineto
            27.9499969482 1.52587890625e-05 10.1500091553 -13.6000061035 -4.60000610352 -28.5999908447 rrcurveto
            -5.94999694824 -39.8500061035 rlineto
            -3.94998168945 -27.3500061035 -15.3500061035 -10.299987793 -28.3500061035 0 rrcurveto
            -82.1499938965 hlineto
            -38.6000061035 0 -7 10.549987793 4.30000305176 27.1000061035 rrcurveto
            return
          </CharString>
          <CharString index="105">
            4.30000305176 26.0500030518 rlineto
            5.95001220703 37.9499969482 14.549987793 8.80000305176 34.3000030518 0 rrcurveto
            78.5500030518 hlineto
            30.3000030518 0 13.3999938965 -7.14999389648 -6.59999084473 -39.6000061035 rrcurveto
            -4.30000305176 -26.0500030518 rlineto
            -3.29998779297 -20.200012207 -6.25 -23.25 -40.6999969482 0 rrcurveto
            -84.3999938965 hlineto
            -22.3499908447 0 -19.0500030518 8.19999694824 5.60000610352 35.25 rrcurveto
            return
          </CharString>
          <CharString index="106">
            6.55000305176 43.1499938965 rlineto
            4.95001220703 30.3999938965 12.8500061035 11.5 29.1499938965 0 rrcurveto
            75.75 hlineto
            56 0 -8.19999694824 -82.1000061035 -6.40000915527 -41.3999938965 rrcurveto
            -137.649993896 hlineto
            -28.25 0 -10.0500030518 7 5.30000305176 31.4499969482 rrcurveto
            return
          </CharString>
          <CharString index="107">
            13.3999938965 88.25 rlineto
            9.25 59.1000061035 42.200012207 10.9499969482 33 0 rrcurveto
            104.199996948 hlineto
            87.7500152588 1.52587890625e-05 -4.19999694824 -115.100006104 -17.6500091553 -111.199996948 rrcurveto
            -208.399993896 hlineto
            -53.8999938965 0 -14.5999908447 13.3000030518 8.94999694824 54.6999969482 rrcurveto
            return
          </CharString>
          <CharString index="108">
            473 0 16.5500030518 103 -473 0 rlineto
            return
          </CharString>
          <CharString index="109">
            696 0 16.5500030518 103 -696 0 rlineto
            return
          </CharString>
          <CharString index="110">
            -155.799804688 -68.8994140625 69.349609375 -137.900390625 113.100585938 22.2998046875 rrcurveto
            11.3994140625 70.5 rlineto
            -66.8994140625 -4.69921875 -11.8505859375 55.94921875 90.2001953125 62.75 rrcurveto
            return
          </CharString>
          <CharString index="111">
            79.849609375 -133.5 90.25 0 132.400390625 133.5 -94.7001953125 0 -77.3994140625 -71.7998046875 -49.30078125 71.7998046875 rlineto
            return
          </CharString>
          <CharString index="112">
            56 -16.4501953125 101.955078125 -11.0498046875 100.044921875 0 87.9501953125 0 129.649414062 9.900390625 18.05078125 164.599609375 rrcurveto
            7.849609375 66.25 rlineto
            11.9501953125 81.2998046875 -19.2998046875 104.700195312 -133.150390625 0 rrcurveto
            -116.25 hlineto
            -53.349609375 0 -35.2001953125 0.099609375 12.7998046875 80.400390625 rrcurveto
            7.2001953125 46.75 rlineto
            12.2001953125 77.099609375 38.849609375 8.5 68.2998046875 -2.599609375 23.1005859375 0 163.69921875 -6.900390625 54.55078125 -2.44921875 rrcurveto
            14.25 91.19921875 rlineto
            -59.6005859375 14.650390625 -116.649414062 12.599609375 -86.25 -0.099609375 -109.400390625 1.5498046875 -95.099609375 -24.599609375 -23.25 -152.150390625 rrcurveto
            -10.3505859375 -72.2998046875 rlineto
            -9.958984375 -65.240234375 0.5087890625 -122.509765625 168.900390625 0 rrcurveto
            114.849609375 hlineto
            64.80078125 0 3.099609375 -31.900390625 -7.599609375 -47.19921875 rrcurveto
            -7.8505859375 -49.80078125 rlineto
            -10.2001953125 -65.75 -64.1494140625 -7.099609375 -41.7001953125 0 -93 0 -112.400390625 5.0498046875 -41.599609375 5.2998046875 rrcurveto
            return
          </CharString>
          <CharString index="113">
            54.5 hlineto
            84.2001953125 0 30.1494140625 37.5 16 102 rrcurveto
            -84.5 hlineto
            -6 -38 -6.5 -22.7998046875 -30 -12 rrcurveto
            -49.3994140625 -15 rlineto
            return
          </CharString>
          <CharString index="114">
            79.8505859375 -133.5 90.25 0 132.399414062 133.5 -94.69921875 0 -77.400390625 -71.7998046875 -49.2998046875 71.7998046875 rlineto
            return
          </CharString>
          <CharString index="115">
            203.5 0 -98.400390625 -623 116 0 98.400390625 623 209.5 0 17.599609375 109 -529 0 rlineto
            return
          </CharString>
          <CharString index="116">
            79.849609375 -133.5 90.25 0 132.400390625 133.5 -94.7001953125 0 -77.400390625 -71.7998046875 -49.2998046875 71.7998046875 rlineto
            return
          </CharString>
          <CharString index="117">
            500 0 17.599609375 109 -349.099609375 0 429.900390625 514 17.599609375 109 -500 0 -17.599609375 -109 355.75 0 -436.55078125 -514 rlineto
            return
          </CharString>
          <CharString index="118">
            -2 -14 9 -9 14 0 rrcurveto
            64 hlineto
            14 0 10 8 2 15 rrcurveto
            11.1005859375 68 rlineto
            2 14 -6 11 -15 0 rrcurveto
            -64 hlineto
            -16 0 -10 -10 -2 -15 rrcurveto
            return
          </CharString>
          <CharString index="119">
            34.5498046875 -16.9501953125 167.5 -8.349609375 81.900390625 0 58.7998046875 0 75.599609375 13.150390625 17 109 rrcurveto
            9 61.599609375 rlineto
            12.3505859375 76.400390625 -37.400390625 64.849609375 -96.099609375 0 rrcurveto
            -132.5 hlineto
            -22.400390625 0 -28.5498046875 -6.5 8.2001953125 49.150390625 rrcurveto
            5.5498046875 35.25 rlineto
            3 19.2998046875 7.7001953125 25.349609375 46.1494140625 0 rrcurveto
            247.700195312 0 rlineto
            return
          </CharString>
          <CharString index="120">
            12.150390625 76.9501953125 rlineto
            return
          </CharString>
          <CharString index="121">
            -42.25 16.900390625 -145.5 6.099609375 -83.8505859375 0 -103 0 -43.3994140625 -47.400390625 -13.650390625 -84.599609375 rrcurveto
            -8 -49.25 rlineto
            -16 -101.049804688 52.1005859375 -44.2998046875 94 0 rrcurveto
            129.44921875 hlineto
            34.2001953125 0 6.900390625 -15.1005859375 -4.6005859375 -26.9501953125 rrcurveto
            -6.19921875 -36.849609375 rlineto
            -7.2001953125 -42.5 -36.150390625 1.4501953125 -5.9501953125 0 rrcurveto
            return
          </CharString>
          <CharString index="122">
            -258.94921875 hlineto
            return
          </CharString>
          <CharString index="123">
            54.5 hlineto
            84.2001953125 0 30.150390625 37.5 16 102 rrcurveto
            -84.5 hlineto
            -6 -38 -6.5 -22.7998046875 -30 -12 rrcurveto
            -49.400390625 -15 rlineto
            return
          </CharString>
          <CharString index="124">
            402 hlineto
            0 0 16.5498046875 101 -1 1 rrcurveto
            -242.75 0 296.299804688 326 14.900390625 102 -417 0 -14.900390625 -102 265.950195312 0 -305.799804688 -326.700195312 rlineto
            return
          </CharString>
          <CharString index="125">
            116 0 46.8994140625 295.75 146.5 -10.5 90.6005859375 -285.25 130 0 -104.600585938 293.25 rlineto
            33.2001953125 4.7001953125 98.0498046875 14.349609375 22.150390625 185.700195312 21.2001953125 172.25 -73 61.75 -100.75 0 rrcurveto
            -310.25 hlineto
            return
          </CharString>
          <CharString index="126">
            -31.5 -196.599609375 33.7001953125 -187.200195312 187.25 -1.0498046875 94.0498046875 -1.0498046875 83.6005859375 3.1494140625 78.349609375 24.05078125 rrcurveto
            13.599609375 91.19921875 rlineto
            -92.2998046875 -6.5 -78.5498046875 -3.7998046875 -65.349609375 1.9501953125 -111.400390625 5.849609375 -22.75 94.4501953125 27.2998046875 162.700195312 42.400390625 269 87 -4.650390625 65.1494140625 0.650390625 97.80078125 1.2998046875 113.899414062 -15.0498046875 14.650390625 -1.9501953125 rrcurveto
            14.25 91.2001953125 rlineto
            -72.5498046875 19.650390625 -89.55078125 13.849609375 -84.19921875 0 -199 0 -67.900390625 -127.5 -37.9501953125 -233.650390625 rrcurveto
            return
          </CharString>
          <CharString index="127">
            -155.799804688 -68.900390625 69.349609375 -137.899414062 113.100585938 22.2998046875 rrcurveto
            11.3994140625 70.5 rlineto
            -66.8994140625 -4.7001953125 -11.8505859375 55.9501953125 90.2001953125 62.75 rrcurveto
            return
          </CharString>
          <CharString index="128">
            37.650390625 237.049804688 184.5 0 rlineto
            49.2001953125 0 21.599609375 -17.5498046875 -9.599609375 -101.200195312 -8.650390625 -88.400390625 -39.849609375 -29.8994140625 -53.6005859375 0 rrcurveto
            return
          </CharString>
          <CharString index="129">
            79.8505859375 -133.5 90.25 0 132.399414062 133.5 -94.7001953125 0 -77.3994140625 -71.7998046875 -49.2998046875 71.7998046875 rlineto
            return
          </CharString>
          <CharString index="130">
            -34.2998046875 -203.450195312 71.2001953125 -77.7001953125 100.950195312 -1 100.149414062 -1.349609375 63.400390625 6.349609375 80.7998046875 26.5 rrcurveto
            12.150390625 76.30078125 rlineto
            0 -117.350585938 -9.9501953125 -92 vhcurveto
            -67.44921875 0 -26.75 30.9501953125 24.19921875 139.549804688 30.75 171.599609375 32.400390625 6.25 62.150390625 0 rrcurveto
            89 110.349609375 -7.2998046875 0 hvcurveto
            11.5 75 rlineto
            -71.5 19.2998046875 -110 11.5 -52 0 -96.7998046875 0 -80.7001953125 -25.2998046875 -40.150390625 -237.25 rrcurveto
            return
          </CharString>
          <CharString index="131">
            23.8499908447 145.5 36.1999969482 30.25 48.8000030518 0 58.8000030518 0 42.3499908447 -6.60000610352 45.6999969482 -15.549987793 rrcurveto
            -45.0500030518 -285.449996948 rlineto
            -41.6000061035 -20.25 -51.6499938965 -17.3499908447 -62.200012207 0 -53.6999969482 0 -21.0999908447 50.6999969482 19.5999908447 118.75 rrcurveto
            return
          </CharString>
          <CharString index="132">
            -4.9912109375 -57 43.0908203125 -44.2998046875 56 0 56 0 47.9091796875 44.2998046875 4.9912109375 57 4.990234375 57 -41.6826171875 44.9501953125 -56 0 -56 0 -49.3173828125 -44.9501953125 -4.990234375 -57 rrcurveto
            return
          </CharString>
          <CharString index="133">
            2.4072265625 26.150390625 23.2705078125 21.5 26.150390625 0 26.150390625 0 18.728515625 -21.5 -2.4072265625 -26.150390625 -2.4052734375 -26.1494140625 -22.2158203125 -20.5 -26.1494140625 0 -26.150390625 0 -19.78515625 20.5 2.40625 26.1494140625 rrcurveto
            return
          </CharString>
          <CharString index="134">
            -19 -96 53.5 -65 121.599990845 0 rrcurveto
            128.5 hlineto
            146.999984741 0 25.4499969482 73.8500061035 12.0500030518 76.6499938965 rrcurveto
            6.39999389648 40 rlineto
            14.3999938965 89.5 -68.3999938965 48.1000061035 -67.6500091553 11.4499969482 rrcurveto
            -156.699996948 23.9499969482 rlineto
            -20.6499938965 3.35000610352 -20.4000091553 6.19999694824 4.35000610352 23.1999969482 5 26.75 24.6499938965 -5 16 0 rrcurveto
            112 hlineto
            141.999984741 0 50.3000030518 108.5 10.6999969482 77 22.1999969482 155.350006104 -92.1999969482 41.799987793 -68 0.350006103516 rrcurveto
            -101.5 2 rlineto
            -102.450012207 2 -82.5 -44.8999938965 -21.0500030518 -135.600006104 -8 -53 5.30000305176 -70.6999969482 47.6999969482 -30.8000030518 -50 0 -22 -50 -5 -36 rrcurveto
            return
          </CharString>
          <CharString index="135">
            8.99998474121 52 16.0500030518 42 63.8000030518 0 rrcurveto
            69.5 hlineto
            58.6000061035 0 5.55000305176 -39 -9 -55 -5.64999389648 -36.6000061035 -20.25 -63.3999938965 -59.6000061035 0 rrcurveto
            -69.5 hlineto
            -62.6500091553 0 -3.85000610352 51 8 49 rrcurveto
            return
          </CharString>
          <CharString index="136">
            -1.85900878906 -14 8.62699890137 -9 14 0 rrcurveto
            74 hlineto
            14.0000152588 0 11.1349945068 5 3.09700012207 18 rrcurveto
            12.4819946289 78 rlineto
            2.65299987793 16 -5.62701416016 9 -18 0 rrcurveto
            -74 hlineto
            -16.0000152588 0 -9.62098693848 -10 -2.4049987793 -15 rrcurveto
            return
          </CharString>
          <CharString index="137">
            -92.1999969482 -17 rlineto
            return
          </CharString>
          <CharString index="138">
            208.399993896 hlineto
            53.8999938965 0 14.9499969482 -13.3000030518 -8.94999694824 -54.6999969482 rrcurveto
            -13.75 -88.25 rlineto
            -9.25 -59.1000061035 -42.1999969482 -10.9499969482 -33 0 rrcurveto
            -104.550003052 hlineto
            -87.75 -1.52587890625e-05 4.55000305176 115.100006104 17.6499938965 111.199996948 rrcurveto
            return
          </CharString>
          <CharString index="139">
            13.1499938965 82.25 rlineto
            7.90000915527 49.75 34.3499908447 19.3500061035 44.6000061035 0 rrcurveto
            122.25 hlineto
            42.25 0 25.3999938965 -22.9499969482 -7.25 -46.1500091553 rrcurveto
            -13.1499938965 -82.25 rlineto
            -7.25 -48.799987793 -36.8999938965 -17.3500061035 -40.75 0 rrcurveto
            -112.449996948 hlineto
            -59.6999969482 0 -20.3999938965 16.1999969482 7.94999694824 49.9499969482 rrcurveto
            return
          </CharString>
          <CharString index="140">
            8.55000305176 54.6999969482 rlineto
            9.60000610352 61.5999908447 21.8999938965 21.1999969482 64.450012207 0 rrcurveto
            113.100006104 hlineto
            49.9999847412 0 21.6999969482 -14 -11.25 -68.8000030518 rrcurveto
            -8.55000305176 -54.6999969482 rlineto
            -5.65000915527 -33.8999938965 -14.75 -36.1000061035 -62.8499908447 0 rrcurveto
            -121.550003052 hlineto
            -33.9999847412 0 -39.9499969482 12.8000030518 9.25 57.1999969482 rrcurveto
            return
          </CharString>
          <CharString index="141">
            -2 -14 9 -9 14 0 rrcurveto
            64 hlineto
            14 0 10 8 2 15 rrcurveto
            11.099609375 68 rlineto
            2 14 -6 11 -15 0 rrcurveto
            -64 hlineto
            -16 0 -10 -10 -2 -15 rrcurveto
            return
          </CharString>
          <CharString index="142">
            -6 -71.8994140625 50.8505859375 -41.400390625 58.599609375 0 69.7001953125 0 45.6494140625 36.849609375 9.25 76.4501953125 rrcurveto
            -53.349609375 hlineto
            -5.900390625 -42.9501953125 -23.75 -18.349609375 -41.25 0.650390625 -32.6494140625 0 -22.75 22.19921875 4.9501953125 38.4501953125 rrcurveto
            return
          </CharString>
          <CharString index="143">
            -32.5498046875 -183.299804688 23.3505859375 -208.950195312 194.049804688 3.900390625 77.3994140625 1.75 61.55078125 26.9501953125 32.69921875 31.7998046875 rrcurveto
            22.9501953125 -54.2001953125 85 0 64.150390625 403.5 rlineto
            -24 2 -22.3505859375 1 -21 0 rrcurveto
            return
          </CharString>
          <CharString index="144">
            -75.75 0 -58.7998046875 -9.4501953125 -44.4501953125 -15.5498046875 rrcurveto
            -11.849609375 -74.5 rlineto
            return
          </CharString>
          <CharString index="145">
            127 0 -26.2998046875 -151.049804688 rlineto
            0 -81.3505859375 -51.8505859375 -72.3994140625 vhcurveto
            -106.850585938 -0.6494140625 -18.5498046875 99.25 26 163.349609375 38.3505859375 255.299804688 80.849609375 13.150390625 70.900390625 -0.650390625 74.349609375 -0.6494140625 119.349609375 -10.2998046875 41.1005859375 -5.8505859375 rrcurveto
            13.599609375 89.7998046875 rlineto
            -89.349609375 21.400390625 -77.6005859375 11.75 -87.5 -0.650390625 rrcurveto
            -199 0 -61.5498046875 -123.649414062 -41.4501953125 -233.650390625 rrcurveto
            return
          </CharString>
          <CharString index="146">
            -6 -71.8994140625 50.849609375 -41.400390625 58.6005859375 0 69.7001953125 0 45.6494140625 36.849609375 9.25 76.4501953125 rrcurveto
            -53.349609375 hlineto
            -5.900390625 -42.9501953125 -23.75 -18.349609375 -41.25 0.650390625 -32.6494140625 0 -22.75 22.19921875 4.94921875 38.4501953125 rrcurveto
            return
          </CharString>
          <CharString index="147">
            -6 -71.8994140625 50.8505859375 -41.400390625 58.599609375 0 69.7001953125 0 45.6494140625 36.8505859375 9.25 76.44921875 rrcurveto
            -53.349609375 hlineto
            -5.900390625 -42.94921875 -23.75 -18.3505859375 -41.25 0.650390625 -32.6494140625 0 -22.75 22.2001953125 4.9501953125 38.44921875 rrcurveto
            return
          </CharString>
          <CharString index="148">
            243.5 -24 rlineto
            118.450195312 -12.2001953125 81.5 66 21.0498046875 131.700195312 rrcurveto
            94.8505859375 598.049804688 rlineto
            -47.75 10.2998046875 -118.650390625 17.25 -106 0 -116.549804688 0 -83.7998046875 -75.44921875 -28.05078125 -175.350585938 -26.75 -169.899414062 23.650390625 -122.150390625 157.549804688 0 45 0 55.400390625 11.2998046875 53.2998046875 26.7001953125 rrcurveto
            -17.5 -110.25 rlineto
            -10 -64 -40.900390625 -31 -49.099609375 0 rrcurveto
            -237 hlineto
            return
          </CharString>
          <CharString index="149">
            8.0498046875 50.25 24.2998046875 117.799804688 89.8505859375 0 rrcurveto
            134.75 0 -52.650390625 -328.5 rlineto
            -60.7998046875 -18.8994140625 -26.4501953125 -4 -55.099609375 0 -92.30078125 0 17.55078125 98 12.7998046875 85.349609375 rrcurveto
            return
          </CharString>
          <CharString index="150">
            -19 -96 53.5 -65 121.600585938 0 rrcurveto
            128.5 hlineto
            147 0 25.4501953125 73.849609375 12.0498046875 76.650390625 rrcurveto
            6.3994140625 40 rlineto
            14.400390625 89.5 -68.400390625 48.099609375 -67.6494140625 11.4501953125 rrcurveto
            -156.700195312 23.9501953125 rlineto
            -20.650390625 3.349609375 -20.3994140625 6.2001953125 4.349609375 23.2001953125 5 26.75 24.650390625 -5 16 0 rrcurveto
            112 hlineto
            142 0 50.2998046875 108.5 10.7001953125 77 22.2001953125 155.349609375 -92.2001953125 41.80078125 -68 0.349609375 rrcurveto
            -101.5 2 rlineto
            -102.450195312 2 -82.5 -44.900390625 -21.0498046875 -135.599609375 -8 -53 5.2998046875 -70.7001953125 47.7001953125 -30.7998046875 -50 0 -22 -50 -5 -36 rrcurveto
            return
          </CharString>
          <CharString index="151">
            21.6494140625 105.5 160.950195312 -24 rlineto
            41.900390625 -6.9501953125 22.2001953125 -15.6494140625 -5.9501953125 -40.3505859375 rrcurveto
            -3.6005859375 -22.0498046875 rlineto
            -5.599609375 -36.849609375 -15.0498046875 -23.9501953125 -46.75 0 rrcurveto
            -111.5 hlineto
            -36 0 -34.0498046875 5.849609375 11.7998046875 58.4501953125 rrcurveto
            return
          </CharString>
          <CharString index="152">
            9 52 16.0498046875 42 63.7998046875 0 rrcurveto
            69.5 hlineto
            58.6005859375 0 5.5498046875 -39 -9 -55 -5.650390625 -36.599609375 -20.25 -63.400390625 -59.599609375 0 rrcurveto
            -69.5 hlineto
            -62.650390625 0 -3.849609375 51 8 49 rrcurveto
            return
          </CharString>
          <CharString index="153">
            68.8500061035 436 rlineto
            return
          </CharString>
          <CharString index="154">
            -101.649993896 -17 rlineto
            return
          </CharString>
          <CharString index="155">
            97 0 -68.8500061035 -436 116.350006104 0 rlineto
            return
          </CharString>
          <CharString index="156">
            88.25 0 -68.8500061035 -436 116 0 rlineto
            return
          </CharString>
          <CharString index="157">
            37.0498046875 0.650390625 16.2998046875 -34.3505859375 51.4501953125 -0.6494140625 46.4501953125 -0.650390625 41.4501953125 37.0498046875 37.3994140625 29.1005859375 rrcurveto
            -14.6494140625 53.19921875 rlineto
            -13 -10.6494140625 -57.400390625 -26.7998046875 -29.599609375 1.349609375 rrcurveto
            return
          </CharString>
          <CharString index="158">
            -32.2001953125 0.650390625 -19.900390625 31.75 -47.8994140625 1.94921875 rrcurveto
            -46.25 0 -44.1005859375 -33.44921875 -40.099609375 -34.05078125 rrcurveto
            return
          </CharString>
          <CharString index="159">
            0 0 100.125 -25.3349609375 15.0751953125 94.634765625 rrcurveto
            15.75 99.900390625 rlineto
            1.7998046875 13.5 -3.0146484375 10.7998046875 -16.2001953125 0 rrcurveto
            -64.7998046875 hlineto
            -14.400390625 0 -9.5849609375 -8.099609375 -2.7001953125 -16.2001953125 rrcurveto
            -10.349609375 -67.5 rlineto
            -2.7001953125 -15.2998046875 9 -7.2001953125 12.6005859375 0 rrcurveto
            9.8994140625 0 -2.654296875 -16.2001953125 rlineto
            -1.80078125 -9.5849609375 -2.9697265625 -16.064453125 -27 0.8994140625 rrcurveto
            return
          </CharString>
          <CharString index="160">
            0 0 100.125 -25.3349609375 15.0751953125 94.634765625 rrcurveto
            15.75 99.900390625 rlineto
            1.7998046875 13.5 -3.0146484375 10.7998046875 -16.2001953125 0 rrcurveto
            -64.7998046875 hlineto
            -14.400390625 0 -9.5849609375 -8.099609375 -2.7001953125 -16.2001953125 rrcurveto
            -10.349609375 -67.5 rlineto
            -2.7001953125 -15.2998046875 9 -7.2001953125 12.599609375 0 rrcurveto
            9.900390625 0 -2.6552734375 -16.2001953125 rlineto
            -1.7998046875 -9.5849609375 -2.9697265625 -16.064453125 -27 0.8994140625 rrcurveto
            return
          </CharString>
          <CharString index="161">
            0 0 100.125 -25.3349609375 15.0751953125 94.634765625 rrcurveto
            15.75 99.900390625 rlineto
            1.7998046875 13.5 -3.0146484375 10.7998046875 -16.2001953125 0 rrcurveto
            -64.7998046875 hlineto
            -14.3994140625 0 -9.5859375 -8.099609375 -2.69921875 -16.2001953125 rrcurveto
            -10.3505859375 -67.5 rlineto
            -2.7001953125 -15.2998046875 9 -7.2001953125 12.6005859375 0 rrcurveto
            9.8994140625 0 -2.654296875 -16.2001953125 rlineto
            -1.7998046875 -9.5849609375 -2.970703125 -16.064453125 -27 0.8994140625 rrcurveto
            return
          </CharString>
          <CharString index="162">
            -155.799804688 -68.8994140625 69.3505859375 -137.900390625 113.099609375 22.2998046875 rrcurveto
            11.400390625 70.5 rlineto
            -66.900390625 -4.69921875 -11.849609375 55.94921875 90.19921875 62.75 rrcurveto
            return
          </CharString>
          <CharString index="163">
            15.349609375 -50.1005859375 rlineto
            33.05078125 17.5 24.349609375 16.8505859375 42.25 0.6494140625 rrcurveto
            return
          </CharString>
          <CharString index="164">
            92 0 403.100006104 570 -89.8999938965 0 rlineto
            return
          </CharString>
          <CharString index="165">
            260.5 0 14.5500030518 90.75 rlineto
            return
          </CharString>
          <CharString index="166">
            -8 -50.0000152588 -39.6500091553 -269.099990845 203.5 0.649993896484 66.6500091553 0 57.1999969482 16.3000030518 47.1499938965 34.6999969482 rrcurveto
            return
          </CharString>
          <CharString index="167">
            18.5 -44 87.5 0 50.75 320.25 rlineto
            -24.0000152588 2 -21 1 -21 0 rrcurveto
            return
          </CharString>
          <CharString index="168">
            -81 0 -58.6499938965 -10.5 -42 -11 rrcurveto
            -10.4499969482 -66.5 rlineto
            return
          </CharString>
          <CharString index="169">
            129 0 -13.75 -85.75 rlineto
            -17.6500091553 -20.8500061035 -62 -27.6499938965 -63.5 0 -101.25 0.350006103516 9.05000305176 117.699996948 10.9499969482 68.9499969482 26.25 165.5 31.4000091553 27 97.5 0 80.049987793 0 70.6500091553 -4.89999389648 70.8000030518 -8.10000610352 rrcurveto
            13.8500061035 86.5 rlineto
            -58.450012207 16.25 -133.100006104 10.8500061035 -62.9499969482 -2.10000610352 rrcurveto
            -165 -3.14999389648 -58.3499908447 -80.4000091553 -29 -184 rrcurveto
            return
          </CharString>
          <CharString index="170">
            116 0 90 570 -116 0 rlineto
            return
          </CharString>
          <CharString index="171">
            28.3499908447 179 56.5999908447 2 81.700012207 0 95.549987793 0 43 -4.60000610352 -27.6999969482 -174.399993896 -27.3499908447 -173.949996948 -58.1500091553 -9.05000305176 -83.1499938965 0 -100.800003052 0 -33.4499969482 20.1000061035 25.3999938965 160.899993896 rrcurveto
            return
          </CharString>
          <CharString index="172">
            126.900390625 0 66.599609375 129.25 206.400390625 0 27.599609375 -129.25 114.5 0 -106.5 570 -133.5 0 rlineto
            return
          </CharString>
          <CharString index="173">
            105.650390625 197.5 38.400390625 -197.5 rlineto
            return
          </CharString>
          <CharString index="174">
            116 0 34.849609375 221.099609375 rlineto
            0.650390625 -1.2998046875 94.5498046875 -9.2001953125 19.5 -1.2998046875 rrcurveto
            73.0498046875 -209.299804688 123.400390625 0 -85.7001953125 220.400390625 rlineto
            67.5498046875 10.1494140625 43.849609375 49.8505859375 10.8505859375 103.649414062 14.25 141.650390625 -81.6005859375 44.599609375 -76.69921875 0 rrcurveto
            -264.5 hlineto
            return
          </CharString>
          <CharString index="175">
            26.75 167.149414062 140.75 0 rlineto
            15.400390625 0 47.0498046875 -13.5498046875 -12.1494140625 -66.5 -14.4501953125 -76.349609375 -31.7998046875 -10.75 -30.80078125 0 rrcurveto
            return
          </CharString>
          <CharString index="176">
            -11.4501953125 -72.150390625 39.2001953125 -34.849609375 62.099609375 0 rrcurveto
            296 0 17.25 109 -235 0 rlineto
            -32.0498046875 0 -20.6005859375 0.2998046875 7.1005859375 40.7001953125 rrcurveto
            66.2998046875 420 -116 0 rlineto
            return
          </CharString>
          <CharString index="177">
            -4.69998168945 -30.8000030518 21.0999908447 -25.4499969482 30.8000030518 0 30.8000030518 0 28.8000030518 25.4499969482 4.69999694824 30.8000030518 4.69999694824 30.799987793 -20.4499969482 25.1000061035 -30.8000030518 0 -30.8000030518 0 -29.4499969482 -25.1000061035 -4.69999694824 -30.799987793 rrcurveto
            return
          </CharString>
          <CharString index="178">
            36.0498046875 -17.6005859375 199.5 -5.7998046875 47.599609375 0 67.9501953125 0 73.1005859375 21.4501953125 18.0498046875 115.299804688 rrcurveto
            8.8994140625 56 rlineto
            12.7001953125 80.25 -25.5498046875 69.75 -101.349609375 0 rrcurveto
            -142.5 hlineto
            -30.7001953125 0 -19.6005859375 0.849609375 7.2001953125 43.900390625 rrcurveto
            7.2001953125 42.5498046875 rlineto
            3.9501953125 27 14.5498046875 24.9501953125 39.400390625 0 rrcurveto
            103.599609375 148.549804688 -5.75 0 hvcurveto
            13.2001953125 85 rlineto
            -72.650390625 13.5498046875 -142 8.2001953125 -52 0 -114.549804688 0 -45.6494140625 -61.150390625 -13.3505859375 -84.44921875 rrcurveto
            -7.2998046875 -51.30078125 rlineto
            -13.7001953125 -99.8994140625 40.8505859375 -48.9501953125 95.75 0 rrcurveto
            139 hlineto
            35.5 0 8.69921875 -7.5498046875 -5.599609375 -35.2001953125 rrcurveto
            -8.2001953125 -50.400390625 rlineto
            -3.25 -20.7998046875 -13.75 -21.2998046875 -35.3994140625 0 rrcurveto
            -98.80078125 -162.19921875 4.400390625 0 hvcurveto
            return
          </CharString>
          <CharString index="179">
            -10.1005859375 -64.25 34.25 -34.0498046875 58.400390625 -0.7001953125 rrcurveto
            return
          </CharString>
          <CharString index="180">
            0 0 271.549804688 6.2998046875 41.2998046875 9.1005859375 rrcurveto
            14.55078125 90.099609375 rlineto
            return
          </CharString>
          <CharString index="181">
            -256.5 hlineto
            -21 0 -15 3 5 29 rrcurveto
            15 97.150390625 rlineto
            return
          </CharString>
          <CharString index="182">
            259 7 14.19921875 89 rlineto
            return
          </CharString>
          <CharString index="183">
            -257 8 15.650390625 96.849609375 rlineto
            4 24 3.349609375 9 30 0 rrcurveto
            return
          </CharString>
          <CharString index="184">
            260.5 0 14.55078125 90.75 rlineto
            return
          </CharString>
          <CharString index="185">
            -31.5 5.9501953125 -257 7.7998046875 0 0 -69.9501953125 -0.349609375 -53.7001953125 -32 -11.099609375 -71.650390625 rrcurveto
            return
          </CharString>
          <CharString index="186">
            440 0 17.599609375 109 -282 0 337.80078125 352 16.599609375 109 -440 0 -16.599609375 -109 289.5 0 -345.30078125 -352 rlineto
            return
          </CharString>
          <CharString index="187">
            3.95001220703 26.1499938965 23.8000030518 20.8500061035 26.1499938965 0 26.1500091553 0 17.549987793 -20.8500061035 -3.94999694824 -26.1499938965 -3.94999694824 -26.1499938965 -22.4499969482 -20.5 -26.1500091553 0 -26.1499938965 0 -18.8999938965 20.5 3.94999694824 26.1499938965 rrcurveto
            return
          </CharString>
          <CharString index="188">
            -24.099609375 -151.299804688 1.150390625 -169.900390625 190.44921875 0 90.650390625 0 73.400390625 10.0498046875 66.2998046875 20.1005859375 rrcurveto
            12.849609375 81.5 rlineto
            0 0 -129.849609375 -11.8505859375 -76.8505859375 -1.2998046875 -115 2 10.75 96.349609375 16.25 102.150390625 18.25 117.5 28.400390625 67 102 0 65 0 123.299804688 -10.5 15 -3 rrcurveto
            12.8505859375 83.5 rlineto
            -56 19 -101.650390625 9.5 -63.650390625 0 -174.899414062 0 -59.5 -102.150390625 -25.1005859375 -158.649414062 rrcurveto
            return
          </CharString>
          <CharString index="189">
            -155.799804688 -68.8994140625 69.349609375 -137.900390625 113.100585938 22.2998046875 rrcurveto
            11.3994140625 70.5 rlineto
            -66.8994140625 -4.7001953125 -11.8505859375 55.9501953125 90.2001953125 62.75 rrcurveto
            return
          </CharString>
          <CharString index="190">
            -4.69921875 -30.7998046875 21.099609375 -25.4501953125 30.7998046875 0 30.7998046875 0 28.80078125 25.4501953125 4.69921875 30.7998046875 4.7001953125 30.80078125 -20.4501953125 24.44921875 -30.7998046875 0 -30.7998046875 0 -29.4501953125 -24.44921875 -4.7001953125 -30.80078125 rrcurveto
            return
          </CharString>
          <CharString index="191">
            116 0 59.75 374.150390625 196.25 -374.150390625 112 0 90 571 -115 0 -58.400390625 -373.299804688 -197.599609375 373.299804688 -113 0 rlineto
            return
          </CharString>
          <CharString index="192">
            -39 -249 95.7001953125 -44.75 161 0 168 0 85.7998046875 38.25 39 245 41 256 -96.0498046875 40.75 -163 0 -166 0 -87.4501953125 -42.25 -39 -244 rrcurveto
            return
          </CharString>
          <CharString index="193">
            28.349609375 179 56.6005859375 2 81.69921875 0 95.55078125 0 43 -4.599609375 -27.7001953125 -174.400390625 -27.3505859375 -173.950195312 -58.1494140625 -9.0498046875 -83.150390625 0 -100.799804688 0 -33.4501953125 20.099609375 25.400390625 160.900390625 rrcurveto
            return
          </CharString>
          <CharString index="194">
            -39 -239 116.899414062 -36.5 136 0 121 0 115.100585938 21.5 37 233 rrcurveto
            49 320.5 -117 0 -49 -310 rlineto
            -21.1005859375 -131.900390625 -49.599609375 -24.099609375 -78.3505859375 0 -88.6494140625 0 -37.400390625 22.7001953125 22.1005859375 133.299804688 rrcurveto
            49 310 -117 0 rlineto
            return
          </CharString>
          <CharString index="195">
            -4.7001953125 -30.7998046875 21.099609375 -25.4501953125 30.7998046875 0 30.80078125 0 28.7998046875 25.4501953125 4.7001953125 30.7998046875 4.69921875 30.7998046875 -20.44921875 24.4501953125 -30.80078125 0 -30.7998046875 0 -29.4501953125 -24.4501953125 -4.69921875 -30.7998046875 rrcurveto
            return
          </CharString>
          <CharString index="196">
            145.349609375 -376.5 -30.349609375 -194.5 116 0 30.349609375 194.5 259.150390625 376.5 -130.200195312 0 -172.700195312 -249.099609375 -95.849609375 249.099609375 rlineto
            return
          </CharString>
          <CharString index="197">
            172 0 -73.400390625 -461 116 0 73.400390625 461 172 0 17.599609375 109 -460 0 rlineto
            return
          </CharString>
          <CharString index="198">
            -8 -50 -39.6494140625 -269.100585938 203.5 0.650390625 66.6494140625 0 57.2001953125 16.2998046875 47.150390625 34.7001953125 rrcurveto
            return
          </CharString>
          <CharString index="199">
            18.5 -44 87.5 0 50.75 320.25 rlineto
            -24 2 -21 1 -21 0 rrcurveto
            return
          </CharString>
          <CharString index="200">
            -81 0 -58.650390625 -10.5 -42 -11 rrcurveto
            -10.4501953125 -66.5 rlineto
            return
          </CharString>
          <CharString index="201">
            129 0 -13.75 -85.75 rlineto
            -17.6494140625 -20.849609375 -62 -27.650390625 -63.5 0 -101.25 0.349609375 9.0498046875 117.700195312 10.9501953125 68.9501953125 26.25 165.5 31.3994140625 27 97.5 0 80.05078125 0 70.6494140625 -4.900390625 70.7998046875 -8.099609375 rrcurveto
            13.8505859375 86.5 rlineto
            -58.4501953125 16.25 -133.099609375 10.849609375 -62.9501953125 -2.099609375 rrcurveto
            -165 -3.150390625 -58.3505859375 -80.3994140625 -29 -184 rrcurveto
            return
          </CharString>
          <CharString index="202">
            123.5 -732 132.450195312 0 160.25 327.450195312 51.8994140625 -327.450195312 127.200195312 0 353.5 732 -124.049804688 0 -271.549804688 -570.450195312 -53.75 349.950195312 106.899414062 220.5 -126 0 -269.799804688 -566.549804688 -90.3994140625 566.549804688 rlineto
            return
          </CharString>
          <CharString index="203">
            109.950195312 -531 135.200195312 0 115.849609375 231.700195312 45.75 -231.700195312 125.150390625 0 217.950195312 399.099609375 rlineto
            19.7998046875 36.30078125 11.599609375 47.8994140625 -11.69921875 48.400390625 rrcurveto
            -100.850585938 hlineto
            -5.6494140625 -47.150390625 -11.2001953125 -26.1494140625 -13 -27 rrcurveto
            -153.400390625 -291.950195312 -44.8994140625 231.200195312 20.94921875 47.849609375 rlineto
            15.3505859375 35.5498046875 4.849609375 36.75 -9.9501953125 38.9501953125 rrcurveto
            -100.19921875 hlineto
            -5.650390625 -47.150390625 -11.2001953125 -26.1494140625 -13 -27 rrcurveto
            -148.849609375 -293.900390625 -72.650390625 395.450195312 rlineto
            return
          </CharString>
          <CharString index="204">
            100.450195312 -570 134.799804688 0 106.950195312 219.549804688 45 -219.549804688 133.5 0 270.799804688 570 -122.349609375 0 -194.850585938 -420.049804688 -51.4501953125 247.75 81.900390625 172.299804688 -122.349609375 0 -195.150390625 -420.049804688 -67.5 420.049804688 rlineto
            return
          </CharString>
          <CharString index="205">
            116.349609375 0 97.4501953125 615.950195312 rlineto
            3 17 20.75 5.349609375 2.25 -15.349609375 rrcurveto
            104.100585938 -520.400390625 rlineto
            16.25 -149.950195312 216.899414062 8.6005859375 22.2998046875 145.049804688 rrcurveto
            96.5 625.75 -116 0 -96.75 -609.400390625 rlineto
            -3.2998046875 -20.19921875 -18.4501953125 -1.5 -2.8994140625 18.69921875 rrcurveto
            -106.700195312 526.450195312 rlineto
            -11.75 123.650390625 -221.799804688 3.7998046875 -21.0498046875 -147.049804688 rrcurveto
            return
          </CharString>
          <CharString index="206">
            87.0999908447 -15.6999969482 44.1999969482 0.949996948242 83.1000061035 -0.649993896484 67.3499908447 -0.650009155273 57.6500091553 20.1999969482 12.549987793 92.700012207 rrcurveto
            10.6499938965 68.5500030518 rlineto
            9.25001525879 63.6500091553 -27.4499969482 60.5500030518 -75.3000030518 2.79998779297 -32.6999969482 1.05000305176 -63.700012207 6.5 -32.9499969482 -25.1499938965 rrcurveto
            23 106.5 217.550003052 0 13.8500061035 86.1499938965 -304.449996948 0 -62.6999969482 -298.300003052 79.8000030518 0 rlineto
            4.94999694824 28.3500061035 16.4499969482 11.5500030518 23.6000061035 0 rrcurveto
            82.3000030518 hlineto
            43.5500183105 1.52587890625e-05 -4.45001220703 -29.5 -2.64999389648 -20.25 rrcurveto
            -6.19999694824 -41.6499938965 rlineto
            -3.94998168945 -29.5 -14.450012207 -16.3499908447 -35.6999969482 0 rrcurveto
            -198.75 hlineto
            return
          </CharString>
          <CharString index="207">
            116 0 64.1494140625 404.5 rlineto
            68.1005859375 30.2001953125 34.8994140625 3.2998046875 54.5498046875 0 44.7001953125 0 21.75 -25.099609375 -8.599609375 -56.900390625 rrcurveto
            -56.5498046875 -356 116 0 59 370 rlineto
            14.349609375 90.7998046875 -48.849609375 79.2001953125 -106 0 -128.30078125 0 -58.5498046875 -11.599609375 -111.700195312 -52.400390625 rrcurveto
            return
          </CharString>
          <CharString index="208">
            116 0 64.5 408 rlineto
            81.5498046875 30 73.6494140625 3.900390625 84.25 -10.400390625 rrcurveto
            16.900390625 106.5 rlineto
            -161 14 -90.349609375 -17.150390625 -109.850585938 -55.349609375 rrcurveto
            return
          </CharString>
          <CharString index="209">
            -32.6494140625 -215.599609375 71.2001953125 -70.75 129.549804688 0 32.5498046875 0 204.599609375 11.3994140625 19.9501953125 12.25 rrcurveto
            61.3505859375 462.700195312 rlineto
            -47.1005859375 26.650390625 -86.099609375 30.099609375 -105.100585938 0 -149.25 0 -71.599609375 -59.5498046875 -27.400390625 -197.200195312 rrcurveto
            return
          </CharString>
          <CharString index="210">
            19.9501953125 147.100585938 31.099609375 35.94921875 85.1005859375 0 34.7998046875 0 41.650390625 -8.8994140625 37.8994140625 -9.25 rrcurveto
            -46.5498046875 -331.25 rlineto
            0 -91.849609375 -3.900390625 -48.1005859375 vhcurveto
            -68.0498046875 0 -11.7998046875 51.1005859375 15.849609375 119.149414062 rrcurveto
            return
          </CharString>
          <CharString index="211">
            -14.349609375 -90.7998046875 46 -89.7001953125 118.599609375 0 128.299804688 0 62.900390625 3.1005859375 94 37.8994140625 rrcurveto
            76.7998046875 499 -116 0 -66.3994140625 -420.75 rlineto
            -38.2001953125 -13.2998046875 -62.5498046875 -3.9501953125 -54.55078125 0 -44.69921875 0 -21.75 25.1005859375 8.599609375 56.8994140625 rrcurveto
            56.5498046875 356 -116 0 rlineto
            return
          </CharString>
        <CharString name=".notdef">
          251 0 13 505 13 hstem
          100 14 530 14 vstem
          100 hmoveto
          558 531 -558 hlineto
          14 -509 rmoveto
          0 485 256 -241 rlineto
          -246 252 rmoveto
          511 0 -254 -242 rlineto
          -254 -263 rmoveto
          254 243 253 -243 rlineto
          -242 253 rmoveto
          252 240 0 -481 rlineto
          endchar
        </CharString>
        <CharString name="A">
          170 21 -21 21 -21 177.399993896 105.850006104 448.75 -20 hstemhm
          hintmask 10110000
          38 hmoveto
          127.899993896 0 90.1499938965 177.399993896 258.850006104 0 32.6999969482 -177.399993896 118.399993896 0 -128.75 732 -128.25 0 rlineto
          -103.100006104 -448.75 rmoveto
          146.350006104 296.100006104 49 -296.100006104 rlineto
          endchar
        </CharString>
        <CharString name="AE">
          474 -4.30000305176 110.75 -93.75 93.75 101.5 105.5 -11.5500030518 114.699996948 -105.049987793 94.6999969482 214.350006104 111.399993896 -111.399993896 95.3999938965 hstemhm
          hintmask 10100000
          25.4499969482 hmoveto
          130.5 0 136.649993896 207.949996948 182.100006104 0 -12.8500061035 -85.8999938965 rlineto
          -15.4000091553 -100.649993896 86.0500030518 -29.6999969482 67.75 4 rrcurveto
          hintmask 01000000
          0 0 268.350006104 12.1000061035 36.75 4.89999389648 rrcurveto
          15.6000061035 93.75 rlineto
          hintmask 10010000
          -282.5 hlineto
          -29.0000152588 -1.52587890625e-05 -33.6499938965 -1 8 53 rrcurveto
          22.6000061035 143.449996948 rlineto
          hintmask 00001000
          303.649993896 9.64999389648 14.6000061035 94.6999969482 rlineto
          hintmask 00010100
          -299.649993896 10.3500061035 23.8999938965 149.949996948 rlineto
          5.30000305176 27.0000152588 4.35000610352 27.0500030518 49.3999938965 0 rrcurveto
          hintmask 00000010
          294.449996948 0 14.6000061035 95.3999938965 rlineto
          hintmask 10100100
          -39.8999938965 5.60000610352 -272.550003052 10.3999938965 0 0 -102.25 2.44999694824 -96.25 2.69999694824 -99.1999969482 -151.349990845 rrcurveto
          -47.3000030518 -272.350006104 rmoveto
          177.5 271.25 -44.8000030518 -271.25 rlineto
          endchar
        </CharString>
        <CharString name="Aacute">
          170 0 21 156.399993896 105.850006104 428.75 20 65 136.5 hstem
          441.92300415 230.699996948 vstem
          441.922851562 797 rmoveto
          -64 callsubr
          -522.123046875 -933.5 rmoveto
          -66 callsubr
          -103.099609375 -448.75 rmoveto
          -65 callsubr
          endchar
        </CharString>
        <CharString name="Abreve">
          170 0 21 156.399993896 105.850006104 428.75 20 65 52.6499938965 hstem
          387.615997314 53.3500061035 121.349990845 53.3500061035 vstem
          387.616210938 910.299804688 rmoveto
          -6 -71.8994140625 50.849609375 -41.400390625 58.6005859375 0 69.69921875 0 45.650390625 36.849609375 9.25 76.4501953125 rrcurveto
          -53.349609375 hlineto
          -5.900390625 -42.9501953125 -23.75 -18.349609375 -41.25 0.650390625 -32.650390625 0 -22.75 22.19921875 4.9501953125 38.4501953125 rrcurveto
          -402.965820312 -910.299804688 rmoveto
          -66 callsubr
          -103.099609375 -448.75 rmoveto
          -65 callsubr
          endchar
        </CharString>
        <CharString name="Acircumflex">
          170 0 21 156.399993896 105.850006104 428.75 20 65 133.5 hstem
          332.348007202 302.5 vstem
          332.34765625 797 rmoveto
          -63 callsubr
          -426.748046875 -930.5 rmoveto
          -66 callsubr
          -103.099609375 -448.75 rmoveto
          -65 callsubr
          endchar
        </CharString>
        <CharString name="Adieresis">
          170 0 21 156.399993896 105.850006104 428.75 20 65 111.5 hstem
          309.45199585 111.5 143.5 111.5 vstem
          309.452148438 853.25 rmoveto
          -59 callsubr
          255 hmoveto
          -59 callsubr
          -526.452148438 -853.25 rmoveto
          -66 callsubr
          -103.099609375 -448.75 rmoveto
          -65 callsubr
          endchar
        </CharString>
        <CharString name="Agrave">
          170 0 21 156.399993896 105.850006104 428.75 20 65 136.5 hstem
          329.822998047 195.100006104 vstem
          329.823242188 933.5 rmoveto
          -67 callsubr
          -399.123046875 -933.5 rmoveto
          -66 callsubr
          -103.099609375 -448.75 rmoveto
          -65 callsubr
          endchar
        </CharString>
        <CharString name="Amacron">
          170 0 21 156.399993896 105.850006104 428.75 20 65 73.5 hstem
          337.593002319 303.75 vstem
          337.592773438 797 rmoveto
          -77 callsubr
          -311.342773438 -870.5 rmoveto
          -66 callsubr
          -103.099609375 -448.75 rmoveto
          -65 callsubr
          endchar
        </CharString>
        <CharString name="Aogonek">
          234 -184.149993896 70.5 94 20 -0.350006103516 21 156.399993896 105.850006104 428.75 20 hstemhm
          hintmask 11000000
          652.049804688 0.349609375 rmoveto
          3 callsubr
          hintmask 00111000
          -597.25 -0.349609375 rmoveto
          127.900390625 0 90.1494140625 177.400390625 258.850585938 0 32.7001953125 -177.400390625 118.399414062 0 -128.75 732 -128.25 0 rlineto
          -103.099609375 -448.75 rmoveto
          -65 callsubr
          endchar
        </CharString>
        <CharString name="Aring">
          170 0 21 156.399993896 105.850006104 428.75 20 -1.89100646973 54.6499938965 94.3000183105 54.3000030518 hstemhm
          385.740005493 203 hintmask 00011100
          385.740234375 831.409179688 rmoveto
          -58 callsubr
          54.349609375 hmoveto
          2.4072265625 26.1494140625 23.2705078125 21.5 26.150390625 0 26.150390625 0 18.728515625 -21.5 -2.4072265625 -26.1494140625 -2.4052734375 -26.150390625 -22.2158203125 -20.5 -26.1494140625 0 -26.150390625 0 -19.78515625 20.5 2.40625 26.150390625 rrcurveto
          hintmask 11100000
          -402.08984375 -831.409179688 rmoveto
          -66 callsubr
          -103.099609375 -448.75 rmoveto
          -65 callsubr
          endchar
        </CharString>
        <CharString name="Atilde">
          170 0 21 156.399993896 105.850006104 428.75 20 65.6499938965 82.6000061035 -48.25 82.6000061035 hstemhm
          hintmask 00001000
          320.428710938 847.099609375 rmoveto
          -62 callsubr
          hintmask 00010000
          -61 callsubr
          hintmask 00001000
          -60 callsubr
          hintmask 11100000
          -282.428710938 -847.099609375 rmoveto
          -66 callsubr
          -103.099609375 -448.75 rmoveto
          -65 callsubr
          endchar
        </CharString>
        <CharString name="B">
          91 0 105.5 227.149993896 102 191.850006104 105.5 hstem
          67.75 hmoveto
          293.5 hlineto
          154 0 68.8000030518 58.6499938965 18.5500030518 140.600006104 13.6499938965 108 -49.1000061035 65.3000030518 -44.3999938965 7.44999694824 62.6000061035 12.5 49.299987793 50.3500061035 11.3000030518 86.6999969482 13.5 98 -34.4499969482 104.449996948 -149.5 0 rrcurveto
          -291.75 hlineto
          17.5500030518 -626.5 rmoveto
          35.6499938965 227.149993896 173.350006104 0 rlineto
          68.2500152588 0 18 -55.799987793 -9.90000915527 -61.0500030518 -14.799987793 -92.75 -52.700012207 -17.5500030518 -44.5 0 rrcurveto
          -121.149993896 329.149993896 rmoveto
          30.6499938965 191.850006104 170.5 0 rlineto
          49.3000030518 0 37.9000091553 -16.8999938965 -12.200012207 -78.450012207 -9.84999084473 -63.0999908447 -37.1999969482 -33.4000091553 -59.25 0 rrcurveto
          endchar
        </CharString>
        <CharString name="C">
          66 -6 109 528 109 hstem
          105.550003052 378.850006104 rmoveto
          -31.4999847412 -196.600006104 33.6999969482 -187.199996948 187.25 -1.05000305176 94.0500030518 -1.05000305176 83.5999908447 3.15000915527 78.3500061035 24.049987793 rrcurveto
          13.6000061035 91.1999969482 rlineto
          -92.3000030518 -6.5 -78.5500030518 -3.80000305176 -65.3500061035 1.94999694824 -111.399993896 5.85000610352 -22.75 94.4499969482 27.3000030518 162.699996948 42.3999938965 269 87 -4.64999389648 65.1500091553 0.649993896484 97.799987793 1.30000305176 113.900009155 -15.0500030518 14.6499938965 -1.94999694824 rrcurveto
          14.25 91.1999969482 rlineto
          -72.5500183105 19.6499938965 -89.549987793 13.8500061035 -84.200012207 0 -199 0 -67.8999938965 -127.5 -37.9499969482 -233.649993896 rrcurveto
          endchar
        </CharString>
        <CharString name="Cacute">
          66 -6 109 528 109 60 136.5 hstem
          407.708999634 230.699996948 vstem
          407.708984375 800 rmoveto
          -64 callsubr
          -420.359375 -557.650390625 rmoveto
          19 callsubr
          endchar
        </CharString>
        <CharString name="Ccaron">
          66 -6 109 528 109 60 133.5 hstem
          326.824005127 302.5 vstem
          326.82421875 933.5 rmoveto
          9 callsubr
          -302.374023438 -554.650390625 rmoveto
          19 callsubr
          endchar
        </CharString>
        <CharString name="Ccedilla">
          66 -176.149993896 51.6999969482 118.449996948 109 528 109 hstem
          281.300003052 84.5 vstem
          105.550003052 378.850006104 rmoveto
          -31.4999847412 -196.600006104 33.6999969482 -187.199996948 187.25 -1.05000305176 94.0500030518 -1.05000305176 83.5999908447 3.15000915527 78.3500061035 24.049987793 rrcurveto
          13.6000061035 91.1999969482 rlineto
          -92.3000030518 -6.5 -78.5500030518 -3.80000305176 -65.3500061035 1.94999694824 -111.399993896 5.85000610352 -21.4499969482 94.4499969482 27.3000030518 162.699996948 42.3999938965 269 85.6999969482 -4.64999389648 65.1500091553 0.649993896484 97.799987793 1.30000305176 113.900009155 -15.0500030518 14.6499938965 -1.94999694824 rrcurveto
          14.25 91.1999969482 rlineto
          -72.5500183105 19.6499938965 -89.549987793 13.8500061035 -84.200012207 0 -199 0 -67.8999938965 -127.5 -37.9499969482 -233.649993896 rrcurveto
          75.0500030518 -555 rmoveto
          54.5 hlineto
          84.1999969482 0 30.5 37.5 16 102 0 0 -66.3000030518 -0.650009155273 -18.1999969482 0.650009155273 -6 -38 -6.19999694824 -25.4000091553 -30.6500091553 -9.39999389648 rrcurveto
          -49.3999938965 -15 rlineto
          endchar
        </CharString>
        <CharString name="Ccircumflex">
          66 -6 109 528 109 60 133.5 hstem
          292.434005737 302.5 vstem
          292.43359375 800 rmoveto
          -63 callsubr
          -319.284179688 -554.650390625 rmoveto
          19 callsubr
          endchar
        </CharString>
        <CharString name="Cdotaccent">
          66 -6 109 528 109 60 116 hstem
          382.134002686 122.100006104 vstem
          382.133789062 823 rmoveto
          11 callsubr
          -287.684570312 -512.150390625 rmoveto
          19 callsubr
          endchar
        </CharString>
        <CharString name="D">
          153 0 107.449996948 519.050003052 105.5 hstem
          67.75 hmoveto
          294 hlineto
          181.300003052 0 90.5999908447 116.050003052 38.4000091553 236.449996948 25.8499908447 157.699996948 -10.1999969482 221.800003052 -215.899993896 0 rrcurveto
          -39 -249.050003052 0 -0.649993896484 hvcurveto
          16.8999938965 -623.900009155 rmoveto
          82.1999969482 519.050003052 162.25 0 rlineto
          102.199996948 0 40.0500030518 -67.8500061035 -30.950012207 -194.649993896 -23.299987793 -146.199996948 -59.8000030518 -110.350006104 -106.900009155 0 rrcurveto
          endchar
        </CharString>
        <CharString name="Dcaron">
          153 0 107.449996948 519.050003052 105.5 61.75 133.5 hstem
          322.850006104 302.5 vstem
          322.849609375 927.25 rmoveto
          7 callsubr
          -325.799804688 -927.25 rmoveto
          294 hlineto
          181.299804688 0 90.599609375 116.049804688 38.400390625 236.450195312 25.849609375 157.700195312 -10.2001953125 221.799804688 -215.899414062 0 rrcurveto
          -39 -249.049804688 0 -0.650390625 hvcurveto
          16.8994140625 -623.899414062 rmoveto
          82.2001953125 519.049804688 162.25 0 rlineto
          102.200195312 0 40.0498046875 -67.849609375 -30.9501953125 -194.650390625 -23.2998046875 -146.200195312 -59.7998046875 -110.349609375 -106.900390625 0 rrcurveto
          endchar
        </CharString>
        <CharString name="Dcroat">
          151 0 107.449996948 235.050003052 61 223 105.5 hstem
          75.849609375 342.5 rmoveto
          65 0 -54.2998046875 -342.5 297.5 0 rlineto
          181.299804688 0 87.75 124.450195312 38.400390625 228.049804688 25.849609375 151.75 -8.3994140625 227.75 -215.900390625 0 rrcurveto
          -39 -251.5 0 -0.650390625 hvcurveto
          -51.6494140625 -327.849609375 -65 0 rlineto
          133.549804688 -296.049804688 rmoveto
          37.3994140625 235.049804688 121.5 0 10.05078125 61 -121.5 0 34.75 223 167.5 0 rlineto
          98.349609375 0 38.2998046875 -67.849609375 -30.9501953125 -194.650390625 -23.2998046875 -146.200195312 -60.1494140625 -110.349609375 -104.450195312 0 rrcurveto
          endchar
        </CharString>
        <CharString name="E">
          55 -3 110.75 -93.75 93.75 198.800003052 114.699996948 -105.050003052 94.6999969482 210.350006104 110.75 -110.75 94.75 hstemhm
          hintmask 10000000
          86.1000061035 140.5 rmoveto
          -18.1500091553 -114.649993896 83.7830047607 -32.2666778564 68.9169921875 3.41667175293 rrcurveto
          hintmask 01000000
          0 0 269.400009155 12.1000061035 37.0999908447 4.89999389648 rrcurveto
          15.6000061035 93.75 rlineto
          hintmask 10100000
          -282.5 hlineto
          -29 0 -33.3500061035 -1 7.70001220703 53 rrcurveto
          23.6000061035 146.800003052 rlineto
          hintmask 00010000
          301.649993896 9.64999389648 15.6000061035 94.6999969482 rlineto
          hintmask 00101000
          -299.300003052 10.3500061035 22.8999938965 144 rlineto
          4.00001525879 27 7.25 29 49.3999938965 0 rrcurveto
          hintmask 00000100
          292.5 0 14.9499969482 94.75 rlineto
          hintmask 10001000
          -40.25 5.60000610352 -270.25 10.3999938965 0 0 -80.549987793 2.60000610352 -71.1000061035 -29 -18.4499969482 -114.100006104 rrcurveto
          endchar
        </CharString>
        <CharString name="Eacute">
          55 -3 110.75 -93.75 93.75 198.800003052 114.699996948 -105.050003052 94.6999969482 210.350006104 94.75 -94.75 110.75 60 136.5 hstemhm
          387.5 230.699996948 hintmask 00000011
          387.5 792 rmoveto
          -64 callsubr
          hintmask 10000000
          -419.600585938 -788 rmoveto
          -57 callsubr
          hintmask 01000000
          -56 callsubr
          hintmask 10100000
          -55 callsubr
          hintmask 00010000
          -54 callsubr
          hintmask 00100100
          -53 callsubr
          hintmask 00001000
          -52 callsubr
          hintmask 10000100
          -51 callsubr
          endchar
        </CharString>
        <CharString name="Ecaron">
          55 -3 110.75 -93.75 93.75 198.800003052 114.699996948 -105.050003052 94.6999969482 210.350006104 94.75 -94.75 110.75 65 133.5 hstemhm
          311.149002075 302.5 hintmask 00000011
          311.149414062 930.5 rmoveto
          9 callsubr
          hintmask 10000000
          -306.149414062 -790 rmoveto
          -57 callsubr
          hintmask 01000000
          -56 callsubr
          hintmask 10100000
          -55 callsubr
          hintmask 00010000
          -54 callsubr
          hintmask 00100100
          -53 callsubr
          hintmask 00001000
          -52 callsubr
          hintmask 10000100
          -51 callsubr
          endchar
        </CharString>
        <CharString name="Ecircumflex">
          55 -3 110.75 -93.75 93.75 198.800003052 114.699996948 -105.050003052 94.6999969482 210.350006104 94.75 -94.75 110.75 60 134.149993896 hstemhm
          278.699996948 302.5 hintmask 00000011
          278.700195312 792 rmoveto
          100.799804688 0 73.349609375 69.849609375 44.650390625 -69.849609375 83.7001953125 0 -78.1005859375 134.150390625 -92 0 rlineto
          hintmask 10000000
          -325 -785.650390625 rmoveto
          -57 callsubr
          hintmask 01000000
          -56 callsubr
          hintmask 10100000
          -55 callsubr
          hintmask 00010000
          -54 callsubr
          hintmask 00100100
          -53 callsubr
          hintmask 00001000
          -52 callsubr
          hintmask 10000100
          -51 callsubr
          endchar
        </CharString>
        <CharString name="Edieresis">
          55 -3 110.75 -93.75 93.75 198.800003052 114.699996948 -105.050003052 94.6999969482 210.350006104 94.75 -94.75 110.75 54.75 111.5 hstemhm
          245.949996948 111.5 143.5 111.5 hintmask 0000001110000000
          245.950195312 843 rmoveto
          -59 callsubr
          255 hmoveto
          -59 callsubr
          hintmask 1000000000000000
          -414.850585938 -702.5 rmoveto
          -57 callsubr
          hintmask 0100000000000000
          -56 callsubr
          hintmask 1010000000000000
          -55 callsubr
          hintmask 0001000000000000
          -54 callsubr
          hintmask 0010010000000000
          -53 callsubr
          hintmask 0000100000000000
          -52 callsubr
          hintmask 1000010000000000
          -51 callsubr
          endchar
        </CharString>
        <CharString name="Edotaccent">
          55 -3 110.75 -93.75 93.75 198.800003052 114.699996948 -105.050003052 94.6999969482 210.350006104 94.75 -94.75 110.75 65 116 hstemhm
          383.957992554 122.100006104 hintmask 00000011
          383.958007812 820 rmoveto
          34 callsubr
          hintmask 10000000
          -308.958007812 -747.5 rmoveto
          -57 callsubr
          hintmask 01000000
          -56 callsubr
          hintmask 10100000
          -55 callsubr
          hintmask 00010000
          -54 callsubr
          hintmask 00100100
          -53 callsubr
          hintmask 00001000
          -52 callsubr
          hintmask 10000100
          -51 callsubr
          endchar
        </CharString>
        <CharString name="Egrave">
          55 -3 110.75 -93.75 93.75 198.800003052 114.699996948 -105.050003052 94.6999969482 210.350006104 94.75 -94.75 110.75 60 136.5 hstemhm
          276.199996948 195.100006104 hintmask 00000011
          276.200195312 928.5 rmoveto
          -67 callsubr
          hintmask 10000000
          -297.400390625 -788 rmoveto
          -57 callsubr
          hintmask 01000000
          -56 callsubr
          hintmask 10100000
          -55 callsubr
          hintmask 00010000
          -54 callsubr
          hintmask 00100100
          -53 callsubr
          hintmask 00001000
          -52 callsubr
          hintmask 10000100
          -51 callsubr
          endchar
        </CharString>
        <CharString name="Emacron">
          55 -3 110.75 -93.75 93.75 198.800003052 114.699996948 -105.050003052 94.6999969482 210.350006104 94.75 -94.75 110.75 60 73.5 hstemhm
          276.949996948 303.75 hintmask 00000011
          276.950195312 792 rmoveto
          -77 callsubr
          hintmask 10000000
          -202.600585938 -725 rmoveto
          -57 callsubr
          hintmask 01000000
          -56 callsubr
          hintmask 10100000
          -55 callsubr
          hintmask 00010000
          -54 callsubr
          hintmask 00100100
          -53 callsubr
          hintmask 00001000
          -52 callsubr
          hintmask 10000100
          -51 callsubr
          endchar
        </CharString>
        <CharString name="Eng">
          158 -257 85 193 -21 21 -21 732 -20 hstemhm
          hintmask 11010000
          67.75 hmoveto
          117 0 81.3999938965 513.5 233.25 -509.600006104 -11.3000030518 -70.3999938965 rlineto
          -15.5 -98.3000030518 -66.3000030518 3.55000305176 -57.5 -10.75 rrcurveto
          -13.5500030518 -85 rlineto
          118 -4.55000305176 123.100006104 18.1999969482 26.4499969482 166.350006104 rrcurveto
          12.6000061035 79.6000061035 115.350006104 729.399993896 -116 0 -81.75 -517 -233.850006104 517 -115.399993896 0 rlineto
          endchar
        </CharString>
        <CharString name="Eogonek">
          52 -170.5 70.5 94 20 -17 110.75 -93.75 93.75 198.800003052 114.699996948 -105.050003052 94.6999969482 210.350006104 94.75 -94.75 110.75 hstemhm
          hintmask 11000000
          480.549804688 14 rmoveto
          20 callsubr
          hintmask 00100000
          -440.700195312 126.5 rmoveto
          -57 callsubr
          hintmask 00010000
          -56 callsubr
          hintmask 00101000
          -55 callsubr
          hintmask 00000100
          -54 callsubr
          hintmask 00001001
          -53 callsubr
          hintmask 00000010
          -52 callsubr
          hintmask 00100001
          -51 callsubr
          endchar
        </CharString>
        <CharString name="Eth">
          151 0 107.449996948 235.050003052 61 223 105.5 hstem
          56.3999938965 342.5 rmoveto
          65 0 -54.3000030518 -342.5 297.5 0 rlineto
          181.299987793 0 87.75 124.449996948 38.4000091553 228.050003052 25.8499908447 151.75 -8.39999389648 227.75 -215.899993896 0 rrcurveto
          -39 -251.5 0 -0.649993896484 hvcurveto
          -51.6499938965 -327.850006104 -65 0 rlineto
          133.549987793 -296.050003052 rmoveto
          37.3999938965 235.050003052 121.5 0 10.0500030518 61 -121.5 0 34.75 223 167.5 0 rlineto
          98.3499908447 0 38.3000030518 -67.8500061035 -30.950012207 -194.649993896 -23.299987793 -146.199996948 -60.1500091553 -110.350006104 -104.449996948 0 rrcurveto
          endchar
        </CharString>
        <CharString name="Euro">
          202 -6 102 155.5 61 87 74 -66 57 170 105.5 hstemhm
          hintmask 11101000
          61.25 251.5 rmoveto
          80 -7 rlineto
          -36 -226 160.350006104 -24.5 77 0 97 0 87.049987793 9.89999389648 81.1500091553 28.6000061035 rrcurveto
          13.5500030518 84 rlineto
          0 -148.700012207 -20.5 -93.1499938965 vhcurveto
          -81.3999938965 0 -62 22.3999938965 21.1499938965 126.100006104 -3 2 238 5 0 0 rrcurveto
          9.44999694824 61 -232.350006104 7 12.5 80 235 7 9.44999694824 60 -233 7 rlineto
          15.5500183105 88.4499969482 16.6499938965 72.5500030518 139.199996948 0 rrcurveto
          82 150.5 -15 0 hvcurveto
          13.5500030518 87 rlineto
          -72.5500030518 19.6499938965 -125.599990845 13.8500061035 -52 0 -244 0 -28.3000030518 -194.5 -11 -72 rrcurveto
          hintmask 11011000
          -82 -9 -9.10000610352 -57 rlineto
          hintmask 11101000
          79.6499938965 -8 -12.5 -80 -82.6499938965 -7 rlineto
          endchar
        </CharString>
        <CharString name="Euro.smcp">
          10 -5 103.699996948 98.5500030518 57.5 56 54.5 109.75 102 hstem
          44.1999969482 197.25 rmoveto
          60.6499938965 -6 rlineto
          -24.8500061035 -168.649993896 117.649993896 -27.6000061035 75.5500030518 0 65 0 93.4499969482 8.25 60.4000091553 19.75 rrcurveto
          14.1999969482 89.3500061035 rlineto
          0 -123.399993896 -13.6500091553 -79.5 vhcurveto
          -48.8000030518 0 -47.8000030518 10.6000061035 14.4499969482 81.9499969482 -2 2 181.650009155 4 0 0 rrcurveto
          8.75 57.5 -177 5 6.89999389648 45 179 5 9.39999389648 56.5 -177.649993896 6 rlineto
          8.30000305176 45.6000061035 19.8499908447 57.1499938965 88.1000061035 0 rrcurveto
          64 129 -11 0 hvcurveto
          13.5500030518 90 rlineto
          -64.1999816895 12.1000061035 -102.300003052 10.8999938965 -41 0 -197.800003052 0 -24.4499969482 -137.899993896 -10.0500030518 -66.8500061035 rrcurveto
          -62.6499938965 -7 -8.10000610352 -54.5 60 -6 -6.89999389648 -45 -62.6499938965 -5 rlineto
          endchar
        </CharString>
        <CharString name="F">
          57 21 -21 21 -21 305.149993896 114.699996948 -105.049987793 94.6999969482 211.75 110.75 -110.75 94.75 hstemhm
          hintmask 10100000
          66 hmoveto
          116 0 48.1999969482 305.149993896 rlineto
          hintmask 00010000
          303 9.64999389648 14.6000061035 94.6999969482 rlineto
          hintmask 00101000
          -299 10.3500061035 22.6000061035 145.399993896 rlineto
          4 27 7.60000610352 29 49.3999938965 0 rrcurveto
          hintmask 00000100
          292.5 0 14.6000061035 94.75 rlineto
          hintmask 10101000
          -40.25 5.60000610352 -270.25 10.3999938965 0 0 -80.8999938965 2.60000610352 -71.450012207 -36 -18.4499969482 -114.100006104 rrcurveto
          endchar
        </CharString>
        <CharString name="G">
          105 -6.30000305176 110.399993896 202.900009155 99.5 -99.5 74.5 252.350006104 105.5 hstemhm
          hintmask 11010000
          108.600006104 382.050003052 rmoveto
          -32.5500030518 -183.299987793 23.3499908447 -208.949996948 194.050003052 3.89999389648 77.4000091553 1.75 61.549987793 26.9499969482 32.700012207 31.8000030518 rrcurveto
          22.9499969482 -54.1999969482 85 0 64.1499938965 403.5 rlineto
          -24.0000152588 2 -22.3499908447 1 -21 0 rrcurveto
          hintmask 10110000
          -75.75 0 -58.8000030518 -9.44999694824 -44.4499969482 -15.5500030518 rrcurveto
          -11.8500061035 -74.5 rlineto
          hintmask 11010000
          127 0 -26.3000030518 -151.050003052 rlineto
          -1.52587890625e-05 -1.52587890625e-05 -81.3499908447 -51.8499908447 -72.4000091553 0 -106.849990845 -0.650009155273 -18.5500030518 99.25 26 163.350006104 38.3499908447 255.300003052 80.8500061035 13.1499938965 70.8999938965 -0.649993896484 74.3500061035 -0.650009155273 119.350006104 -10.3000030518 41.0999908447 -5.84999084473 rrcurveto
          13.6000061035 89.8000030518 rlineto
          -89.3499908447 21.3999938965 -77.5999908447 11.75 -87.5 -0.649993896484 rrcurveto
          -199 0 -61.5500030518 -123.650009155 -41.4499969482 -233.649993896 rrcurveto
          endchar
        </CharString>
        <CharString name="Gbreve">
          105 -6.30000305176 110.399993896 202.900009155 74.5 -74.5 99.5 227.350006104 105.5 60.0269927979 52.6499938965 hstemhm
          338.755004883 53.3500061035 121.349990845 53.3500061035 hintmask 00001110
          338.754882812 912.676757812 rmoveto
          35 callsubr
          hintmask 10110000
          -283.505859375 -530.626953125 rmoveto
          36 callsubr
          hintmask 11010000
          37 callsubr
          hintmask 10110000
          38 callsubr
          endchar
        </CharString>
        <CharString name="Gcircumflex">
          105 -6.30000305176 110.399993896 202.900009155 74.5 -74.5 99.5 227.350006104 105.5 60.0269927979 133.5 hstemhm
          284.18800354 302.5 hintmask 00001100
          284.188476562 799.376953125 rmoveto
          -40 callsubr
          hintmask 10110000
          -307.98828125 -550.827148438 rmoveto
          36 callsubr
          hintmask 11010000
          37 callsubr
          hintmask 10110000
          38 callsubr
          endchar
        </CharString>
        <CharString name="Gcommaaccent">
          105 -263.199996948 38.25 218.649993896 110.399993896 202.900009155 74.5 -74.5 99.5 227.350006104 105.5 hstemhm
          255.294998169 130.949996948 hintmask 10000100
          255.294921875 -263.200195312 rmoveto
          53 callsubr
          hintmask 01011000
          -152.770507812 607 rmoveto
          36 callsubr
          hintmask 01101000
          37 callsubr
          hintmask 01011000
          38 callsubr
          endchar
        </CharString>
        <CharString name="Gdotaccent">
          105 -6.30000305176 110.399993896 202.900009155 74.5 -74.5 99.5 227.350006104 105.5 60.6499938965 116 hstemhm
          387.850006104 122.100006104 hintmask 00001100
          387.849609375 823 rmoveto
          11 callsubr
          hintmask 10110000
          -290.350585938 -508.950195312 rmoveto
          36 callsubr
          hintmask 11010000
          37 callsubr
          hintmask 10110000
          38 callsubr
          endchar
        </CharString>
        <CharString name="H">
          139 21 -21 21 -21 299.5 109 323.5 -20 hstemhm
          hintmask 10110000
          71 hmoveto
          116 0 47.8500061035 299.5 287 0 -47.8500061035 -299.5 116 0 116 732 -116 0 -51.8500061035 -323.5 -287 0 51.8500061035 323.5 -116 0 rlineto
          endchar
        </CharString>
        <CharString name="Hbar">
          146 21 -21 21 -21 300.149993896 109.649993896 106.850006104 61.6499938965 153.700012207 -20 hstemhm
          hintmask 10111000
          71.3500061035 hmoveto
          116 0 48.5 300.149993896 287 0 -48.5 -300.149993896 116 0 82 516.649993896 61.1000061035 0 9.05000305176 61.6499938965 -61.1000061035 0 24.9499969482 153.699996948 -116 0 -24.9499969482 -153.699996948 -287 0 24.9499969482 153.699996948 -116 0 rlineto
          -24.9499969482 -153.699996948 -62.3999938965 0 -9.05000305176 -61.6499938965 62.3999938965 0 rlineto
          98.799987793 -106.849990845 rmoveto
          17.1999969482 106.850006104 287 0 -17.1999969482 -106.850006104 rlineto
          endchar
        </CharString>
        <CharString name="Hcircumflex">
          139 0 21 278.5 109 303.5 20 65 133.5 hstem
          305.54800415 302.5 vstem
          305.547851562 797 rmoveto
          -63 callsubr
          -366.948242188 -930.5 rmoveto
          116 0 47.849609375 299.5 287 0 -47.849609375 -299.5 116 0 116 732 -116 0 -51.849609375 -323.5 -287 0 51.849609375 323.5 -116 0 rlineto
          endchar
        </CharString>
        <CharString name="I">
          -263 21 -21 21 -21 732 -20 hstemhm
          74.25 232 hintmask 10110000
          74.25 hmoveto
          -94 callsubr
          endchar
        </CharString>
        <CharString name="Iacute">
          -263 0 21 691 20 65 136.5 hstemhm
          74.25 232 -89.0269927979 230.699996948 hintmask 00101000
          217.22265625 797 rmoveto
          -64 callsubr
          hintmask 11010000
          -261.172851562 -933.5 rmoveto
          -94 callsubr
          endchar
        </CharString>
        <CharString name="Icircumflex">
          -263 0 21 691 20 65 133.5 hstemhm
          74.25 232 -198.951705933 302.5 hintmask 00101000
          107.297851562 797 rmoveto
          -63 callsubr
          hintmask 11010000
          -165.448242188 -930.5 rmoveto
          -94 callsubr
          endchar
        </CharString>
        <CharString name="Idieresis">
          -263 0 21 691 20 65 111.5 hstemhm
          74.25 232 -221.848297119 111.5 143.5 111.5 hintmask 00101100
          84.4013671875 853.25 rmoveto
          -49 callsubr
          255 hmoveto
          -49 callsubr
          hintmask 11010000
          -265.151367188 -853.25 rmoveto
          -94 callsubr
          endchar
        </CharString>
        <CharString name="Idotaccent">
          -263 0 21 691 20 65 116 hstemhm
          74.25 232 -99.7510070801 122.100006104 hintmask 00101000
          206.499023438 820 rmoveto
          34 callsubr
          hintmask 11010000
          -143.348632812 -888 rmoveto
          -94 callsubr
          endchar
        </CharString>
        <CharString name="Idotaccent.smcp">
          -275 21 -21 21 -21 625 116 hstemhm
          153.800003052 122.100006104 hintmask 10110000
          49.1499938965 hmoveto
          63 callsubr
          hintmask 00110000
          14.649810791 78 rmoveto
          11 callsubr
          endchar
        </CharString>
        <CharString name="Igrave">
          -263 0 21 691 20 65 136.5 hstemhm
          74.25 232 -201.126693726 195.100006104 hintmask 00101000
          105.123046875 933.5 rmoveto
          -50 callsubr
          hintmask 11010000
          -138.172851562 -933.5 rmoveto
          -94 callsubr
          endchar
        </CharString>
        <CharString name="Imacron">
          -263 0 21 691 20 61.75 73.5 hstemhm
          43.0500030518 232 -201.150009155 303.75 hintmask 00101000
          73.900390625 793.75 rmoveto
          -77 callsubr
          hintmask 11010000
          -42.6005859375 -867.25 rmoveto
          -94 callsubr
          endchar
        </CharString>
        <CharString name="Iogonek">
          -263 -184.099639893 70.5 94 20 -0.400360107422 21 691 20 hstemhm
          74.25 232 hintmask 00000000
          hintmask 11000000
          111.776367188 0.400390625 rmoveto
          -155.419921875 -68.900390625 69.1806640625 -137.899414062 112.82421875 22.2998046875 rrcurveto
          11.3720703125 70.5 rlineto
          -66.736328125 -4.7001953125 -11.8212890625 55.9501953125 89.9794921875 62.75 rrcurveto
          hintmask 00111000
          -86.9052734375 -0.400390625 rmoveto
          -94 callsubr
          endchar
        </CharString>
        <CharString name="Itilde">
          -263 0 21 691 20 65.6499938965 82.6000061035 -48.25 82.6000061035 hstemhm
          74.25 232 hintmask 00010000
          95.3798828125 847.099609375 rmoveto
          -44 callsubr
          hintmask 00100000
          50 callsubr
          hintmask 00010000
          51 callsubr
          hintmask 11001000
          -21.1298828125 -847.099609375 rmoveto
          -94 callsubr
          endchar
        </CharString>
        <CharString name="J">
          -150 732 -20 hstem
          32.75 22.3999938965 rmoveto
          47 -34 119.25 -4.39999389648 58 34 55 32 13.6999969482 68 7 47 rrcurveto
          90 567 -116 0 -83.6999969482 -528.149993896 rlineto
          -17.8500061035 -114.050003052 -72.6499938965 9.89999389648 -82.8999938965 11.6999969482 rrcurveto
          endchar
        </CharString>
        <CharString name="Jcircumflex">
          -150 712 20 65 133.5 hstem
          223.748001099 302.5 vstem
          223.748046875 797 rmoveto
          -63 callsubr
          -323.3984375 -908.099609375 rmoveto
          47 -34 119.25 -4.400390625 58 34 55 32 13.7001953125 68 7 47 rrcurveto
          90 567 -116 0 -83.7001953125 -528.150390625 rlineto
          -17.849609375 -114.049804688 -72.650390625 9.900390625 -82.900390625 11.7001953125 rrcurveto
          endchar
        </CharString>
        <CharString name="K">
          95 21 -21 21 -21 312.5 105.5 314 -20 hstemhm
          hintmask 10110000
          67.75 hmoveto
          113.5 0 49.1999969482 312.5 76.3000030518 0 144.850006104 -312.5 134.149993896 0 -172.25 357.449996948 288.25 374.550003052 -141.350006104 0 -247 -314 -67.0500030518 0 49.8999938965 314 -112.5 0 rlineto
          endchar
        </CharString>
        <CharString name="Kcommaaccent">
          95 -258.199996948 38.25 219.949996948 21 291.5 105.5 294 20 hstem
          227.994995117 130.949996948 vstem
          hintmask 00000000
          227.995117188 -258.200195312 rmoveto
          53 callsubr
          -166.3203125 219.950195312 rmoveto
          113.5 0 49.2001953125 312.5 76.2998046875 0 144.849609375 -312.5 134.150390625 0 -172.25 357.450195312 288.25 374.549804688 -141.349609375 0 -247 -314 -67.05078125 0 49.900390625 314 -112.5 0 rlineto
          endchar
        </CharString>
        <CharString name="L">
          24 0 109 623 -20 hstem
          88.5 136.5 rmoveto
          -16.0500030518 -100.649993896 65.4000091553 -35.8500061035 75.3999938965 0 rrcurveto
          303.800003052 0 16.9499969482 109 -271 0 rlineto
          -29 0 -33.6499938965 -1 8 53 rrcurveto
          91.0500030518 571 -115.350006104 0 rlineto
          endchar
        </CharString>
        <CharString name="Lacute">
          24 0 109 603 20 60 136.5 hstem
          153.25 230.699996948 vstem
          153.25 792 rmoveto
          -64 callsubr
          -237.600585938 -792 rmoveto
          -16.0498046875 -100.650390625 65.400390625 -35.849609375 75.3994140625 0 rrcurveto
          303.80078125 0 16.94921875 109 -271 0 rlineto
          -29 0 -33.6494140625 -1 8 53 rrcurveto
          91.0498046875 571 -115.349609375 0 rlineto
          endchar
        </CharString>
        <CharString name="Lcaron">
          24 0 109 623 -20 hstem
          349.050003052 67 vstem
          88.5 136.5 rmoveto
          -16.0500030518 -100.649993896 65.3950042725 -35.8500061035 75.4049987793 0 rrcurveto
          303.800003052 0 16.9499969482 109 -271 0 rlineto
          -29 0 -33.6499938965 -1 8 53 rrcurveto
          91.0500030518 571 -115.350006104 0 rlineto
          165.000015259 -161 rmoveto
          67 0 31 134 10.6499938965 67 -88 0 -10.6499938965 -67 rlineto
          endchar
        </CharString>
        <CharString name="Lcommaaccent">
          24 -258.199996948 38.25 219.949996948 109 603 20 hstem
          217.595001221 130.949996948 vstem
          hintmask 00000000
          217.594726562 -258.200195312 rmoveto
          52 callsubr
          -135.169921875 356.450195312 rmoveto
          -16.0498046875 -100.650390625 65.3994140625 -35.849609375 75.400390625 0 rrcurveto
          303.799804688 0 16.9501953125 109 -271 0 rlineto
          -29 0 -33.650390625 -1 8 53 rrcurveto
          91.05078125 571 -115.350585938 0 rlineto
          endchar
        </CharString>
        <CharString name="Lslash">
          25 0 109 623 -20 hstem
          34.8999938965 310.550003052 rmoveto
          86.1499938965 34.8999938965 -33.5 -208.949996948 rlineto
          -16.049987793 -100.649993896 65.7449951172 -35.8500061035 75.4049987793 0 rrcurveto
          303.149993896 0 17.25 109 -271.649993896 0 rlineto
          -29 0 -33 -1 8 53 rrcurveto
          37.4499969482 234.300003052 129.149993896 52.3000030518 11.6999969482 67.3500061035 -130.449996948 -52.3000030518 42.5500030518 269.350006104 -115.350006104 0 -50.3500061035 -319.199996948 -86.1499938965 -34.25 rlineto
          endchar
        </CharString>
        <CharString name="M">
          311 21 -21 21 -21 732 -20 hstemhm
          hintmask 10100000
          57 hmoveto
          116.699996948 0 124.149993896 528.350006104 64.6999969482 -528.350006104 128.850006104 0 229.350006104 529 -40.8000030518 -529 114.949996948 0 51.9499969482 732 -161.899993896 0 -231.300003052 -539.699996948 -65.25 539.699996948 -156.899993896 0 rlineto
          endchar
        </CharString>
        <CharString name="M.salt">
          330 21 -21 21 -21 hstemhm
          hintmask 10000000
          46.6000061035 hmoveto
          115 0 126.149993896 592.850006104 rlineto
          4.30000305176 21.549987793 22.75 -1.44999694824 0.599990844727 -16.3499908447 rrcurveto
          25.5 -331.399993896 rlineto
          5.5 -127.250015259 195.100006104 5.40000915527 36 109.099990845 rrcurveto
          125.100006104 344.199996948 rlineto
          5.59999084473 16 24.6999969482 -1.44999694824 -2.64999389648 -17 rrcurveto
          -55.4499969482 -594.199996948 118 0 55.5 634.75 rlineto
          11.1500091553 126.100006104 -219.5 14.6499938965 -38.5 -129.149993896 rrcurveto
          -124.449996948 -351.850006104 rlineto
          -4.60000610352 -15.3500061035 -21.5999908447 -4 -0.900009155273 19.3500061035 rrcurveto
          -24.3999938965 336.800003052 rlineto
          -0.5 141.600006104 -218.699996948 -9.09999084473 -23.3500061035 -130 rrcurveto
          endchar
        </CharString>
        <CharString name="N">
          158 21 -21 21 -21 732 -20 hstemhm
          hintmask 10100000
          67.75 hmoveto
          117 0 81.3999938965 515.25 235.199996948 -515.25 113.399993896 0 116 732 -116 0 -81.75 -518.75 -233.850006104 518.75 -115.399993896 0 rlineto
          endchar
        </CharString>
        <CharString name="N.salt">
          191 21 -21 21 -21 732 -20 hstemhm
          hintmask 10100000
          67.75 hmoveto
          116.350006104 0 97.4499969482 615.949996948 rlineto
          3.00001525879 16.9999847412 20.75 5.35000610352 2.25 -15.3500061035 rrcurveto
          104.100006104 -520.399993896 rlineto
          16.25 -149.949981689 216.900009155 8.59999084473 22.3000030518 145.050003052 rrcurveto
          96.5 625.75 -116 0 -96.75 -609.399993896 rlineto
          -3.30000305176 -20.200012207 -18.4499969482 -1.5 -2.90000915527 18.700012207 rrcurveto
          -106.699996948 526.449996948 rlineto
          -11.75 123.650009155 -221.800003052 3.80000305176 -21.0500030518 -147.050003052 rrcurveto
          endchar
        </CharString>
        <CharString name="Nacute">
          158 0 21 691 20 65 136.5 hstem
          426.04800415 230.699996948 vstem
          426.047851562 797 rmoveto
          -64 callsubr
          -476.498046875 -933.5 rmoveto
          -48 callsubr
          endchar
        </CharString>
        <CharString name="Nacute.salt">
          191 0 21 691 20 66.3999938965 136.5 hstem
          460.300003052 230.699996948 vstem
          460.299804688 798.400390625 rmoveto
          -64 callsubr
          -510.75 -934.900390625 rmoveto
          98 callsubr
          endchar
        </CharString>
        <CharString name="Ncaron">
          158 0 21 691 20 65 133.5 hstem
          337.563995361 302.5 vstem
          337.564453125 930.5 rmoveto
          9 callsubr
          -350.9140625 -930.5 rmoveto
          -48 callsubr
          endchar
        </CharString>
        <CharString name="Ncaron.salt">
          191 0 21 691 20 66.3999938965 133.5 hstem
          369.449996948 302.5 vstem
          369.450195312 931.900390625 rmoveto
          79.849609375 -133.5 90.25 0 132.400390625 133.5 -94.7001953125 0 -77.400390625 -71.80078125 -49.2998046875 71.80078125 rlineto
          -382.799804688 -931.900390625 rmoveto
          98 callsubr
          endchar
        </CharString>
        <CharString name="Ncommaaccent">
          158 -258.199996948 38.25 219.949996948 21 691 20 hstem
          266.645004272 130.949996948 vstem
          hintmask 00000000
          266.64453125 -258.200195312 rmoveto
          54 callsubr
          -204.969726562 219.950195312 rmoveto
          -48 callsubr
          endchar
        </CharString>
        <CharString name="Ncommaaccent.salt">
          191 -274.929992676 39.7375030518 235.192489624 21 691 20 hstem
          272.101745605 136.042495728 vstem
          hintmask 00000000
          272.1015625 -274.9296875 rmoveto
          0 0 104.018554688 -26.3203125 15.662109375 98.3154296875 rrcurveto
          16.3623046875 103.784179688 rlineto
          1.8701171875 14.025390625 -3.1328125 11.2197265625 -16.830078125 0 rrcurveto
          -67.3193359375 hlineto
          -14.9599609375 0 -9.9580078125 -8.4150390625 -2.8056640625 -16.830078125 rrcurveto
          -10.751953125 -70.125 rlineto
          -2.8046875 -15.89453125 9.349609375 -7.48046875 13.08984375 0 rrcurveto
          10.28515625 0 -2.7578125 -16.830078125 rlineto
          -1.8701171875 -9.95703125 -3.0859375 -16.6904296875 -28.0498046875 0.935546875 rrcurveto
          -210.663085938 235.192382812 rmoveto
          98 callsubr
          endchar
        </CharString>
        <CharString name="Ntilde">
          158 0 21 691 20 62.3999938965 82.6000061035 -48.25 82.6000061035 hstemhm
          hintmask 00010000
          299.549804688 843.849609375 rmoveto
          -62 callsubr
          hintmask 00100000
          -61 callsubr
          hintmask 00010000
          -60 callsubr
          hintmask 11000000
          -231.799804688 -843.849609375 rmoveto
          -48 callsubr
          endchar
        </CharString>
        <CharString name="Ntilde.salt">
          191 0 21 691 20 65.6499938965 82.6000061035 -48.25 82.6000061035 hstemhm
          hintmask 00010000
          296.299804688 847.099609375 rmoveto
          -62 callsubr
          hintmask 00100000
          -61 callsubr
          hintmask 00010000
          -60 callsubr
          hintmask 11000000
          -228.549804688 -847.099609375 rmoveto
          98 callsubr
          endchar
        </CharString>
        <CharString name="O">
          159 -4 109 523 109 hstem
          107.649993896 369.75 rmoveto
          -53 -333 123.200012207 -40.75 168.299987793 0 175.450012207 0 116.349990845 33.25 49.6999969482 323 51.4000091553 335.199996948 -114.600006104 49.5500030518 -173.649993896 0 -172.550003052 0 -116.600006104 -24.25 -54 -343 rrcurveto
          116 -8.75 rmoveto
          -93 callsubr
          endchar
        </CharString>
        <CharString name="OE">
          544 -4 109 -91 93.75 198.800003052 114.699996948 -105.050003052 94.6999969482 210.350006104 94.75 -88 109 hstemhm
          hintmask 10000000
          93.1499938965 369.75 rmoveto
          -53 -333 123.200012207 -40.75 168.299987793 0 86.0500030518 0 71.1999969482 8.85000610352 56 47.799987793 22.0500030518 -42.549987793 49.6500091553 -15.75 44.6999969482 2.64999389648 rrcurveto
          hintmask 01100000
          0 0 268.75 12.1000061035 37.0999908447 4.89999389648 rrcurveto
          15.25 93.75 -282.5 0 rlineto
          -29 0 -33 -1 7.70001220703 53 rrcurveto
          23.6000061035 146.800003052 rlineto
          hintmask 00010000
          302.300003052 9.64999389648 14.6000061035 94.6999969482 rlineto
          hintmask 00101000
          -298.649993896 10.3500061035 22.25 144 rlineto
          3.99998474121 27 7.60000610352 29 49.3999938965 0 rrcurveto
          292.5 0 14.9499969482 94.75 rlineto
          -40.25 5.60000610352 -270.599990845 10.3999938965 0 0 -55.8000030518 3 -49.0500030518 -11.5 -29.9499969482 -52.0500030518 rrcurveto
          hintmask 10000100
          -42.0500030518 53.6500091553 -69.3499908447 11.8999938965 -84.8000030518 0 rrcurveto
          -172.550003052 0 -116.600006104 -24.25 -54 -343 rrcurveto
          116 -8.75 rmoveto
          -93 callsubr
          endchar
        </CharString>
        <CharString name="Oacute">
          159 -4 109 523 109 60 136.5 hstem
          418.908996582 230.699996948 vstem
          418.909179688 797 rmoveto
          -64 callsubr
          -429.458984375 -563.75 rmoveto
          -46 callsubr
          116 -8.75 rmoveto
          -45 callsubr
          endchar
        </CharString>
        <CharString name="Ocircumflex">
          159 -4 109 523 109 60 133.5 hstem
          309.333999634 302.5 vstem
          309.333984375 797 rmoveto
          -63 callsubr
          -334.083984375 -560.75 rmoveto
          -46 callsubr
          116 -8.75 rmoveto
          -45 callsubr
          endchar
        </CharString>
        <CharString name="Odieresis">
          159 -4 109 523 109 60 111.5 hstem
          286.43699646 111.5 143.5 111.5 vstem
          286.436523438 853.25 rmoveto
          -49 callsubr
          255 hmoveto
          -49 callsubr
          -433.786132812 -483.5 rmoveto
          -46 callsubr
          116 -8.75 rmoveto
          -45 callsubr
          endchar
        </CharString>
        <CharString name="Ograve">
          159 -4 109 523 109 60 136.5 hstem
          306.809005737 195.100006104 vstem
          306.80859375 933.5 rmoveto
          -47 callsubr
          -306.458984375 -563.75 rmoveto
          -46 callsubr
          116 -8.75 rmoveto
          -45 callsubr
          endchar
        </CharString>
        <CharString name="Ohungarumlaut">
          159 -4 109 523 109 60 136.5 hstem
          344.93359375 797 rmoveto
          -64 callsubr
          30.1005859375 -136.5 rmoveto
          -28 callsubr
          -503.783203125 -563.75 rmoveto
          -46 callsubr
          116 -8.75 rmoveto
          -45 callsubr
          endchar
        </CharString>
        <CharString name="Omacron">
          159 -4 109 523 109 56.75 73.5 hstem
          319.350006104 303.75 vstem
          319.349609375 793.75 rmoveto
          -77 callsubr
          -223.44921875 -497.5 rmoveto
          -46 callsubr
          116 -8.75 rmoveto
          -45 callsubr
          endchar
        </CharString>
        <CharString name="Omega">
          260 0 98.5 531.5 109 hstem
          60.8500061035 hmoveto
          234 0 17.8999938965 109.5 rlineto
          -102.699996948 97.1000061035 2.25 57.1499938965 18.5500030518 116.25 18.799987793 120.699996948 67.1500091553 129.300003052 167.699996948 0 172 0 16.3000030518 -128 -18.4499969482 -117 -18.5500030518 -117.600006104 -20.75 -77.1999969482 -124.800003052 -80.6999969482 rrcurveto
          -17.8999938965 -109.5 242 0 15.8999938965 98.5 -113 10 rlineto
          105.100006104 74.6000061035 29.3499908447 86.3999938965 19 117 29 182 -67.3999938965 170.5 -233.699996948 0 -262 0 -91.450012207 -180.149993896 -27.25 -153.350006104 -15.3999938965 -86.6499938965 -7.89999389648 -128.950012207 103.149993896 -80.3999938965 rrcurveto
          -121 -10 rlineto
          endchar
        </CharString>
        <CharString name="Oslash">
          159 -4 109 523 109 hstem
          52.1999969482 hmoveto
          69.75 0 33.6999969482 40.6499938965 rlineto
          45.3500061035 -38 67.0500030518 -6.64999389648 75.8000030518 0 175.449996948 0 116.349990845 31.5 49.700012207 323 23 149.949996948 -10 101.150009155 -33.3000030518 55 rrcurveto
          62.1499938965 75.3999938965 -69.75 0 -28.9499969482 -35.5500030518 rlineto
          -43.6999969482 33.2499847412 -63 7.30000305176 -72.9499969482 0 -172.550003052 0 -116.949996948 -22.5 -54 -343 -22.3000030518 -137.800003052 8.94999694824 -97.0999908447 29.1999969482 -53.3500061035 rrcurveto
          100.150009155 277.75 rmoveto
          40.3499908447 257 58.8000030518 10 117.25 0 47.3000030518 0 39.25 -2.05000305176 25.0500030518 -22.4499969482 rrcurveto
          -332.800003052 -407.350006104 rlineto
          -9.04998779297 34.950012207 1.39999389648 51.8999938965 12.450012207 78 rrcurveto
          15.1999969482 -224 rmoveto
          337.649993896 412.600006104 rlineto
          10.3999938965 -38.4000091553 -1.10000610352 -58.3999938965 -14.1499938965 -91.8000030518 -34.1000061035 -216.100006104 -57.8999938965 -39.8999938965 -122.400009155 0 -56.6999969482 0 -38.6499938965 6.69999694824 -23.0500030518 25.3000030518 rrcurveto
          endchar
        </CharString>
        <CharString name="Otilde">
          159 -4 109 523 109 60.6499938965 82.6000061035 -48.25 82.6000061035 hstemhm
          hintmask 00010000
          297.065429688 847.099609375 rmoveto
          -44 callsubr
          hintmask 00100000
          -43 callsubr
          hintmask 00010000
          -42 callsubr
          hintmask 11000000
          -189.415039062 -477.349609375 rmoveto
          -46 callsubr
          116 -8.75 rmoveto
          -45 callsubr
          endchar
        </CharString>
        <CharString name="P">
          89 21 -21 21 -21 280.5 105.5 -87.4499969482 87.4499969482 239.5 106.5 hstemhm
          hintmask 10011000
          64.1499938965 hmoveto
          116 0 47.8500061035 298.550003052 rlineto
          hintmask 10101000
          5 -2.99998474121 142 -14 40 -1.05000305176 79.9499969482 -2.44999694824 116.199996948 -5.80000305176 33.1000061035 228.5 26.1999969482 180.800003052 -97.25 50.4499969482 -87.0500030518 0 rrcurveto
          -306 hlineto
          hintmask 00011000
          61.1000061035 -346 rmoveto
          38 239.5 183 0 rlineto
          37.6000061035 0 42.549987793 -12.6499938965 -15.1499938965 -102.650009155 rrcurveto
          hintmask 00101000
          -16.4499969482 -104.300003052 -40.1000061035 -19.8999938965 -47.0999908447 0 rrcurveto
          endchar
        </CharString>
        <CharString name="Q">
          162 -159.25 101 54.25 109 523 109 hstem
          110.25 371.5 rmoveto
          -53 -333 123.199996948 -42.5 168.300003052 0 175.449996948 0.699996948242 116.350006104 30.8000030518 49.6999969482 323 51.3999938965 335.199996948 -114.599990845 51.3000030518 -173.650009155 0 -172.549987793 0 -116.600006104 -22.5 -54 -343 rrcurveto
          116 -10.5 rmoveto
          40.3500061035 257 58.799987793 10 117.25 0 112.450012207 0 59.1499938965 -13.1499938965 -40 -253.850006104 -34.1000061035 -216.100006104 -58.25 -39.8999938965 -122.399993896 0 -131.800003052 0 -36.5 35.3999938965 35.0500030518 220.600006104 rrcurveto
          72.6000061035 -394 rmoveto
          -8.05000305176 -117.850006104 128.349990845 -32.25 93.8500061035 23.8500061035 rrcurveto
          16.1499938965 101 rlineto
          -61.3499908447 -17.8500061035 -65.1000061035 -6.84999084473 -34.3499908447 49.9499969482 rrcurveto
          endchar
        </CharString>
        <CharString name="R">
          99 21 -21 21 -21 295.75 92.6999969482 237.050003052 106.5 hstemhm
          hintmask 10110000
          64.1499938965 hmoveto
          116 0 46.8999938965 295.75 146.5 -10.5 90.6000061035 -285.25 130 0 -104.600006104 293.25 rlineto
          33.200012207 4.69999694824 98.0500030518 14.3500061035 22.1499938965 185.699996948 21.1999969482 172.25 -73 61.75 -100.75 0 rrcurveto
          -310.25 hlineto
          62.450012207 -343.550003052 rmoveto
          37.6499938965 237.050003052 184.5 0 rlineto
          49.1999969482 0 21.6000061035 -17.5500030518 -9.60000610352 -101.199996948 -8.64999389648 -88.3999938965 -39.8500061035 -29.9000091553 -53.5999908447 0 rrcurveto
          endchar
        </CharString>
        <CharString name="Racute">
          99 0 21 274.75 92.6999969482 237.050003052 106.5 63.25 136.5 hstem
          372.123001099 230.699996948 vstem
          372.123046875 795.25 rmoveto
          -64 callsubr
          -430.373046875 -931.75 rmoveto
          18 callsubr
          62.4501953125 -343.549804688 rmoveto
          37.6494140625 237.049804688 184.5 0 rlineto
          49.2001953125 0 21.599609375 -17.5498046875 -9.599609375 -101.200195312 -8.650390625 -88.400390625 -39.849609375 -29.8994140625 -53.599609375 0 rrcurveto
          endchar
        </CharString>
        <CharString name="Rcaron">
          99 0 21 274.75 92.6999969482 237.050003052 106.5 65 133.5 hstem
          293.539001465 302.5 vstem
          293.5390625 930.5 rmoveto
          4 callsubr
          -310.48828125 -930.5 rmoveto
          18 callsubr
          62.44921875 -343.549804688 rmoveto
          21 callsubr
          endchar
        </CharString>
        <CharString name="Rcommaaccent">
          99 -258.199996948 38.25 219.949996948 21 274.75 92.6999969482 237.050003052 106.5 hstem
          238.445007324 130.949996948 vstem
          hintmask 00000000
          238.4453125 -258.200195312 rmoveto
          0 0 100.125 -25.3349609375 15.07421875 94.634765625 rrcurveto
          15.75 99.900390625 rlineto
          1.80078125 13.5 -3.015625 10.7998046875 -16.19921875 0 rrcurveto
          -64.80078125 hlineto
          -14.3994140625 0 -9.5849609375 -8.099609375 -2.7001953125 -16.2001953125 rrcurveto
          -10.3505859375 -67.5 rlineto
          -2.69921875 -15.2998046875 9 -7.2001953125 12.599609375 0 rrcurveto
          9.900390625 0 -2.6552734375 -16.2001953125 rlineto
          -1.7998046875 -9.5849609375 -2.970703125 -16.064453125 -27 0.8994140625 rrcurveto
          -180.369140625 219.950195312 rmoveto
          18 callsubr
          62.44921875 -343.549804688 rmoveto
          21 callsubr
          endchar
        </CharString>
        <CharString name="S">
          69 -8 109 201.75 116 210.25 109 hstem
          73.75 19.5 rmoveto
          56 -16.4499969482 101.955001831 -11.0500030518 100.044998169 0 87.9499969482 0 129.650009155 9.89999389648 18.049987793 164.600006104 rrcurveto
          7.85000610352 66.25 rlineto
          11.9499969482 81.3000030518 -19.3000030518 104.699996948 -133.149993896 0 rrcurveto
          -116.25 hlineto
          -53.3500061035 0 -35.1999969482 0.100006103516 12.8000030518 80.3999938965 rrcurveto
          7.19999694824 46.75 rlineto
          12.1999816895 77.1000061035 38.8500061035 8.5 68.3000030518 -2.60000610352 23.0999908447 0 163.700012207 -6.89999389648 54.549987793 -2.45001220703 rrcurveto
          14.25 91.1999969482 rlineto
          -59.5999908447 14.6499938965 -116.650009155 12.6000061035 -86.25 -0.100006103516 -109.399993896 1.55000305176 -95.1000061035 -24.6000061035 -23.25 -152.149993896 rrcurveto
          -10.3500061035 -72.3000030518 rlineto
          -9.958984375 -65.2400054932 0.509002685547 -122.509994507 168.899993896 0 rrcurveto
          114.850006104 hlineto
          64.799987793 0 3.10000610352 -31.8999938965 -7.60000610352 -47.200012207 rrcurveto
          -7.85000610352 -49.8000030518 rlineto
          -10.1999816895 -65.75 -64.1500091553 -7.10000610352 -41.6999969482 0 -93 0 -112.399993896 5.05000305176 -41.6000061035 5.30000305176 rrcurveto
          endchar
        </CharString>
        <CharString name="Sacute">
          69 -8 109 201.75 116 210.25 109 60.3500061035 136.5 hstem
          364.75 230.699996948 vstem
          364.75 798.349609375 rmoveto
          -64 callsubr
          -417 -915.349609375 rmoveto
          56 -16.4501953125 101.955078125 -11.0498046875 100.044921875 0 87.9501953125 0 129.649414062 9.900390625 18.0498046875 164.599609375 rrcurveto
          7.8505859375 66.25 rlineto
          11.9501953125 81.2998046875 -19.30078125 104.700195312 -133.149414062 0 rrcurveto
          -116.25 hlineto
          -53.3505859375 0 -35.19921875 0.099609375 12.7998046875 80.400390625 rrcurveto
          7.2001953125 46.75 rlineto
          12.19921875 77.099609375 38.8505859375 8.5 68.2998046875 -2.599609375 23.099609375 0 163.700195312 -6.900390625 54.5498046875 -2.44921875 rrcurveto
          14.25 91.19921875 rlineto
          -59.599609375 14.650390625 -116.650390625 12.599609375 -86.25 -0.099609375 -109.399414062 1.5498046875 -95.1005859375 -24.599609375 -23.25 -152.150390625 rrcurveto
          -10.349609375 -72.2998046875 rlineto
          -9.958984375 -65.240234375 0.5087890625 -122.509765625 168.900390625 0 rrcurveto
          114.849609375 hlineto
          64.7998046875 0 3.1005859375 -31.900390625 -7.6005859375 -47.19921875 rrcurveto
          -7.849609375 -49.80078125 rlineto
          -10.2001953125 -65.75 -64.1494140625 -7.099609375 -41.7001953125 0 -93 0 -112.400390625 5.0498046875 -41.599609375 5.2998046875 rrcurveto
          endchar
        </CharString>
        <CharString name="Scaron">
          69 -8 109 201.75 116 210.25 109 60.5930023193 133.5 hstem
          289.085998535 302.5 vstem
          289.0859375 932.092773438 rmoveto
          4 callsubr
          -296.435546875 -912.592773438 rmoveto
          5 callsubr
          endchar
        </CharString>
        <CharString name="Scedilla">
          69 -184.5 51.6999969482 124.800003052 109 201.75 116 210.25 109 hstem
          277.300003052 84.5 vstem
          176.950195312 -184.5 rmoveto
          6 callsubr
          -111.650390625 152.299804688 rmoveto
          5 callsubr
          endchar
        </CharString>
        <CharString name="Scircumflex">
          69 -8 109 201.75 116 210.25 109 60.5930023193 133.5 hstem
          258.246002197 302.5 vstem
          258.24609375 798.592773438 rmoveto
          -63 callsubr
          -316.896484375 -912.592773438 rmoveto
          5 callsubr
          endchar
        </CharString>
        <CharString name="T">
          78 21 -21 21 -21 623 109 hstemhm
          hintmask 10100000
          128.149993896 623 rmoveto
          203.5 0 -98.3999938965 -623 116 0 98.3999938965 623 209.5 0 17.6000061035 109 -529 0 rlineto
          endchar
        </CharString>
        <CharString name="Tbar">
          85 21 -21 21 -21 376 61 186 109 hstemhm
          hintmask 10110000
          128.149993896 623 rmoveto
          203.5 0 -29.4499969482 -186 -106 0 -9.39999389648 -61 106 0 -59.5500030518 -376 116 0 59.5500030518 376 106 0 9.39999389648 61 -106 0 29.4499969482 186 209.5 0 17.6000061035 109 -529 0 rlineto
          endchar
        </CharString>
        <CharString name="Tcaron">
          78 0 21 602 109 65 133.5 hstem
          290.389007568 302.5 vstem
          290.388671875 930.5 rmoveto
          7 callsubr
          -243.338867188 -307.5 rmoveto
          8 callsubr
          endchar
        </CharString>
        <CharString name="Tcommaaccent">
          78 -183.600006104 51.6999969482 131.900009155 21 602 109 hstem
          221.800003052 84.5 vstem
          121.450195312 -183.599609375 rmoveto
          54.5 hlineto
          84.2001953125 0 30.1494140625 37.5 16 102 rrcurveto
          -84.5 hlineto
          -6 -38 -6.5 -22.80078125 -30 -12 rrcurveto
          -49.3994140625 -15 rlineto
          -22.80078125 754.900390625 rmoveto
          203.5 0 -98.3994140625 -623 116 0 98.3994140625 623 209.5 0 17.6005859375 109 -529 0 rlineto
          endchar
        </CharString>
        <CharString name="Thorn">
          42 21 -21 21 -21 152.25 105.5 224.100006104 106.149993896 hstemhm
          hintmask 10110000
          50.8999938965 hmoveto
          116 0 27.6499938965 171.899993896 rlineto
          54.3000183105 -21 68.049987793 0.650009155273 42.1000061035 0.699996948242 82.4499969482 1.05000305176 98.5 9.25 27.4499969482 207.899993896 24.1000061035 179.650009155 -98.8000030518 37.8999938965 -67.3000030518 0 rrcurveto
          -165.5 0 22 141 -116 0 rlineto
          -38 -243 -39 -243 -38 -243 rrcurveto
          156.900009155 257.75 rmoveto
          35.1999969482 224.100006104 137.5 0 rlineto
          33.5 0 50.8999938965 -3.60000610352 -15.1499938965 -103 -16.8000030518 -105.699996948 -30.4499969482 -11.8000030518 -57.1999969482 0 rrcurveto
          endchar
        </CharString>
        <CharString name="U">
          147 -5 109 628 -20 hstem
          116.149993896 318.800003052 rmoveto
          -41.299987793 -260.199981689 106.849990845 -63.6000061035 154.199996948 0 200.300003052 0 85.8500061035 96.8000030518 32.8000030518 206 rrcurveto
          65.1999969482 434.199996948 -117 0 -66.9499969482 -423.699996948 rlineto
          -23.1000061035 -147.199981689 -47.75 -57.1000061035 -115.649993896 0 -111.25 0 -31.3500061035 47.8999938965 24.75 156.400009155 rrcurveto
          66.9499969482 423.699996948 -116.649993896 0 rlineto
          endchar
        </CharString>
        <CharString name="Uacute">
          147 -5 109 608 20 65 136.5 hstem
          419.848007202 230.699996948 vstem
          419.84765625 797 rmoveto
          -64 callsubr
          -421.897460938 -614.700195312 rmoveto
          -41 callsubr
          endchar
        </CharString>
        <CharString name="Ubreve">
          147 -5 109 608 20 65 52.6499938965 hstem
          365.541000366 53.3500061035 121.349990845 53.3500061035 vstem
          365.541015625 910.299804688 rmoveto
          39 callsubr
          -302.740234375 -591.5 rmoveto
          -41 callsubr
          endchar
        </CharString>
        <CharString name="Ucircumflex">
          147 -5 109 608 20 65 133.5 hstem
          310.272994995 302.5 vstem
          310.2734375 797 rmoveto
          -40 callsubr
          -326.522460938 -611.700195312 rmoveto
          -41 callsubr
          endchar
        </CharString>
        <CharString name="Udieresis">
          147 -5 109 608 20 65 111.5 hstem
          287.376998901 111.5 143.5 111.5 vstem
          287.376953125 853.25 rmoveto
          -39 callsubr
          255 hmoveto
          -39 callsubr
          -426.2265625 -534.450195312 rmoveto
          -41 callsubr
          endchar
        </CharString>
        <CharString name="Ugrave">
          147 -5 109 608 20 65 136.5 hstem
          307.748001099 195.100006104 vstem
          307.748046875 933.5 rmoveto
          -67 callsubr
          -298.897460938 -614.700195312 rmoveto
          -41 callsubr
          endchar
        </CharString>
        <CharString name="Uhungarumlaut">
          147 -5 109 608 20 65 136.5 hstem
          345.873046875 797 rmoveto
          -64 callsubr
          30.099609375 -136.5 rmoveto
          -64 callsubr
          -496.22265625 -614.700195312 rmoveto
          -41 callsubr
          endchar
        </CharString>
        <CharString name="Umacron">
          147 -5 109 608 20 65 73.5 hstem
          315.518005371 303.75 vstem
          315.517578125 797 rmoveto
          -77 callsubr
          -211.1171875 -551.700195312 rmoveto
          -41 callsubr
          endchar
        </CharString>
        <CharString name="Uogonek">
          147 -183.5 70.5 94 20 -6 109 608 20 hstemhm
          hintmask 11000000
          315.5 1 rmoveto
          20 callsubr
          hintmask 00110000
          -248.849609375 317.799804688 rmoveto
          -41 callsubr
          endchar
        </CharString>
        <CharString name="Uring">
          147 -5 109 608 20 65 54.6499938965 94.3000030518 54.3000030518 hstem
          375.953994751 203 vstem
          375.954101562 898.299804688 rmoveto
          -58 callsubr
          54.349609375 hmoveto
          2.4072265625 26.150390625 23.271484375 21.5 26.1494140625 0 26.150390625 0 18.728515625 -21.5 -2.4072265625 -26.150390625 -2.4052734375 -26.1494140625 -22.21484375 -20.5 -26.150390625 0 -26.150390625 0 -19.7841796875 20.5 2.4052734375 26.1494140625 rrcurveto
          -314.153320312 -579.5 rmoveto
          -41 callsubr
          endchar
        </CharString>
        <CharString name="Utilde">
          147 -5 109 608 20 65.6499938965 82.6000061035 -48.25 82.6000061035 hstemhm
          hintmask 00010000
          298.00390625 847.099609375 rmoveto
          -33 callsubr
          hintmask 00100000
          50 callsubr
          hintmask 00010000
          51 callsubr
          hintmask 11000000
          -181.853515625 -528.299804688 rmoveto
          -41 callsubr
          endchar
        </CharString>
        <CharString name="V">
          173 21 -21 21 -21 732 -20 hstemhm
          hintmask 10100000
          143 732 rmoveto
          123.5 -732 130 0 367.5 732 -130.149993896 0 -279.699996948 -571.350006104 -89.0500030518 571.350006104 rlineto
          endchar
        </CharString>
        <CharString name="W">
          500 21 -21 21 -21 732 -20 hstemhm
          hintmask 10100000
          143 732 rmoveto
          123.5 -732 132.449996948 0 160.25 327.449996948 51.8999938965 -327.449996948 127.199996948 0 353.5 732 -124.050003052 0 -271.550003052 -570.449996948 -53.75 349.949996948 106.899993896 220.5 -126 0 -269.800003052 -566.550003052 -90.3999938965 566.550003052 rlineto
          endchar
        </CharString>
        <CharString name="Wacute">
          500 0 21 691 20 65 136.5 hstem
          586.373001099 230.699996948 vstem
          586.373046875 797 rmoveto
          -64 callsubr
          -561.573242188 -201.5 rmoveto
          95 callsubr
          endchar
        </CharString>
        <CharString name="Wcircumflex">
          500 0 21 691 20 65 133.5 hstem
          461.748001099 302.5 vstem
          461.748046875 797 rmoveto
          -63 callsubr
          -451.1484375 -198.5 rmoveto
          95 callsubr
          endchar
        </CharString>
        <CharString name="Wdieresis">
          500 0 21 691 20 65 111.5 hstem
          457.052001953 111.5 143.5 111.5 vstem
          457.051757812 853.25 rmoveto
          -39 callsubr
          255 hmoveto
          -39 callsubr
          -569.051757812 -121.25 rmoveto
          95 callsubr
          endchar
        </CharString>
        <CharString name="Wgrave">
          500 0 21 691 20 65 136.5 hstem
          474.272994995 195.100006104 vstem
          474.2734375 933.5 rmoveto
          -67 callsubr
          -438.573242188 -201.5 rmoveto
          95 callsubr
          endchar
        </CharString>
        <CharString name="X">
          121 21 -21 21 -21 732 -20 hstemhm
          hintmask 10100000
          34.5 hmoveto
          133.100006104 0 189.199996948 257.100006104 107.699996948 -257.100006104 125.949996948 0 -154.899993896 350.800003052 280.449996948 381.199996948 -133.100006104 0 -196.800003052 -268 -112.649993896 268 -125.949996948 0 159.5 -361.350006104 rlineto
          endchar
        </CharString>
        <CharString name="X.salt">
          134 21 -21 21 -21 732 -20 hstemhm
          hintmask 10100000
          16.8500061035 hmoveto
          134.850006104 0 189.100006104 272.449996948 rlineto
          33.1500091553 43.549987793 -0.699996948242 124.5 -19.1999969482 43 rrcurveto
          -97 248.5 -124.199996948 0 110 -271.5 rlineto
          24.1999969482 -63.5 0.149993896484 -26.8000030518 -41.8499908447 -61.6999969482 rrcurveto
          168.199996948 -36.0500030518 rmoveto
          105.75 -272.449996948 124.199996948 0 -112.5 301.5 rlineto
          -22.5 61.6999969482 9.39999389648 26.8000030518 44.25 63.5 rrcurveto
          197.350006104 278.5 -131.350006104 0 -175.350006104 -248.5 rlineto
          -32.8499908447 -42.3000030518 -25.25 -125.199996948 18.8500061035 -43.5500030518 rrcurveto
          endchar
        </CharString>
        <CharString name="Y">
          140 21 -21 21 -21 732 -20 hstemhm
          hintmask 10100000
          143 732 rmoveto
          148.550003052 -493 -37.8500061035 -239 116 0 37.8500061035 239 323.449996948 493 -133.850006104 0 -229.600006104 -361.050003052 -100 361.050003052 rlineto
          endchar
        </CharString>
        <CharString name="Yacute">
          140 0 21 691 20 65 136.5 hstem
          405.973007202 230.699996948 vstem
          405.97265625 797 rmoveto
          -64 callsubr
          -381.172851562 -201.5 rmoveto
          -38 callsubr
          endchar
        </CharString>
        <CharString name="Ycircumflex">
          140 0 21 691 20 65 133.5 hstem
          296.04800415 302.5 vstem
          296.047851562 797 rmoveto
          -63 callsubr
          -285.448242188 -198.5 rmoveto
          -38 callsubr
          endchar
        </CharString>
        <CharString name="Ydieresis">
          140 0 21 691 20 61.75 111.5 hstem
          244.850006104 111.5 143.5 111.5 vstem
          244.849609375 850 rmoveto
          -49 callsubr
          255 hmoveto
          -49 callsubr
          -384.799804688 -118 rmoveto
          -38 callsubr
          endchar
        </CharString>
        <CharString name="Ygrave">
          140 0 21 691 20 65 136.5 hstem
          293.873001099 195.100006104 vstem
          293.873046875 933.5 rmoveto
          -67 callsubr
          -258.172851562 -201.5 rmoveto
          -38 callsubr
          endchar
        </CharString>
        <CharString name="Z">
          52 0 109 514 109 hstem
          29.75 hmoveto
          500 0 17.6000061035 109 -349.100006104 0 429.899993896 514 17.6000061035 109 -500 0 -17.6000061035 -109 355.75 0 -436.550003052 -514 rlineto
          endchar
        </CharString>
        <CharString name="Zacute">
          52 0 109 514 109 61.75 136.5 hstem
          431.199996948 230.699996948 vstem
          431.200195312 793.75 rmoveto
          -64 callsubr
          -452.05078125 -930.25 rmoveto
          500 0 17.6005859375 109 -349.100585938 0 429.900390625 514 17.599609375 109 -500 0 -17.599609375 -109 355.75 0 -436.549804688 -514 rlineto
          endchar
        </CharString>
        <CharString name="Zcaron">
          52 0 109 514 109 65 133.5 hstem
          276.063995361 302.5 vstem
          276.064453125 930.5 rmoveto
          9 callsubr
          -327.4140625 -930.5 rmoveto
          10 callsubr
          endchar
        </CharString>
        <CharString name="Zdotaccent">
          52 0 109 514 109 65 116 hstem
          354.173995972 122.100006104 vstem
          354.173828125 820 rmoveto
          11 callsubr
          -335.524414062 -888 rmoveto
          10 callsubr
          endchar
        </CharString>
        <CharString name="a">
          34 -6.2998046875 102.350006104 -74.3500061035 -21 21 -21 hstemhm
          hintmask 10000000
          81.1504058838 289.899993896 rmoveto
          -41.0507965088 -226.999588013 77.9504089355 -69.2002105713 107.349990845 0 68.6000061035 0 74.0500030518 35.75 27.25 27.75 rrcurveto
          hintmask 01000000
          17.6499938965 -56.5 88 0 70 478.299804688 rlineto
          -51.0000152588 49 -126.550003052 18.8500061035 -74.1999969482 -5.85000610352 rrcurveto
          -89.6999969482 -6.5 -108.5 -25.8500061035 -39.8495941162 -218.75 rrcurveto
          112.649597168 -25.9499969482 rmoveto
          24.3500061035 154.599990845 47.200012207 14 52.3999938965 10.25 33.6499938965 6.94999694824 54.9000091553 -5.89999389648 41.8000030518 -12.8500061035 rrcurveto
          -43.25 -285.550003052 rlineto
          hintmask 10000000
          -45.25 -30.4000091553 -36.9000091553 -19.0001983643 -64.75 0 -68.1999969482 0 -13.75 53.7001953125 17.8000030518 114.199996948 rrcurveto
          endchar
        </CharString>
        <CharString name="a.salt">
          34 -7.349609375 95.6494140625 353.300201416 94.1499938965 hstem
          81.0995941162 279 rmoveto
          -32.6494140625 -215.599594116 71.199798584 -70.7500152588 129.550003052 0 32.5500030518 0 204.600006104 11.3994140625 19.9499969482 12.25 rrcurveto
          61.3500061035 462.700195312 rlineto
          -47.0999908447 26.6499938965 -86.1000061035 30.1000061035 -105.099990845 0 -149.25 0 -71.6000061035 -59.5500030518 -27.4004058838 -197.199996948 rrcurveto
          114.950408936 -20.4499969482 rmoveto
          19.950012207 147.100006104 31.1000061035 35.950012207 85.0999908447 0 34.8000030518 0 41.6499938965 -8.90000915527 37.9000091553 -9.25 rrcurveto
          -46.5500030518 -331.249801636 rlineto
          0 -91.8500061035 -3.900390625 -48.0999908447 vhcurveto
          -68.0500030518 0 -11.8000030518 51.100189209 15.8500061035 119.150009155 rrcurveto
          endchar
        </CharString>
        <CharString name="a.smcp">
          94 21 -21 21 -21 129.25 98.5 hstemhm
          hintmask 10100000
          29.75 hmoveto
          126.899993896 0 66.6000061035 129.25 206.399993896 0 27.6000061035 -129.25 114.5 0 -106.5 570 -133.5 0 rlineto
          -59.1499938965 -342.25 rmoveto
          105.649993896 197.5 38.3999938965 -197.5 rlineto
          endchar
        </CharString>
        <CharString name="a.superior">
          -105 362.25 80.25 215.600006104 74.8000030518 hstem
          109.699996948 562.800003052 rmoveto
          -25.1000061035 -146.349990845 50.3499908447 -54.1999969482 75.6999969482 0 58.8500061035 0 49.1000061035 29.8500061035 18.9499969482 24.9499969482 rrcurveto
          16.8000030518 -49.8000030518 63.6499938965 0 47.3000030518 321.649993896 rlineto
          -34.6999816895 33 -102.050003052 13.6000061035 -53.1999969482 -2.60000610352 -58.0500030518 -2.59999084473 -81.1000061035 -17.8500061035 -26.5 -149.649993896 rrcurveto
          85.6000061035 -11 rmoveto
          12.8500061035 90.3500061035 38.5 12.6000061035 25.8500061035 3.35000610352 23.3999938965 3 41.950012207 -3.30000305176 31.8999938965 -8.55000305176 rrcurveto
          -25.75 -167 rlineto
          -30.6000061035 -21.6000061035 -39.5 -18.1499938965 -41 0 -42.75 0 -6.04998779297 34.1499938965 11.1999969482 75.1500091553 rrcurveto
          endchar
        </CharString>
        <CharString name="aacute">
          34 -6.2998046875 102.350006104 -95.3500061035 21 580.581710815 136.5 hstemhm
          320.417007446 230.699996948 hintmask 00110000
          320.416992188 602.282226562 rmoveto
          -64 callsubr
          hintmask 10000000
          -357.466796875 -448.881835938 rmoveto
          -37 callsubr
          hintmask 01000000
          -36 callsubr
          112.649414062 -25.9501953125 rmoveto
          -35 callsubr
          hintmask 10000000
          -34 callsubr
          endchar
        </CharString>
        <CharString name="aacute.salt">
          34 -7.349609375 95.6494140625 353.300201416 94.1499938965 64.5500030518 136.5 hstem
          313.550003052 230.699996948 vstem
          313.549804688 600.299804688 rmoveto
          -64 callsubr
          -350.650390625 -457.799804688 rmoveto
          102 callsubr
          114.950195312 -20.4501953125 rmoveto
          103 callsubr
          endchar
        </CharString>
        <CharString name="aacute.smcp">
          94 0 21 108.25 98.5 402.25 136.5 hstem
          366.60899353 230.699996948 vstem
          366.609375 630 rmoveto
          -28 callsubr
          -455.05859375 -766.5 rmoveto
          65 callsubr
          -59.150390625 -342.25 rmoveto
          66 callsubr
          endchar
        </CharString>
        <CharString name="abreve">
          34 -6.2998046875 102.350006104 -95.3500061035 21 581.281707764 52.6499938965 hstemhm
          259.11000061 53.3500061035 121.349990845 53.3500061035 hintmask 00111000
          259.110351562 716.282226562 rmoveto
          -6 -71.900390625 50.849609375 -41.400390625 58.599609375 0 69.7001953125 0 45.650390625 36.8505859375 9.25 76.4501953125 rrcurveto
          -53.3505859375 hlineto
          -5.8994140625 -42.9501953125 -23.75 -18.3505859375 -41.25 0.650390625 -32.650390625 0 -22.75 22.2001953125 4.9501953125 38.4501953125 rrcurveto
          hintmask 10000000
          -231.309570312 -426.381835938 rmoveto
          -37 callsubr
          hintmask 01000000
          -36 callsubr
          112.649414062 -25.9501953125 rmoveto
          -35 callsubr
          hintmask 10000000
          -34 callsubr
          endchar
        </CharString>
        <CharString name="abreve.salt">
          34 -7.349609375 95.6494140625 353.300201416 94.1499938965 61.3000030518 52.6499938965 hstem
          254.007003784 53.3500061035 121.349990845 53.3500061035 vstem
          254.006835938 710.349609375 rmoveto
          40 callsubr
          -226.2578125 -431.349609375 rmoveto
          102 callsubr
          114.950195312 -20.4501953125 rmoveto
          103 callsubr
          endchar
        </CharString>
        <CharString name="abreve.smcp">
          94 0 21 108.25 98.5 402.25 52.6499938965 hstem
          305.800994873 53.3500061035 121.350006104 53.3500061035 vstem
          305.80078125 743.299804688 rmoveto
          35 callsubr
          -329.401367188 -743.299804688 rmoveto
          65 callsubr
          -59.150390625 -342.25 rmoveto
          66 callsubr
          endchar
        </CharString>
        <CharString name="acircumflex">
          34 -6.2998046875 102.350006104 -95.3500061035 21 580.581710815 133.5 hstemhm
          204.341995239 302.5 hintmask 00110000
          204.341796875 602.282226562 rmoveto
          -63 callsubr
          hintmask 10000000
          -255.591796875 -445.881835938 rmoveto
          -37 callsubr
          hintmask 01000000
          -36 callsubr
          112.649414062 -25.9501953125 rmoveto
          -35 callsubr
          hintmask 10000000
          -34 callsubr
          endchar
        </CharString>
        <CharString name="acircumflex.salt">
          34 -7.349609375 95.6494140625 353.300201416 94.1499938965 61.3000030518 133.5 hstem
          207.039993286 302.5 vstem
          207.040039062 597.049804688 rmoveto
          -63 callsubr
          -258.340820312 -451.549804688 rmoveto
          102 callsubr
          114.950195312 -20.4501953125 rmoveto
          103 callsubr
          endchar
        </CharString>
        <CharString name="acircumflex.smcp">
          94 0 21 108.25 98.5 402.25 133.5 hstem
          257.033996582 302.5 vstem
          257.034179688 630 rmoveto
          -27 callsubr
          -359.68359375 -763.5 rmoveto
          65 callsubr
          -59.150390625 -342.25 rmoveto
          66 callsubr
          endchar
        </CharString>
        <CharString name="acute">
          -265 531 136.5 hstem
          100.850006104 230.699996948 vstem
          100.850006104 531 rmoveto
          -72 callsubr
          endchar
        </CharString>
        <CharString name="acute.smcp">
          -265 531 136.5 hstem
          100.850006104 230.699996948 vstem
          100.850006104 531 rmoveto
          -72 callsubr
          endchar
        </CharString>
        <CharString name="adieresis">
          34 -6.2998046875 102.350006104 -95.3500061035 21 580.581710815 111.5 hstemhm
          181.095306396 111.5 143.5 111.5 hintmask 00111000
          181.095703125 658.532226562 rmoveto
          -32 callsubr
          255 hmoveto
          -32 callsubr
          hintmask 10000000
          -354.9453125 -368.631835938 rmoveto
          -37 callsubr
          hintmask 01000000
          -36 callsubr
          112.649414062 -25.9501953125 rmoveto
          -35 callsubr
          hintmask 10000000
          -34 callsubr
          endchar
        </CharString>
        <CharString name="adieresis.salt">
          34 -7.349609375 95.6494140625 353.300201416 94.1499938965 61.3000030518 111.5 hstem
          179.492599487 111.5 143.5 111.5 vstem
          179.4921875 653.299804688 rmoveto
          -49 callsubr
          255 hmoveto
          -49 callsubr
          -353.392578125 -374.299804688 rmoveto
          102 callsubr
          114.950195312 -20.4501953125 rmoveto
          103 callsubr
          endchar
        </CharString>
        <CharString name="adieresis.smcp">
          94 0 21 108.25 98.5 402.25 111.5 hstem
          234.13659668 111.5 143.5 111.5 vstem
          234.13671875 686.25 rmoveto
          -59 callsubr
          255 hmoveto
          -59 callsubr
          -459.38671875 -686.25 rmoveto
          65 callsubr
          -59.150390625 -342.25 rmoveto
          66 callsubr
          endchar
        </CharString>
        <CharString name="ae">
          361 -7 102.350006104 347.149993896 98.5 hstem
          53.4499969482 290.050003052 rmoveto
          -41.700012207 -218.549987793 77.3000030518 -78.5 108.349990845 0 61.6000061035 0 94.5500030518 27.1000061035 40.8000030518 42.549987793 21.75 -44.549987793 40.299987793 -23.3500061035 60.1500091553 -1.75 100.849990845 -4.19999694824 80.6000061035 9.5 81.5500030518 23.6999969482 rrcurveto
          14.25 84 rlineto
          -67.8499908447 -10.6499938965 -92.1499938965 -9 -65.5 3.89999389648 -71 0.649993896484 -19.3500061035 27.1500091553 16.1000061035 96.6999969482 37 -15 304.399993896 -45.4499969482 19.9499969482 233.699996948 10.8000030518 119.850006104 -98.8999938965 33.5 -118.650009155 -0.350006103516 -71.3499908447 -0.350006103516 -46.3000030518 -12.5 -36.6499938965 -23.6999969482 -55.0500030518 28.9499969482 -95.5500030518 12.8000030518 -57.4499969482 -5.19999694824 rrcurveto
          -89.6999969482 -6.5 -100.050003052 -18.5500030518 -43.1000061035 -225.899993896 rrcurveto
          112.350006104 -26.8000030518 rmoveto
          24.3500061035 154.600006104 47.5 14.6999969482 51.75 10.25 32.3000030518 6.59999084473 62.25 -9.09999084473 43.1999969482 -12.5 -19.3499908447 -35.6500091553 -11.5500030518 -46.1499938965 -10.1999969482 -54 -11.3000030518 -60.8000030518 -4.30000305176 -51.8999938965 3.94999694824 -42.3000030518 -23.9499969482 -25.8000030518 -66.8000030518 -16.5 -54.049987793 0.650009155273 -74.0500030518 0.649993896484 -7.55000305176 53.0500030518 17.8000030518 114.199996948 rrcurveto
          338.349990845 30 rmoveto
          14.8000030518 74.8999938965 8.69999694824 73.6500091553 118.050003052 0.699996948242 68 0.350006103516 33.8500061035 -9.75 -9.90000915527 -57.3500061035 -19.1499938965 -112.100006104 -214.350006104 29.6000061035 0 0 rrcurveto
          endchar
        </CharString>
        <CharString name="ae.smcp">
          262 -2.35000610352 105.5 -90.75 90.1000061035 44.75 89.5500030518 -7.75 104 -96.3500061035 89 139.800003052 104.5 -104.5 90.75 hstemhm
          hintmask 10100000
          19.5 hmoveto
          131.300003052 0 90.6499938965 147.25 131.399993896 0 -8.14999389648 -55.75 rlineto
          -9.45001220703 -65 42.8000030518 -30.5 58.5999908447 1.64999389648 rrcurveto
          hintmask 01000000
          0 0 238.450012207 5.65000915527 41.299987793 9.09999084473 rrcurveto
          14.25 90.1000061035 rlineto
          hintmask 10010000
          -230.850006104 0.649993896484 rlineto
          -21.6499938965 0 -15.299987793 1.70001220703 5 29.6499938965 rrcurveto
          14.6499938965 94.5500030518 rlineto
          hintmask 00001000
          235.300003052 7.64999389648 13.5500030518 89 rlineto
          hintmask 00010100
          -232.300003052 7.35000610352 16.3000030518 100.100006104 rlineto
          4.64999389648 22.0500030518 3 10.3000030518 30.6499938965 0 rrcurveto
          234.5 0 rlineto
          hintmask 00000010
          14.25 90.75 rlineto
          hintmask 10100100
          -31.5 5.94999694824 -231 7.80000305176 0 0 -94 -1 -102.5 -2.60000610352 -58.3999938965 -97.3499908447 rrcurveto
          -10.8500061035 -232.25 rmoveto
          126.149993896 207.199996948 -34.3000030518 -207.199996948 rlineto
          endchar
        </CharString>
        <CharString name="afii61289">
          -74 0.350006103516 75.9499969482 hstem
          64.8000030518 251.5 rmoveto
          16.4499969482 -53.3500061035 rlineto
          12 6 12.0500030518 6.35000610352 11 7 rrcurveto
          -3.60000610352 -32.6999969482 rlineto
          -17.1000061035 -131.749984741 52.25 -52.6999969482 95.6999969482 0 rrcurveto
          106.5 0 12.1499938965 75.9499969482 rlineto
          -3.10000610352 1.52587890625e-05 -65.950012207 15.5500030518 0 0 -63.8499908447 12.1499938965 -8.65000915527 23.1000061035 12.25 83.25 rrcurveto
          9.10000610352 69.6499938965 rlineto
          102.050003052 72.5 111.800003052 111.100006104 16.799987793 113.399993896 15.200012207 99.1499938965 -52 59.6000061035 -81.75 3.25 -101.100006104 3.25 -61.3000030518 -52 -13.8000030518 -86.25 rrcurveto
          -47.4499969482 -296.5 rlineto
          -22.0000152588 -20 -21.6499938965 -19 -22 -17 rrcurveto
          197.75 158.5 rmoveto
          32.4499969482 192.550003052 rlineto
          9 57.0000152588 67.3500061035 -14.1500091553 -1.75 -36.8999938965 4.54998779297 -55.3999938965 -46.3999938965 -72.4000091553 -65.1999969482 -70.6999969482 rrcurveto
          endchar
        </CharString>
        <CharString name="afii61352">
          582 21 -21 21 -21 381 86.5 178 89.1499938965 hstemhm
          813.550003052 90 hintmask 10111000
          60.8000030518 hmoveto
          113.75 0 97.4499969482 615.949996948 rlineto
          3 16.9999847412 27.8999938965 5.35000610352 2.25 -15.3500061035 rrcurveto
          100.199996948 -523.899993896 rlineto
          13 -142.149993896 216.899993896 10.6000061035 20.6000061035 132.649993896 0 0 53.8499908447 338.550003052 18.8500061035 117.650009155 11 69.6499938965 37.5500030518 19.5 68.1999969482 0 66.75 0 92 -1 0 0 46.8499908447 -1.30000305176 15.9000091553 -6 -13.1500091553 -84.1999969482 -12.5 -80.3000030518 -23.1499938965 -5.19999694824 -37 0 rrcurveto
          -40 hlineto
          -37 0 -20.5 5.30000305176 20.0500030518 128.199996948 rrcurveto
          -90 hlineto
          -27.9999847412 -176 46.5 -42.25 97.1499938965 -1.75 rrcurveto
          52 hlineto
          122.649993896 1.75 21.75 56.6000061035 18.049987793 113.649993896 20.0500030518 127.300003052 -31.3999938965 53.6999969482 -96.1500091553 0 0 0 -179.399993896 0.649993896484 -48.1000061035 0 -96.8499908447 -0.699996948242 -77.8000030518 -43.9499969482 -19.3500061035 -123.050003052 -18.1999969482 -115.050003052 -51.8999938965 -330.599990845 0 0 -2 -15 -24.3000030518 -6.69999694824 -2.89999389648 18.6999969482 rrcurveto
          -100.850006104 531.25 rlineto
          -11.75 126.250015259 -221.449996948 -5.35000610352 -22.3000030518 -140.5 rrcurveto
          endchar
        </CharString>
        <CharString name="agrave">
          34 -6.2998046875 102.350006104 -95.3500061035 21 580.581710815 136.5 hstemhm
          201.817001343 195.100006104 hintmask 00110000
          201.817382812 738.782226562 rmoveto
          -67 callsubr
          hintmask 10000000
          -227.966796875 -448.881835938 rmoveto
          -37 callsubr
          hintmask 01000000
          -36 callsubr
          112.649414062 -25.9501953125 rmoveto
          -35 callsubr
          hintmask 10000000
          -34 callsubr
          endchar
        </CharString>
        <CharString name="agrave.salt">
          34 -7.349609375 95.6494140625 353.300201416 94.1499938965 64.5500030518 136.5 hstem
          188.199996948 195.100006104 vstem
          188.200195312 736.799804688 rmoveto
          -67 callsubr
          -214.400390625 -457.799804688 rmoveto
          102 callsubr
          114.950195312 -20.4501953125 rmoveto
          103 callsubr
          endchar
        </CharString>
        <CharString name="agrave.smcp">
          94 0 21 108.25 98.5 402.25 136.5 hstem
          254.509002686 195.100006104 vstem
          254.508789062 766.5 rmoveto
          -50 callsubr
          -332.05859375 -766.5 rmoveto
          65 callsubr
          -59.150390625 -342.25 rmoveto
          66 callsubr
          endchar
        </CharString>
        <CharString name="amacron">
          34 -6.2998046875 102.350006104 -95.3500061035 21 580.581710815 73.5 hstemhm
          209.774093628 303.75 hintmask 00110000
          209.774414062 602.282226562 rmoveto
          -77 callsubr
          hintmask 10000000
          -140.374023438 -385.881835938 rmoveto
          -37 callsubr
          hintmask 01000000
          -36 callsubr
          112.649414062 -25.9501953125 rmoveto
          -35 callsubr
          hintmask 10000000
          -34 callsubr
          endchar
        </CharString>
        <CharString name="amacron.salt">
          34 -7.349609375 95.6494140625 353.300201416 94.1499938965 61.3000030518 73.5 hstem
          216.98399353 303.75 vstem
          216.984375 597.049804688 rmoveto
          -77 callsubr
          -147.634765625 -391.549804688 rmoveto
          102 callsubr
          114.950195312 -20.4501953125 rmoveto
          103 callsubr
          endchar
        </CharString>
        <CharString name="amacron.smcp">
          94 0 21 108.25 98.5 402.25 73.5 hstem
          260.878005981 303.75 vstem
          260.877929688 630 rmoveto
          -77 callsubr
          -242.877929688 -703.5 rmoveto
          65 callsubr
          -59.150390625 -342.25 rmoveto
          66 callsubr
          endchar
        </CharString>
        <CharString name="ampersand">
          148 21 -21 21 -21 628.399993896 81.6000061035 hstemhm
          hintmask 10100000
          88.3999938965 81.8000030518 rmoveto
          66.6000061035 -108.799987793 145.449996948 2.35000610352 73.1500091553 62 rrcurveto
          74.6999969482 63.1499938965 58.3500061035 -100.5 125 0 -95.9499969482 164.600006104 46.9499969482 44.9499969482 70.6499938965 120.100006104 -35.1999969482 43.8000030518 -134.75 -118.25 -153.399993896 266.600006104 rlineto
          -47.700012207 83.5000152588 36.6499938965 23.0999908447 82.5 0 rrcurveto
          178.5 0 13.25 81.6000061035 rlineto
          -87.1999969482 20.25 -77.0999908447 11.3500061035 -112 -13.5500030518 -85.1000061035 -9.80000305176 -83.8999938965 -96.9499969482 63.9499969482 -110.25 rrcurveto
          43.0500030518 -75.1999969482 -92.1999969482 -70.1999969482 rlineto
          -104.75 -79.3499908447 -30.3999938965 -106.100006104 60.8999938965 -98.3999938965 rrcurveto
          94.6000061035 61.5 rmoveto
          -28.5 41.6500091553 3.80000305176 51.1500091553 71.4499969482 54.049987793 rrcurveto
          72.6999969482 54.4499969482 93.3999938965 -156.850006104 -69.6499938965 -60.6499938965 rlineto
          -49.6500091553 -42.950012207 -61.6500091553 12.0500030518 -31.8999938965 47.1000061035 rrcurveto
          endchar
        </CharString>
        <CharString name="ampersand.salt">
          459 -0.699996948242 100.949996948 60.8000030518 92.9499969482 72.3999938965 93.6000061035 56.1999969482 100.300003052 -80.3000030518 79.6000061035 hstemhm
          hintmask 11101000
          85.8500061035 314.350006104 rmoveto
          -16.8500061035 -107.400009155 71.25 -47.6999969482 93.6000061035 0 -16.4000091553 -128.050003052 98.5 -31.5500030518 93.9499969482 -0.349990844727 rrcurveto
          161.399993896 hlineto
          125.050018311 1.52587890625e-05 131.149993896 28.6999969482 26.8000030518 168.449996948 rrcurveto
          43 280.100006104 130 19.6499938965 12.8500061035 79.6000061035 -127 0 20.8999938965 134.300003052 -98 0 rlineto
          hintmask 11110000
          -38.8999938965 -133.600006104 -434 0 rlineto
          -153.25 -0.699996948242 -87.3999938965 -14.8000030518 -23.6999969482 -159.75 rrcurveto
          102.699996948 -90.75 rmoveto
          13.3000030518 83.75 rlineto
          11.6000061035 71.5500030518 29.6500091553 9.09999084473 94.3999938965 1.30000305176 rrcurveto
          430.5 0 -42.3000030518 -268.199996948 rlineto
          -10.9499969482 -69.6999969482 -57.8499908447 -38.0500030518 -83 0 rrcurveto
          -162.25 hlineto
          -43.9000091553 1.94999694824 -38.6499938965 -1.25 8.5 60.1000061035 rrcurveto
          158.949996948 hlineto
          106 1.52587890625e-05 57.5 6.05000305176 18.3999938965 115.449996948 16.450012207 117.649993896 -86.3500061035 19.8000030518 -70.1499938965 0 rrcurveto
          -94 hlineto
          -116.25 0 -73.0500030518 -43.8999938965 -19.3500061035 -121.400009155 -40.0999908447 0.650009155273 -14.4000091553 11.6999969482 7.30000305176 43.4499969482 rrcurveto
          163.199996948 -56.5 rmoveto
          11.1999816895 67.1999969482 26.200012207 5.19999694824 43.9499969482 0 rrcurveto
          88.75 hlineto
          40.200012207 0 6.05000305176 -5.25 -4.60000610352 -30.8999938965 -5.59999084473 -36.1499938965 -12.5 -0.100006103516 -35.4000091553 0 rrcurveto
          endchar
        </CharString>
        <CharString name="ampersand.smcp">
          55 21 -21 21 -21 470.899993896 81 hstemhm
          hintmask 10100000
          74.9499969482 75.0500030518 rmoveto
          54.3999938965 -104.399993896 131.049987793 12.6000061035 62.700012207 47.4499969482 rrcurveto
          49.6499938965 41 43.1999969482 -71.6999969482 121.800003052 0 -82.0500030518 134.300003052 29.6000061035 25.1000061035 62.0500030518 90.8500061035 -38.25 49.5500030518 -105.649993896 -79.3500061035 -108.199996948 187.75 rlineto
          -22.25 37.8499908447 14.6000061035 24.8499908447 51.299987793 0 rrcurveto
          130.699996948 0 13.1999969482 81 rlineto
          -68.0999908447 17.9000091553 -67.0999908447 7.69999694824 -79.9000091553 -7.80000305176 -67.1499938965 -6.80000305176 -68.5500030518 -78.6999969482 52.5 -90.3999938965 rrcurveto
          22.5 -38.3999938965 -65.5500030518 -49.3500061035 rlineto
          -84.2500152588 -63.9999847412 -30.5 -75.6500091553 48.25 -91.3499908447 rrcurveto
          95.5 53 rmoveto
          -16.8000183105 26.700012207 -7.59999084473 34.0500030518 50.75 37.3000030518 rrcurveto
          58.3999938965 41.8999938965 65.25 -109.899993896 -54.1499938965 -44.5 rlineto
          -43.6999816895 -33.1500091553 -34.3500061035 19.6000061035 -17.8000030518 28 rrcurveto
          endchar
        </CharString>
        <CharString name="aogonek">
          -3 -184.149993896 70.5 94 20 -6.64981079102 102.350006104 -95.3500061035 21 hstemhm
          hintmask 11000000
          418 0.349609375 rmoveto
          3 callsubr
          hintmask 00100000
          -400.649414062 289.55078125 rmoveto
          -41.05078125 -227 77.9501953125 -69.2001953125 107.349609375 0 68.6005859375 0 74.0498046875 35.75 27.25 27.75 rrcurveto
          hintmask 00010000
          17.650390625 -56.5 88 0 70 478.299804688 rlineto
          -51 49 -126.55078125 18.849609375 -74.19921875 -5.849609375 rrcurveto
          -89.7001953125 -6.5 -108.5 -25.849609375 -39.849609375 -218.75 rrcurveto
          112.649414062 -25.9501953125 rmoveto
          24.349609375 154.599609375 47.2001953125 14 52.400390625 10.25 33.6494140625 6.9501953125 54.900390625 -5.900390625 41.7998046875 -12.849609375 rrcurveto
          -43.25 -285.549804688 rlineto
          hintmask 00100000
          -34 callsubr
          endchar
        </CharString>
        <CharString name="aogonek.salt">
          113 -168.199996948 70.5 90.3503875732 95.6494140625 -91.9998016357 20 425.300003052 94.1499938965 hstemhm
          hintmask 10100000
          453.799804688 16.2998046875 rmoveto
          82 callsubr
          hintmask 01010000
          -422.200195312 262.700195312 rmoveto
          102 callsubr
          114.950195312 -20.4501953125 rmoveto
          103 callsubr
          endchar
        </CharString>
        <CharString name="aogonek.smcp">
          160 -184.149993896 70.5 94 20 -0.350006103516 21 108.25 98.5 hstemhm
          hintmask 11000000
          497.599609375 0.349609375 rmoveto
          55 callsubr
          hintmask 00110000
          -517.349609375 -0.349609375 rmoveto
          65 callsubr
          -59.150390625 -342.25 rmoveto
          66 callsubr
          endchar
        </CharString>
        <CharString name="approxequal">
          10 201.300003052 89 -51 88 53.4499969482 89 -51 88 hstemhm
          hintmask 10000000
          82.3500061035 256.300003052 rmoveto
          12.5500030518 -55 rlineto
          hintmask 01000000
          50.6500091553 15.0000152588 28.3499908447 23 51 0 rrcurveto
          hintmask 10000000
          60 0 28.25 -38 54.75 0 60.700012207 0 47.0999908447 41.8499908447 42.3000030518 31.200012207 rrcurveto
          -14.6499938965 54.9499969482 rlineto
          -47.9000091553 -21.1499938965 -25.0999908447 -17.8499908447 -47 0 rrcurveto
          hintmask 01000000
          -60 0 -23 37 -60 0 rrcurveto
          -64 0 -51.450012207 -38.3500061035 -42.549987793 -32.6499938965 rrcurveto
          28.3499908447 179.449996948 rmoveto
          hintmask 00100000
          12.5500030518 -55 rlineto
          hintmask 00010000
          50.6499938965 15 28.3500061035 23 51 0 rrcurveto
          hintmask 00100000
          60 0 28.25 -38 54.75 0 60.6999969482 0 47.1000061035 41.8500061035 42.3000030518 31.1999969482 rrcurveto
          -14.6499938965 54.9499969482 rlineto
          -47.9000091553 -21.1499938965 -24.75 -17.8500061035 -47 0 rrcurveto
          hintmask 00010000
          -60 0 -23.3500061035 37 -60 0 -64 0 -51.4499969482 -38.3500061035 -42.5500030518 -32.6499938965 rrcurveto
          endchar
        </CharString>
        <CharString name="aring">
          34 -6.2998046875 102.350006104 -95.3500061035 21 580.581710815 54.6499938965 94.3000030518 54.3000030518 hstemhm
          276.712997437 203 hintmask 00111000
          276.712890625 703.58203125 rmoveto
          -31 callsubr
          54.3505859375 hmoveto
          2.40625 26.1494140625 23.271484375 21.5 26.1494140625 0 26.150390625 0 18.728515625 -21.5 -2.40625 -26.1494140625 -2.40625 -26.150390625 -22.21484375 -20.5 -26.150390625 0 -26.1494140625 0 -19.78515625 20.5 2.40625 26.150390625 rrcurveto
          hintmask 10000000
          -249.913085938 -413.681640625 rmoveto
          -37 callsubr
          hintmask 01000000
          -36 callsubr
          112.649414062 -25.9501953125 rmoveto
          -35 callsubr
          hintmask 10000000
          -34 callsubr
          endchar
        </CharString>
        <CharString name="aring.salt">
          34 -7.349609375 95.6494140625 353.300201416 94.1499938965 61.3000030518 54.6499938965 94.3000030518 54.3000030518 hstem
          274.421005249 203 vstem
          274.420898438 698.349609375 rmoveto
          -4.9912109375 -57 43.091796875 -44.2998046875 56 0 56 0 47.908203125 44.2998046875 4.9912109375 57 4.9912109375 57 -41.68359375 44.9501953125 -56 0 -56 0 -49.31640625 -44.9501953125 -4.9912109375 -57 rrcurveto
          54.3505859375 hmoveto
          2.40625 26.150390625 23.271484375 21.5 26.1494140625 0 26.150390625 0 18.728515625 -21.5 -2.40625 -26.150390625 -2.40625 -26.1494140625 -22.21484375 -20.5 -26.150390625 0 -26.1494140625 0 -19.78515625 20.5 2.40625 26.1494140625 rrcurveto
          -247.671875 -419.349609375 rmoveto
          102 callsubr
          114.950195312 -20.4501953125 rmoveto
          103 callsubr
          endchar
        </CharString>
        <CharString name="aring.smcp">
          94 0 21 108.25 98.5 337.050003052 54.6499938965 94.3000030518 54.3000030518 hstem
          305.089996338 203 vstem
          305.08984375 666.099609375 rmoveto
          -31 callsubr
          54.3505859375 hmoveto
          2.40625 26.150390625 23.271484375 21.5 26.1494140625 0 26.150390625 0 18.7294921875 -21.5 -2.4072265625 -26.150390625 -2.40625 -26.1494140625 -22.21484375 -20.5 -26.150390625 0 -26.1494140625 0 -19.78515625 20.5 2.40625 26.1494140625 rrcurveto
          -329.690429688 -666.099609375 rmoveto
          65 callsubr
          -59.150390625 -342.25 rmoveto
          66 callsubr
          endchar
        </CharString>
        <CharString name="asciicircum">
          -120 531 134.149993896 hstem
          126.300003052 302.5 vstem
          126.300003052 531 rmoveto
          100.800003052 0 73.3500061035 69.8500061035 44.6499938965 -69.8500061035 83.6999969482 0 -78.1000061035 134.149993896 -92 0 rlineto
          endchar
        </CharString>
        <CharString name="asciitilde">
          -82 531 85.1999969482 -50.1999969482 85.1999969482 hstemhm
          hintmask 10000000
          133.699996948 581.100006104 rmoveto
          -85 callsubr
          hintmask 01000000
          -84 callsubr
          hintmask 10000000
          -83 callsubr
          hintmask 01000000
          -82 callsubr
          endchar
        </CharString>
        <CharString name="asterisk">
          -76 538 -20 43 81 -76 50.5 120.350006104 -20 hstemhm
          hintmask 10110000
          131.300003052 566 rmoveto
          hintmask 11010000
          143 -5 8.05000305176 81 rlineto
          hintmask 10110000
          -106 callsubr
          29.6000061035 -201.100006104 rmoveto
          44.8000030518 -15.1499938965 76.8500061035 131.75 -76.3000030518 19.4499969482 rlineto
          56.75 -81.4000091553 rmoveto
          117.550003052 -62.75 34.3999938965 40.3999938965 -96.3999938965 90.3000030518 rlineto
          -43.5999908447 180.75 rmoveto
          22.5500030518 -134.75 80 32.0500030518 -51.3999938965 120.800003052 rlineto
          -0.200012207031 -165.850006104 rmoveto
          41.8000030518 -61.9499969482 109.850006104 97 -19.6499938965 42.6999969482 rlineto
          endchar
        </CharString>
        <CharString name="asterisk.smcp">
          -76 397.75 81 -76 50.5 hstemhm
          hintmask 01000000
          105.600006104 402.75 rmoveto
          hintmask 10000000
          142.350006104 -5 8.69999694824 81 rlineto
          hintmask 01000000
          -106 callsubr
          28.9499969482 -201.100006104 rmoveto
          44.8000030518 -15.1499938965 77.5 131.75 -76.3000030518 19.4499969482 rlineto
          56.7500152588 -81.4000091553 rmoveto
          117.550003052 -62.75 34.3999938965 40.3999938965 -96.3999938965 90.9499969482 rlineto
          -43.6000061035 180.100006104 rmoveto
          22.5500030518 -134.100006104 80 31.3999938965 -51.3999938965 120.800003052 rlineto
          -0.199996948242 -165.200012207 rmoveto
          41.8000030518 -62.6000061035 109.850006104 97 -20.3000030518 42.6999969482 rlineto
          endchar
        </CharString>
        <CharString name="at">
          379 -186 98.5 -71.5 71.5 83.5 98.5 -91.5 98.5 345.699996948 97.5 68.8000030518 99.5 hstemhm
          hintmask 10001100
          55.6000061035 26.5 rmoveto
          -17.700012207 -113.300003052 48.450012207 -99.1999969482 142.149993896 0 rrcurveto
          94.5 hlineto
          hintmask 01001100
          -95 callsubr
          hintmask 10011100
          -386 hlineto
          -86 0 -9.05000305176 50 9 57 rrcurveto
          77.1499938965 487.5 rlineto
          6.39999389648 40.1000061035 17.9499969482 66.3999938965 95 0 rrcurveto
          368 hlineto
          50.8500061035 0 38.25 -4.44999694824 -14.9499969482 -102.050003052 rrcurveto
          -47.0500030518 -315.5 rlineto
          -12.6499938965 -81 -25.8500061035 -9 -48 0 rrcurveto
          54.8000030518 378.75 rlineto
          -51.0000152588 49 -88.1999969482 15.4499969482 -87.4499969482 0 -84.5 0 -107 -42.3999938965 -34 -221.350006104 rrcurveto
          hintmask 00101100
          -31.5500030518 -209.5 67.6499938965 -75.3499908447 115.900009155 -0.100006103516 73 -0.0500030517578 43.25 33.4000091553 25.3999938965 30.1499938965 rrcurveto
          hintmask 10011100
          23.3500061035 -56.5 78.5 0 rlineto
          144.000015259 0 29.8999938965 91.4499969482 10.1500091553 69.0500030518 rrcurveto
          50.1999969482 336.5 rlineto
          18.7500152588 126.300003052 -40.75 86.6999969482 -131.650009155 0 rrcurveto
          -368 hlineto
          -143.949996948 0 -72.6499938965 -66.75 -20.25 -125.25 rrcurveto
          225.300003052 -260 rmoveto
          20.1999969482 153.850006104 52.8499908447 32.3499908447 53.75 0 35.700012207 0 39.6499938965 -0.349990844727 49.1499938965 -11.8000030518 rrcurveto
          -43.3000030518 -277.050003052 rlineto
          hintmask 00101100
          -43.6500091553 -48.3000030518 -39.5500030518 -15.1499938965 -55 -0.0500030517578 -75.1999969482 -0.399993896484 -9.09999084473 55.1499938965 14.5 111.75 rrcurveto
          endchar
        </CharString>
        <CharString name="at.alt">
          286 -110 98.5 -71.5 71.5 83.5 98.5 -91.5 98.5 345.699996948 97.5 68.8000030518 99.5 hstemhm
          hintmask 10001100
          69.6999969482 102.5 rmoveto
          -17.700012207 -113.300003052 48.4499969482 -99.1999969482 142.150009155 0 rrcurveto
          94.5 hlineto
          hintmask 01001100
          -95 callsubr
          hintmask 10011100
          -386 hlineto
          -86.0000152588 0 -9.05000305176 50 9 57 rrcurveto
          77.1499938965 487.5 rlineto
          6.40000915527 40.1000061035 17.9499969482 66.3999938965 95 0 rrcurveto
          368 hlineto
          50.8500061035 0 38.25 -4.44999694824 -14.9499969482 -102.050003052 rrcurveto
          -47.0500030518 -315.5 rlineto
          -12.6499938965 -81 -25.8500061035 -9 -48 0 rrcurveto
          54.8000030518 378.75 rlineto
          -50.9999847412 49 -88.1999969482 15.4499969482 -87.450012207 0 -84.5 0 -107 -42.3999938965 -34 -221.350006104 rrcurveto
          hintmask 00101100
          -31.549987793 -209.5 67.6499938965 -75.3499908447 115.899993896 -0.100006103516 73 -0.0500030517578 43.25 33.4000091553 25.4000091553 30.1499938965 rrcurveto
          hintmask 10011100
          23.3500061035 -56.5 78.5 0 rlineto
          144 0 29.9000091553 91.4499969482 10.1499938965 69.0500030518 rrcurveto
          50.1999969482 336.5 rlineto
          18.75 126.300003052 -40.75 86.6999969482 -131.649993896 0 rrcurveto
          -368 hlineto
          -143.949996948 0 -72.6500091553 -66.75 -20.25 -125.25 rrcurveto
          225.300003052 -260 rmoveto
          20.1999816895 153.850006104 52.8500061035 32.3499908447 53.75 0 35.6999969482 0 39.6500091553 -0.349990844727 49.1499938965 -11.8000030518 rrcurveto
          -43.3000030518 -277.050003052 rlineto
          hintmask 00101100
          -43.6500091553 -48.3000030518 -39.5500030518 -15.1499938965 -55 -0.0500030517578 -75.1999969482 -0.399993896484 -9.10000610352 55.1499938965 14.5 111.75 rrcurveto
          endchar
        </CharString>
        <CharString name="at.smcp">
          379 -155.850006104 98.5 -71.5 71.5 83.5 98.5 -91.5 98.5 345.700012207 97.5 68.799987793 96 hstemhm
          hintmask 10001100
          62.25 56.6499938965 rmoveto
          -17.6999969482 -113.299987793 48.4499969482 -99.200012207 142.149993896 0 rrcurveto
          94.5 hlineto
          hintmask 01011100
          126 0 116 17 50 10 rrcurveto
          11.8500061035 71.5 -386 0 rlineto
          -86 0 -9.05000305176 50 9 57 rrcurveto
          77.1499938965 487.5 rlineto
          6.39999389648 40.1000061035 17.9499969482 66.3999938965 95 0 rrcurveto
          368 hlineto
          50.8499908447 0 38.25 -4.44999694824 -14.9499969482 -102.050003052 rrcurveto
          -47.0500030518 -315.5 rlineto
          -12.6499938965 -81 -25.8499908447 -9 -48 0 rrcurveto
          54.8000030518 378.75 rlineto
          -51 49 -88.200012207 15.450012207 -87.4499969482 0 -84.5 0 -107 -42.4000091553 -34 -221.349990845 rrcurveto
          hintmask 00101100
          -31.5500030518 -209.5 67.6500091553 -75.3500061035 115.899993896 -0.100006103516 73 -0.0499877929688 43.25 33.3999938965 25.4000091553 30.1499938965 rrcurveto
          hintmask 10011100
          23.3500061035 -56.5 78.5 0 rlineto
          143.999984741 0 29.9000091553 91.450012207 10.1499938965 69.049987793 rrcurveto
          50.1999969482 336.5 rlineto
          18.7499847412 126.300003052 -40.75 83.1999969482 -131.649993896 0 rrcurveto
          -368 hlineto
          -143.949981689 0 -72.6500091553 -63.25 -20.25 -125.25 rrcurveto
          225.300003052 -260 rmoveto
          20.1999969482 153.850006104 52.8500061035 32.3500061035 53.75 0 35.6999969482 0 39.6499938965 -0.350006103516 49.1500091553 -11.8000030518 rrcurveto
          -43.3000030518 -277.050003052 rlineto
          hintmask 00101100
          -43.6499938965 -48.299987793 -39.5500030518 -15.1500091553 -55 -0.0500030517578 -75.1999969482 -0.399993896484 -9.10000610352 55.1499938965 14.5 111.75 rrcurveto
          endchar
        </CharString>
        <CharString name="atilde">
          34 -6.2998046875 102.350006104 -95.3500061035 21 581.231704712 82.6000061035 -48.25 82.6000061035 hstemhm
          hintmask 00010000
          197.2734375 652.381835938 rmoveto
          -33 callsubr
          hintmask 00100000
          37.0498046875 0.6494140625 16.2998046875 -34.349609375 51.4501953125 -0.650390625 46.4501953125 -0.6494140625 41.4501953125 37.0498046875 37.3994140625 29.099609375 rrcurveto
          -14.6494140625 53.2001953125 rlineto
          -13 -10.650390625 -57.400390625 -26.7998046875 -29.599609375 1.3505859375 rrcurveto
          hintmask 00010000
          -32.2001953125 0.6494140625 -19.900390625 31.75 -47.8994140625 1.9501953125 rrcurveto
          -46.25 0 -44.1005859375 -33.4501953125 -40.099609375 -34.0498046875 rrcurveto
          hintmask 10000000
          -116.123046875 -362.481445312 rmoveto
          -37 callsubr
          hintmask 01000000
          -36 callsubr
          112.649414062 -25.9501953125 rmoveto
          -35 callsubr
          hintmask 10000000
          -34 callsubr
          endchar
        </CharString>
        <CharString name="atilde.salt">
          34 -7.349609375 95.6494140625 353.300201416 94.1499938965 61.9499969482 82.6000061035 -48.25 82.6000061035 hstemhm
          hintmask 00010000
          200.520507812 647.150390625 rmoveto
          56 callsubr
          hintmask 00100000
          -20 callsubr
          hintmask 00010000
          -19 callsubr
          hintmask 11000000
          -119.420898438 -368.150390625 rmoveto
          102 callsubr
          114.950195312 -20.4501953125 rmoveto
          103 callsubr
          endchar
        </CharString>
        <CharString name="atilde.smcp">
          94 0 21 108.25 98.5 402.899993896 82.6000061035 -48.25 82.6000061035 hstemhm
          hintmask 00010000
          245.115234375 680.099609375 rmoveto
          -44 callsubr
          hintmask 00100000
          50 callsubr
          hintmask 00010000
          51 callsubr
          hintmask 11000000
          -215.365234375 -680.099609375 rmoveto
          65 callsubr
          -59.150390625 -342.25 rmoveto
          66 callsubr
          endchar
        </CharString>
        <CharString name="b">
          48 -6 103.050003052 345.199996948 96.75 hstem
          50.8999938965 hmoveto
          92.5500030518 0 31.8000030518 55.5 rlineto
          26.8500061035 -23.8999938965 71.8999938965 -35 64.8500061035 -2.60000610352 147.599990845 -6.5 44.8500061035 115.300003052 24.5 146.199996948 23.5 143.5 -5.25 146.5 -153.100006104 0 -45 0 -72.8000030518 -12.9499969482 -57.8499908447 -23.5500030518 rrcurveto
          44.3000030518 282.5 -114.699996948 0 rlineto
          12.8500061035 -650.350006104 rmoveto
          45.6999969482 285.449996948 rlineto
          50.9999847412 15.549987793 43 6.60000610352 58.8000030518 0 67.6499938965 0 4.25 -56.25 -18 -119.5 -18.299987793 -120.050003052 -30.6500091553 -49.3999938965 -58.8999938965 0 -62.1999969482 0 -46.75 17.3499908447 -35.6000061035 20.25 rrcurveto
          endchar
        </CharString>
        <CharString name="b.salt">
          46 -11.25 95 354.899993896 97.1000061035 247.199996948 -20 hstem
          52.9499969482 16.3000030518 rmoveto
          48.799987793 -14.8499908447 116.550003052 -12.6999969482 101.449996948 0 128.899993896 0 77.950012207 67.6000061035 26.799987793 190.899993896 23.5 170.550003052 -18.1999969482 117.949996948 -148.449996948 0 -37.6499938965 0 -73.700012207 -11.9499969482 -53.6499938965 -27.0500030518 rrcurveto
          45.3000030518 286.199996948 -116 0 rlineto
          5.20001220703 -699.200012207 rmoveto
          52.3500061035 332 rlineto
          60.799987793 18.8999938965 26.450012207 4 55.0999908447 0 92.3000030518 0 -14.3000030518 -87.5999908447 -15.3999938965 -95.75 -10 -61.9499969482 -19.4499969482 -109.600006104 -89.8500061035 0 rrcurveto
          endchar
        </CharString>
        <CharString name="b.smcp">
          40 0 103 146.25 91.5 128.25 102 hstem
          67.75 hmoveto
          267.5 hlineto
          126 0 57.0500030518 46.6000061035 17.4499969482 108.399993896 12.3500061035 77.8000030518 -27.6500091553 49.5999908447 -40.1999969482 8.60000610352 47.0500030518 7.80000305176 33.3999938965 38.4499969482 12.0500030518 77.25 13.8000030518 85.8999938965 -41.8500061035 70.6000061035 -124 0 rrcurveto
          -262.949996948 hlineto
          42.5500030518 -468 rmoveto
          23.0500030518 146.25 rlineto
          23.3999938965 -1.30000305176 121.100006104 1.30000305176 0 0 49.25 0 8 -30.1499938965 -4.65000915527 -45.5500030518 -6.64999389648 -57.4499969482 -40.6500091553 -13.1000061035 -28.3499908447 0 rrcurveto
          -106.650009155 237.75 rmoveto
          20.0500030518 128.25 144.5 0 rlineto
          36.6999816895 0 23.8000030518 -8.75 -8.19999694824 -52.75 -7.55000305176 -47.6499938965 -15.1499938965 -19.1000061035 -49.6500091553 0 rrcurveto
          endchar
        </CharString>
        <CharString name="b.superior">
          -89 369.100006104 81.6000061035 208.799987793 77.0500030518 hstem
          105.350006104 373.100006104 rmoveto
          69.3999938965 0 28.6499938965 42.1999969482 rlineto
          20.1000061035 -17.8499908447 41.4499969482 -28.3499908447 48.1999969482 0 100.950012207 0 45.049987793 67.549987793 12.5500030518 104.050003052 10.9000091553 88.6999969482 -0.600006103516 107.150009155 -110.5 0 -33.3000030518 0 -45.8000030518 -9.30000305176 -42.9499969482 -18.25 rrcurveto
          29.9499969482 187.75 -91.0500030518 0 rlineto
          24.5 -422.649993896 rmoveto
          27.1499938965 170.5 rlineto
          37.8999938965 9.94999694824 16.450012207 4.94999694824 43.6499938965 0 37.8500061035 0 16.1499938965 -13.8500061035 -11 -92.6999969482 -8.05000305176 -67.5999908447 -29.5500030518 -34.6500091553 -38.5 0 -45.6999969482 0 -19.25 10.8000030518 -27.0999908447 12.6000061035 rrcurveto
          endchar
        </CharString>
        <CharString name="backslash">
          -79 137.850006104 262.75 vstem
          137.850006104 770 rmoveto
          148 -842 114.75 0 -148 842 rlineto
          endchar
        </CharString>
        <CharString name="bar">
          -261 60.6999969482 235 vstem
          60.6999969482 -72 rmoveto
          102 0 133 842 -102 0 rlineto
          endchar
        </CharString>
        <CharString name="braceleft">
          -187 -231 98.5 405.75 91.5 354.25 102 hstem
          61.75 273.25 rmoveto
          40 3 36.8000030518 -23.3000030518 -6.30000305176 -39.1999969482 rrcurveto
          -38.25 -235.600006104 rlineto
          -18.0500030518 -109.699996948 39.3500061035 -99.4499969482 154.550003052 0 rrcurveto
          15.8500061035 98.5 rlineto
          -62.9000091553 -2.60000610352 -25.9000091553 32.3500061035 15.200012207 94.8999938965 rrcurveto
          37.1999969482 230.850006104 rlineto
          7.70001220703 47.25 -32.0500030518 34.9499969482 -52.5999908447 9.10000610352 54.9499969482 7.59999084473 42.6999969482 27 9.39999389648 57.1000061035 rrcurveto
          31.3999938965 201 rlineto
          14.0000152588 88.3999938965 36.5999908447 24.25 58.9000091553 -0.649993896484 rrcurveto
          16.1999969482 102 rlineto
          -141.899993896 0 -74.5 -57.4499969482 -19 -118.050003052 rrcurveto
          -37 -234.25 rlineto
          -7.30000305176 -46.4499969482 -46.5500030518 1.64999389648 -33.6499938965 -1.69999694824 rrcurveto
          endchar
        </CharString>
        <CharString name="braceright">
          -190 -231 98.5 370 91.5 390 102 hstem
          -16.1499938965 -231 rmoveto
          146.099990845 0 68.25 55.3500061035 20.4000091553 122.25 rrcurveto
          40.1000061035 244.399993896 rlineto
          7.29998779297 45.0500030518 43.75 1.84999084473 36.1000061035 -0.399993896484 rrcurveto
          14.8500061035 91.5 rlineto
          -37.5500183105 -0.899993896484 -39.25 19.799987793 5.95001220703 40.6000061035 rrcurveto
          32.6499938965 218.800003052 rlineto
          17.6999969482 108.300018311 -39 105.399993896 -150.349990845 0 rrcurveto
          -16.5500030518 -102 rlineto
          61.5000152588 2.60000610352 27.3000030518 -28.1500091553 -16.6000061035 -104 rrcurveto
          -33.3500061035 -208.800003052 rlineto
          -8.75 -53.1999969482 32.1000061035 -32.8499908447 52.9499969482 -6.30000305176 -55.3000030518 -10.4000091553 -42.049987793 -29.0999908447 -8.35000610352 -51.1500091553 rrcurveto
          -35.8999938965 -223.050003052 rlineto
          -12.6000061035 -79.3000030518 -35.25 -28.4499969482 -60.3000030518 0.649993896484 rrcurveto
          endchar
        </CharString>
        <CharString name="bracketleft">
          -178 -231 102 848 102 hstem
          68.1999969482 -31.3500061035 rmoveto
          -12.1500091553 -74.1499938965 3.05000305176 -125.5 134.549987793 0 rrcurveto
          85.6000061035 0 16.1999969482 102 -64.25 0 rlineto
          -45.8000183105 0 -13.1499938965 15.3999938965 11.9499969482 75.6000061035 rrcurveto
          108.350006104 677.699996948 rlineto
          10.6500091553 63.8999938965 26 15.3999938965 38 0 rrcurveto
          62.5 0 16.1999969482 102 -80 0 rlineto
          -131.149993896 0 -38.9499969482 -58.9499969482 -16.8000030518 -102.75 rrcurveto
          endchar
        </CharString>
        <CharString name="bracketright">
          -180 -231 102 848 102 hstem
          -16.1499938965 -231 rmoveto
          87 hlineto
          137.799987793 0 32.6500091553 71.5500030518 13.6499938965 90.5 rrcurveto
          106.25 696.25 rlineto
          12.1499938965 83.2500152588 -12.5 110.449996948 -128.600006104 0 rrcurveto
          -81.3999938965 0 -16.5500030518 -102 62.5 0 rlineto
          45.8000183105 0 14.1999969482 -15.3999938965 -11.9499969482 -75.6000061035 rrcurveto
          -107.300003052 -677.699996948 rlineto
          -10.6499938965 -63.8999938965 -26.3499908447 -15.3999938965 -38 0 rrcurveto
          -62.5 hlineto
          endchar
        </CharString>
        <CharString name="breve">
          -256 530.699996948 52.6499938965 hstem
          57.25 53.3500061035 121.349990845 53.3500061035 vstem
          57.25 644 rmoveto
          -6 -71.8999938965 50.8500061035 -41.4000091553 58.5999908447 0 69.6999969482 0 45.6500091553 36.8500061035 9.25 76.4499969482 rrcurveto
          -53.3500061035 hlineto
          -5.90000915527 -42.9499969482 -23.75 -18.3500061035 -41.25 0.650009155273 -32.6500091553 0 -22.75 22.1999969482 4.95001220703 38.4499969482 rrcurveto
          endchar
        </CharString>
        <CharString name="brokenbar">
          -260 60.6999969482 235 vstem
          60.6999969482 -72 rmoveto
          102 0 52 328 -102 0 rlineto
          26.9999847412 173 rmoveto
          102 0 54 341 -102 0 rlineto
          endchar
        </CharString>
        <CharString name="bullet">
          -199 296.75 171.5 hstem
          123.949996948 182.350006104 vstem
          123.949996948 328.75 rmoveto
          -3.00001525879 -20 10 -12 20 0 rrcurveto
          98.5 hlineto
          19.9999847412 0 17 8 4 24 rrcurveto
          15.8500061035 104.5 rlineto
          3.00001525879 22 -7 13 -25 0 rrcurveto
          -98.5 hlineto
          -21.9999847412 0 -14 -14 -3 -21 rrcurveto
          endchar
        </CharString>
        <CharString name="bullet.smcp">
          -199 238.699996948 171.5 hstem
          114.949996948 182.350006104 vstem
          114.949996948 270.699996948 rmoveto
          -3.00001525879 -20.0000152588 10 -12 20 0 rrcurveto
          98.5 hlineto
          19.9999847412 -1.52587890625e-05 17 8 4 24 rrcurveto
          15.8500061035 104.5 rlineto
          3.00001525879 21.9999847412 -7 13 -25 0 rrcurveto
          -98.5 hlineto
          -21.9999847412 -1.52587890625e-05 -14 -14 -3 -21 rrcurveto
          endchar
        </CharString>
        <CharString name="c">
          -14 -5.64999389648 97.8500061035 348.349990845 98.5 hstem
          82.3500061035 276.5 rmoveto
          -34.3000030518 -203.449996948 71.1999969482 -77.6999969482 100.949996948 -1 100.150009155 -1.35000610352 63.3999938965 6.35000610352 80.8000030518 26.5 rrcurveto
          12.1499938965 76.3000030518 rlineto
          -1.52587890625e-05 0 -117.349990845 -9.94999694824 -92 0 -67.450012207 0 -26.75 30.9499969482 24.200012207 139.550003052 30.75 171.600006104 32.3999938965 6.25 62.1499938965 0 rrcurveto
          89 110.350006104 -7.30000305176 0 hvcurveto
          11.5 75 rlineto
          -71.5 19.3000030518 -110 11.5 -52 0 -96.8000030518 0 -80.6999969482 -25.3000030518 -40.1499938965 -237.25 rrcurveto
          endchar
        </CharString>
        <CharString name="c.smcp">
          9 -4 98.5 385 98.5 hstem
          93.5995941162 317.199996948 rmoveto
          -24.099609375 -151.300018311 1.15040588379 -169.899993896 190.44960022 0 90.6499938965 0 73.3999938965 10.0498046875 66.3000030518 20.1006011963 rrcurveto
          12.8500061035 81.4996032715 rlineto
          1.52587890625e-05 0 -129.850006104 -11.850189209 -76.8499908447 -1.2998046875 -115 2 10.75 96.3500061035 16.25 102.149993896 18.25 117.5 28.3999938965 67 102 0 65 0 123.300003052 -10.5 15 -3 rrcurveto
          12.8500061035 83.5 rlineto
          -56 19 -101.649993896 9.5 -63.6499938965 0 -174.900009155 0 -59.5 -102.149993896 -25.100402832 -158.650009155 rrcurveto
          endchar
        </CharString>
        <CharString name="c.superior">
          -146 368.800003052 78.1000061035 206.399993896 78.1000061035 hstem
          121.550003052 557.100006104 rmoveto
          -21.9999847412 -134.100006104 51.5500030518 -53.8500061035 77.1499938965 -0.349990844727 72.8500061035 -0.350006103516 37.549987793 5 59.8000030518 19.8000030518 rrcurveto
          10.1000061035 59.6000061035 rlineto
          1.52587890625e-05 0 -75.1999969482 -5.95001220703 -66.200012207 0 -51.8999938965 0 -16.8999938965 14.3500061035 13.9499969482 87.1999969482 16.8999938965 103.199996948 25.6999969482 1.65000915527 45 0 rrcurveto
          64.200012207 70.1999969482 -4.65000915527 0 hvcurveto
          9.44999694824 59.6499938965 rlineto
          -52.3999938965 14.5500183105 -74.3000030518 8.54998779297 -38.3000030518 0 -74.6000061035 0 -57.3499908447 -17.4499969482 -25.25 -156.849990845 rrcurveto
          endchar
        </CharString>
        <CharString name="c_h">
          559 -7 98.5 -70.5 -21 21 -21 438.800003052 98.5 246 -20 hstemhm
          hintmask 10011000
          75.0500030518 276.5 rmoveto
          -36.9999847412 -233 94 -50.5 99 0 169.300003052 4.55000305176 276 -58.1500091553 43.75 278.150009155 rrcurveto
          27.4499969482 173.949996948 rlineto
          48.5000152588 28.9499969482 41.5999908447 21.0500030518 70.8000030518 0 38.25 0 28.1999969482 -23 -8.94999694824 -57.6000061035 rrcurveto
          hintmask 01011000
          -57.25 -360.899993896 116 0 56.8999938965 359.5 rlineto
          15.3999938965 96.3999938965 -29.9499969482 84.1000061035 -117.199996948 0 -82.3000030518 0 -58.3000030518 -37.1999969482 -49.5500030518 -30.3000030518 rrcurveto
          49.3000030518 310.800003052 -115.649993896 0 -88.1999969482 -559.100006104 rlineto
          hintmask 10011000
          -23.1999969482 -144.150009155 -128.399993896 11.4499969482 -189 0 -72 0 -23.75 30.8000030518 21.8999938965 139.699996948 26.8500061035 169.050003052 35.6499938965 7.75 62.8000030518 0 rrcurveto
          89 109.699996948 -7.30000305176 0 hvcurveto
          12.1499938965 75 rlineto
          -77.8000030518 22.8000030518 -104 8 -52 0 rrcurveto
          -102 0 -80.4000091553 -37.1999969482 -35.5999908447 -223.600006104 rrcurveto
          endchar
        </CharString>
        <CharString name="c_k">
          466 -4.55000305176 96.75 346.600006104 98.5 244.699996948 -20 hstem
          75.3999938965 276.5 rmoveto
          -35.5999908447 -224.25 113 -56.8000030518 146.599990845 0 77.6000061035 0 86.6499938965 35.1000061035 81.5 42.5 rrcurveto
          -11.8500061035 -73.0500030518 116 0 21.6000061035 138.199996948 rlineto
          9.45001220703 4.89999389648 57.1999969482 39.049987793 9.09999084473 5.60000610352 rrcurveto
          130.75 -187.75 132 0 -171.5 260.100006104 rlineto
          74.950012207 57.8499908447 100.949996948 116.600006104 27.5999908447 96.4499969482 rrcurveto
          -125 hlineto
          -11.1499938965 -69.75 -101.399993896 -107.850006104 -111.050003052 -78.3499908447 rrcurveto
          80.5 506.949996948 -116 0 -93 -587.649993896 rlineto
          -103.149993896 -61 -102.099990845 -43.1000061035 -59.3000030518 1.94999694824 -80.0500030518 3.25 -51.1999969482 25.1000061035 22.25 142.149993896 26.8500061035 168.350006104 35.299987793 7.75 62.8000030518 0 rrcurveto
          89 110.350006104 -7.30000305176 0 hvcurveto
          11.5 75 rlineto
          -71.4999847412 19.3000030518 -109.650009155 11.5 -52 0 -102 0 -80.3999938965 -37.1999969482 -35.6000061035 -223.600006104 rrcurveto
          endchar
        </CharString>
        <CharString name="c_t">
          347 -6.35000610352 97.8500061035 -91.5500030518 75.9499969482 359.100006104 96.0500030518 hstemhm
          hintmask 10100000
          74.0500030518 274.75 rmoveto
          -35.6999816895 -212.199996948 72.5999908447 -68.25 102 -0.650009155273 99.4499969482 -0.649993896484 61.3000030518 6.35000610352 83.9499969482 25.799987793 rrcurveto
          12.1499938965 76.3000030518 rlineto
          1.52587890625e-05 -1.52587890625e-05 -117.350006104 -9.94999694824 -92 0 -67.4499969482 0 -28.5 27.1000061035 24.5500030518 141.649993896 31.8000030518 179.300003052 38.3499908447 -4.55000305176 59.3500061035 0 rrcurveto
          341.5 0.350006103516 -38.8500061035 -245.699996948 rlineto
          hintmask 01100000
          -22.0000152588 -140.349990845 44.3500061035 -49.3500061035 89.75 0 rrcurveto
          92.6999969482 0 12.1499938965 75.9499969482 rlineto
          -3.09999084473 -61.75 19.0500030518 0 hvcurveto
          -35.6000061035 10.6999969482 -12.6499938965 8.80000305176 14.25 89.1999969482 rrcurveto
          36.75 231.699996948 131.899993896 0 15.1499938965 96.3000030518 -131.899993896 0 23.6499938965 148 -94.5 0 -45.1499938965 -147.350006104 -379.649993896 -1.25 rlineto
          -96.799987793 1.52587890625e-05 -83.1499938965 -10.6500091553 -41.5500030518 -245.649993896 rrcurveto
          endchar
        </CharString>
</ttFont>
